  0
SECTION
  2
HEADER
  9
$ANGBASE
  50
0.0
  9
$ANGDIR
  70
1
  9
$MEASUREMENT
  70
1
  0
ENDSEC
  0
SECTION
  2
TABLES
  0
TABLE
  2
LTYPE
  70
4
  0
LTYPE
  5
40F
  2
CONTINUOUS
  70
0
  3
Solid line
  72
65
  73
0
  40
0.0
  0
LTYPE
  5
410
  2
DASHDOT
 70
0
  3
Dash Dot ____ _ ____ _
 72
65
 73
4
 40
2.0
 49
1.25
 49
-0.25
 49
0.25
 49
-0.25
  0
LTYPE
  5
411
  2
DASHED
 70
0
  3
Dashed __ __ __ __ __
 72
65
 73
2
 40
0.75
 49
0.5
 49
-0.25
  0
LTYPE
  5
43B
  2
DOTTED
 70
0
  3
Dotted .  .  .  .
 72
65
 73
2
 40
0.2
 49
0.0
 49
-0.2
  0
ENDTAB
  0
TABLE
  2
STYLE
  70
4
  0
STYLE
  2
KICAD
  70
0
  40
0
  41
1
  42
1
  50
0
  71
0
  3
isocp.shx
  0
STYLE
  2
KICADB
  70
0
  40
0
  41
1
  42
1
  50
0
  71
0
  3
isocp.shx
  0
STYLE
  2
KICADI
  70
0
  40
0
  41
1
  42
1
  50
15
  71
0
  3
isocp.shx
  0
STYLE
  2
KICADBI
  70
0
  40
0
  41
1
  42
1
  50
15
  71
0
  3
isocp.shx
  0
ENDTAB
  0
TABLE
  2
LAYER
  70
1
  0
LAYER
  2
BLACK
  70
0
  62
7
  6
CONTINUOUS
  0
ENDTAB
  0
ENDSEC
  0
SECTION
  2
ENTITIES
0
LINE
8
BLACK
6
CONTINUOUS
10
159.01
20
-98.9767
11
159.013
21
-98.9761
0
LINE
8
BLACK
6
CONTINUOUS
10
159.013
20
-98.9761
11
159.016
21
-98.9778
0
LINE
8
BLACK
6
CONTINUOUS
10
159.016
20
-98.9778
11
159.026
21
-98.9795
0
LINE
8
BLACK
6
CONTINUOUS
10
159.026
20
-98.9795
11
159.041
21
-98.992
0
LINE
8
BLACK
6
CONTINUOUS
10
159.041
20
-98.992
11
159.057
21
-99.0018
0
LINE
8
BLACK
6
CONTINUOUS
10
159.057
20
-99.0018
11
159.06
21
-99.0082
0
LINE
8
BLACK
6
CONTINUOUS
10
159.06
20
-99.0082
11
159.065
21
-99.0125
0
LINE
8
BLACK
6
CONTINUOUS
10
159.065
20
-99.0125
11
159.068
21
-99.0317
0
LINE
8
BLACK
6
CONTINUOUS
10
159.068
20
-99.0317
11
159.075
21
-99.05
0
LINE
8
BLACK
6
CONTINUOUS
10
159.075
20
-99.05
11
159.075
21
-116.85
0
LINE
8
BLACK
6
CONTINUOUS
10
159.075
20
-116.85
11
159.073
21
-116.86
0
LINE
8
BLACK
6
CONTINUOUS
10
159.073
20
-116.86
11
159.074
21
-116.863
0
LINE
8
BLACK
6
CONTINUOUS
10
159.074
20
-116.863
11
159.072
21
-116.866
0
LINE
8
BLACK
6
CONTINUOUS
10
159.072
20
-116.866
11
159.07
21
-116.876
0
LINE
8
BLACK
6
CONTINUOUS
10
159.07
20
-116.876
11
159.058
21
-116.891
0
LINE
8
BLACK
6
CONTINUOUS
10
159.058
20
-116.891
11
159.048
21
-116.907
0
LINE
8
BLACK
6
CONTINUOUS
10
159.048
20
-116.907
11
159.042
21
-116.91
0
LINE
8
BLACK
6
CONTINUOUS
10
159.042
20
-116.91
11
159.037
21
-116.915
0
LINE
8
BLACK
6
CONTINUOUS
10
159.037
20
-116.915
11
159.018
21
-116.918
0
LINE
8
BLACK
6
CONTINUOUS
10
159.018
20
-116.918
11
159
21
-116.925
0
LINE
8
BLACK
6
CONTINUOUS
10
159
20
-116.925
11
98
21
-116.925
0
LINE
8
BLACK
6
CONTINUOUS
10
98
20
-116.925
11
97.9903
21
-116.923
0
LINE
8
BLACK
6
CONTINUOUS
10
97.9903
20
-116.923
11
97.987
21
-116.924
0
LINE
8
BLACK
6
CONTINUOUS
10
97.987
20
-116.924
11
97.9841
21
-116.922
0
LINE
8
BLACK
6
CONTINUOUS
10
97.9841
20
-116.922
11
97.9743
21
-116.92
0
LINE
8
BLACK
6
CONTINUOUS
10
97.9743
20
-116.92
11
97.9594
21
-116.908
0
LINE
8
BLACK
6
CONTINUOUS
10
97.9594
20
-116.908
11
97.9425
21
-116.898
0
LINE
8
BLACK
6
CONTINUOUS
10
97.9425
20
-116.898
11
97.9402
21
-116.892
0
LINE
8
BLACK
6
CONTINUOUS
10
97.9402
20
-116.892
11
97.935
21
-116.887
0
LINE
8
BLACK
6
CONTINUOUS
10
97.935
20
-116.887
11
97.9317
21
-116.868
0
LINE
8
BLACK
6
CONTINUOUS
10
97.9317
20
-116.868
11
97.925
21
-116.85
0
LINE
8
BLACK
6
CONTINUOUS
10
97.925
20
-116.85
11
97.925
21
-99.05
0
LINE
8
BLACK
6
CONTINUOUS
10
97.925
20
-99.05
11
97.9267
21
-99.0403
0
LINE
8
BLACK
6
CONTINUOUS
10
97.9267
20
-99.0403
11
97.9261
21
-99.037
0
LINE
8
BLACK
6
CONTINUOUS
10
97.9261
20
-99.037
11
97.9278
21
-99.0341
0
LINE
8
BLACK
6
CONTINUOUS
10
97.9278
20
-99.0341
11
97.9295
21
-99.0243
0
LINE
8
BLACK
6
CONTINUOUS
10
97.9295
20
-99.0243
11
97.942
21
-99.0094
0
LINE
8
BLACK
6
CONTINUOUS
10
97.942
20
-99.0094
11
97.9518
21
-98.9925
0
LINE
8
BLACK
6
CONTINUOUS
10
97.9518
20
-98.9925
11
97.9581
21
-98.9902
0
LINE
8
BLACK
6
CONTINUOUS
10
97.9581
20
-98.9902
11
97.9625
21
-98.985
0
LINE
8
BLACK
6
CONTINUOUS
10
97.9625
20
-98.985
11
97.9817
21
-98.9817
0
LINE
8
BLACK
6
CONTINUOUS
10
97.9817
20
-98.9817
11
98
21
-98.975
0
LINE
8
BLACK
6
CONTINUOUS
10
98
20
-98.975
11
159
21
-98.975
0
LINE
8
BLACK
6
CONTINUOUS
10
159
20
-98.975
11
159.01
21
-98.9767
0
LINE
8
BLACK
6
CONTINUOUS
10
98.075
20
-99.125
11
98.075
21
-116.775
0
LINE
8
BLACK
6
CONTINUOUS
10
98.075
20
-116.775
11
158.925
21
-116.775
0
LINE
8
BLACK
6
CONTINUOUS
10
158.925
20
-116.775
11
158.925
21
-99.125
0
LINE
8
BLACK
6
CONTINUOUS
10
158.925
20
-99.125
11
98.075
21
-99.125
0
LINE
8
BLACK
6
CONTINUOUS
10
120.452
20
-93.3839
11
120.455
21
-93.3868
0
LINE
8
BLACK
6
CONTINUOUS
10
120.455
20
-93.3868
11
120.46
21
-93.3873
0
LINE
8
BLACK
6
CONTINUOUS
10
120.46
20
-93.3873
11
120.555
21
-93.4349
0
LINE
8
BLACK
6
CONTINUOUS
10
120.555
20
-93.4349
11
120.573
21
-93.4483
0
LINE
8
BLACK
6
CONTINUOUS
10
120.573
20
-93.4483
11
120.574
21
-93.449
0
LINE
8
BLACK
6
CONTINUOUS
10
120.574
20
-93.449
11
120.622
21
-93.4966
0
LINE
8
BLACK
6
CONTINUOUS
10
120.622
20
-93.4966
11
120.635
21
-93.515
0
LINE
8
BLACK
6
CONTINUOUS
10
120.635
20
-93.515
11
120.636
21
-93.5161
0
LINE
8
BLACK
6
CONTINUOUS
10
120.636
20
-93.5161
11
120.684
21
-93.6113
0
LINE
8
BLACK
6
CONTINUOUS
10
120.684
20
-93.6113
11
120.691
21
-93.6363
0
LINE
8
BLACK
6
CONTINUOUS
10
120.691
20
-93.6363
11
120.69
21
-93.6406
0
LINE
8
BLACK
6
CONTINUOUS
10
120.69
20
-93.6406
11
120.692
21
-93.6449
0
LINE
8
BLACK
6
CONTINUOUS
10
120.692
20
-93.6449
11
120.692
21
-93.7401
0
LINE
8
BLACK
6
CONTINUOUS
10
120.692
20
-93.7401
11
120.688
21
-93.7622
0
LINE
8
BLACK
6
CONTINUOUS
10
120.688
20
-93.7622
11
120.688
21
-93.7638
0
LINE
8
BLACK
6
CONTINUOUS
10
120.688
20
-93.7638
11
120.64
21
-93.9067
0
LINE
8
BLACK
6
CONTINUOUS
10
120.64
20
-93.9067
11
120.628
21
-93.9296
0
LINE
8
BLACK
6
CONTINUOUS
10
120.628
20
-93.9296
11
120.624
21
-93.9319
0
LINE
8
BLACK
6
CONTINUOUS
10
120.624
20
-93.9319
11
120.622
21
-93.936
0
LINE
8
BLACK
6
CONTINUOUS
10
120.622
20
-93.936
11
120.179
21
-94.3794
0
LINE
8
BLACK
6
CONTINUOUS
10
120.179
20
-94.3794
11
120.617
21
-94.3794
0
LINE
8
BLACK
6
CONTINUOUS
10
120.617
20
-94.3794
11
120.642
21
-94.3839
0
LINE
8
BLACK
6
CONTINUOUS
10
120.642
20
-94.3839
11
120.682
21
-94.4169
0
LINE
8
BLACK
6
CONTINUOUS
10
120.682
20
-94.4169
11
120.691
21
-94.4674
0
LINE
8
BLACK
6
CONTINUOUS
10
120.691
20
-94.4674
11
120.665
21
-94.5118
0
LINE
8
BLACK
6
CONTINUOUS
10
120.665
20
-94.5118
11
120.617
21
-94.5294
0
LINE
8
BLACK
6
CONTINUOUS
10
120.617
20
-94.5294
11
119.998
21
-94.5294
0
LINE
8
BLACK
6
CONTINUOUS
10
119.998
20
-94.5294
11
119.981
21
-94.5265
0
LINE
8
BLACK
6
CONTINUOUS
10
119.981
20
-94.5265
11
119.978
21
-94.5268
0
LINE
8
BLACK
6
CONTINUOUS
10
119.978
20
-94.5268
11
119.977
21
-94.5257
0
LINE
8
BLACK
6
CONTINUOUS
10
119.977
20
-94.5257
11
119.972
21
-94.5249
0
LINE
8
BLACK
6
CONTINUOUS
10
119.972
20
-94.5249
11
119.955
21
-94.5103
0
LINE
8
BLACK
6
CONTINUOUS
10
119.955
20
-94.5103
11
119.936
21
-94.4974
0
LINE
8
BLACK
6
CONTINUOUS
10
119.936
20
-94.4974
11
119.935
21
-94.4941
0
LINE
8
BLACK
6
CONTINUOUS
10
119.935
20
-94.4941
11
119.933
21
-94.4919
0
LINE
8
BLACK
6
CONTINUOUS
10
119.933
20
-94.4919
11
119.929
21
-94.4696
0
LINE
8
BLACK
6
CONTINUOUS
10
119.929
20
-94.4696
11
119.923
21
-94.4478
0
LINE
8
BLACK
6
CONTINUOUS
10
119.923
20
-94.4478
11
119.924
21
-94.4447
0
LINE
8
BLACK
6
CONTINUOUS
10
119.924
20
-94.4447
11
119.924
21
-94.4414
0
LINE
8
BLACK
6
CONTINUOUS
10
119.924
20
-94.4414
11
119.935
21
-94.4218
0
LINE
8
BLACK
6
CONTINUOUS
10
119.935
20
-94.4218
11
119.945
21
-94.4013
0
LINE
8
BLACK
6
CONTINUOUS
10
119.945
20
-94.4013
11
120.503
21
-93.8424
0
LINE
8
BLACK
6
CONTINUOUS
10
120.503
20
-93.8424
11
120.542
21
-93.7279
0
LINE
8
BLACK
6
CONTINUOUS
10
120.542
20
-93.7279
11
120.542
21
-93.6626
0
LINE
8
BLACK
6
CONTINUOUS
10
120.542
20
-93.6626
11
120.507
21
-93.594
0
LINE
8
BLACK
6
CONTINUOUS
10
120.507
20
-93.594
11
120.477
21
-93.5636
0
LINE
8
BLACK
6
CONTINUOUS
10
120.477
20
-93.5636
11
120.408
21
-93.5294
0
LINE
8
BLACK
6
CONTINUOUS
10
120.408
20
-93.5294
11
120.206
21
-93.5294
0
LINE
8
BLACK
6
CONTINUOUS
10
120.206
20
-93.5294
11
120.137
21
-93.5636
0
LINE
8
BLACK
6
CONTINUOUS
10
120.137
20
-93.5636
11
120.098
21
-93.6027
0
LINE
8
BLACK
6
CONTINUOUS
10
120.098
20
-93.6027
11
120.077
21
-93.6176
0
LINE
8
BLACK
6
CONTINUOUS
10
120.077
20
-93.6176
11
120.026
21
-93.6221
0
LINE
8
BLACK
6
CONTINUOUS
10
120.026
20
-93.6221
11
119.984
21
-93.5926
0
LINE
8
BLACK
6
CONTINUOUS
10
119.984
20
-93.5926
11
119.971
21
-93.5431
0
LINE
8
BLACK
6
CONTINUOUS
10
119.971
20
-93.5431
11
119.992
21
-93.4966
0
LINE
8
BLACK
6
CONTINUOUS
10
119.992
20
-93.4966
11
120.04
21
-93.449
0
LINE
8
BLACK
6
CONTINUOUS
10
120.04
20
-93.449
11
120.058
21
-93.4361
0
LINE
8
BLACK
6
CONTINUOUS
10
120.058
20
-93.4361
11
120.059
21
-93.4349
0
LINE
8
BLACK
6
CONTINUOUS
10
120.059
20
-93.4349
11
120.155
21
-93.3873
0
LINE
8
BLACK
6
CONTINUOUS
10
120.155
20
-93.3873
11
120.18
21
-93.3799
0
LINE
8
BLACK
6
CONTINUOUS
10
120.18
20
-93.3799
11
120.184
21
-93.3809
0
LINE
8
BLACK
6
CONTINUOUS
10
120.184
20
-93.3809
11
120.188
21
-93.3794
0
LINE
8
BLACK
6
CONTINUOUS
10
120.188
20
-93.3794
11
120.426
21
-93.3794
0
LINE
8
BLACK
6
CONTINUOUS
10
120.426
20
-93.3794
11
120.452
21
-93.3839
0
LINE
8
BLACK
6
CONTINUOUS
10
118.785
20
-93.3839
11
118.824
21
-93.4169
0
LINE
8
BLACK
6
CONTINUOUS
10
118.824
20
-93.4169
11
118.833
21
-93.4674
0
LINE
8
BLACK
6
CONTINUOUS
10
118.833
20
-93.4674
11
118.808
21
-93.5118
0
LINE
8
BLACK
6
CONTINUOUS
10
118.808
20
-93.5118
11
118.76
21
-93.5294
0
LINE
8
BLACK
6
CONTINUOUS
10
118.76
20
-93.5294
11
118.549
21
-93.5294
0
LINE
8
BLACK
6
CONTINUOUS
10
118.549
20
-93.5294
11
118.549
21
-94.4544
0
LINE
8
BLACK
6
CONTINUOUS
10
118.549
20
-94.4544
11
118.544
21
-94.48
0
LINE
8
BLACK
6
CONTINUOUS
10
118.544
20
-94.48
11
118.511
21
-94.5193
0
LINE
8
BLACK
6
CONTINUOUS
10
118.511
20
-94.5193
11
118.461
21
-94.5282
0
LINE
8
BLACK
6
CONTINUOUS
10
118.461
20
-94.5282
11
118.416
21
-94.5026
0
LINE
8
BLACK
6
CONTINUOUS
10
118.416
20
-94.5026
11
118.399
21
-94.4544
0
LINE
8
BLACK
6
CONTINUOUS
10
118.399
20
-94.4544
11
118.399
21
-93.5294
0
LINE
8
BLACK
6
CONTINUOUS
10
118.399
20
-93.5294
11
118.188
21
-93.5294
0
LINE
8
BLACK
6
CONTINUOUS
10
118.188
20
-93.5294
11
118.162
21
-93.5249
0
LINE
8
BLACK
6
CONTINUOUS
10
118.162
20
-93.5249
11
118.123
21
-93.4919
0
LINE
8
BLACK
6
CONTINUOUS
10
118.123
20
-93.4919
11
118.114
21
-93.4414
0
LINE
8
BLACK
6
CONTINUOUS
10
118.114
20
-93.4414
11
118.14
21
-93.3969
0
LINE
8
BLACK
6
CONTINUOUS
10
118.14
20
-93.3969
11
118.188
21
-93.3794
0
LINE
8
BLACK
6
CONTINUOUS
10
118.188
20
-93.3794
11
118.76
21
-93.3794
0
LINE
8
BLACK
6
CONTINUOUS
10
118.76
20
-93.3794
11
118.785
21
-93.3839
0
LINE
8
BLACK
6
CONTINUOUS
10
119.499
20
-93.3839
11
119.503
21
-93.3868
0
LINE
8
BLACK
6
CONTINUOUS
10
119.503
20
-93.3868
11
119.507
21
-93.3873
0
LINE
8
BLACK
6
CONTINUOUS
10
119.507
20
-93.3873
11
119.603
21
-93.4349
0
LINE
8
BLACK
6
CONTINUOUS
10
119.603
20
-93.4349
11
119.621
21
-93.4483
0
LINE
8
BLACK
6
CONTINUOUS
10
119.621
20
-93.4483
11
119.622
21
-93.449
0
LINE
8
BLACK
6
CONTINUOUS
10
119.622
20
-93.449
11
119.67
21
-93.4966
0
LINE
8
BLACK
6
CONTINUOUS
10
119.67
20
-93.4966
11
119.683
21
-93.515
0
LINE
8
BLACK
6
CONTINUOUS
10
119.683
20
-93.515
11
119.684
21
-93.5161
0
LINE
8
BLACK
6
CONTINUOUS
10
119.684
20
-93.5161
11
119.731
21
-93.6113
0
LINE
8
BLACK
6
CONTINUOUS
10
119.731
20
-93.6113
11
119.739
21
-93.6363
0
LINE
8
BLACK
6
CONTINUOUS
10
119.739
20
-93.6363
11
119.738
21
-93.6406
0
LINE
8
BLACK
6
CONTINUOUS
10
119.738
20
-93.6406
11
119.739
21
-93.6449
0
LINE
8
BLACK
6
CONTINUOUS
10
119.739
20
-93.6449
11
119.739
21
-93.7877
0
LINE
8
BLACK
6
CONTINUOUS
10
119.739
20
-93.7877
11
119.735
21
-93.8134
0
LINE
8
BLACK
6
CONTINUOUS
10
119.735
20
-93.8134
11
119.732
21
-93.8168
0
LINE
8
BLACK
6
CONTINUOUS
10
119.732
20
-93.8168
11
119.731
21
-93.8213
0
LINE
8
BLACK
6
CONTINUOUS
10
119.731
20
-93.8213
11
119.684
21
-93.9165
0
LINE
8
BLACK
6
CONTINUOUS
10
119.684
20
-93.9165
11
119.67
21
-93.9345
0
LINE
8
BLACK
6
CONTINUOUS
10
119.67
20
-93.9345
11
119.67
21
-93.936
0
LINE
8
BLACK
6
CONTINUOUS
10
119.67
20
-93.936
11
119.622
21
-93.9836
0
LINE
8
BLACK
6
CONTINUOUS
10
119.622
20
-93.9836
11
119.604
21
-93.9965
0
LINE
8
BLACK
6
CONTINUOUS
10
119.604
20
-93.9965
11
119.603
21
-93.9977
0
LINE
8
BLACK
6
CONTINUOUS
10
119.603
20
-93.9977
11
119.507
21
-94.0453
0
LINE
8
BLACK
6
CONTINUOUS
10
119.507
20
-94.0453
11
119.482
21
-94.0527
0
LINE
8
BLACK
6
CONTINUOUS
10
119.482
20
-94.0527
11
119.478
21
-94.0517
0
LINE
8
BLACK
6
CONTINUOUS
10
119.478
20
-94.0517
11
119.474
21
-94.0532
0
LINE
8
BLACK
6
CONTINUOUS
10
119.474
20
-94.0532
11
119.168
21
-94.0532
0
LINE
8
BLACK
6
CONTINUOUS
10
119.168
20
-94.0532
11
119.168
21
-94.4544
0
LINE
8
BLACK
6
CONTINUOUS
10
119.168
20
-94.4544
11
119.163
21
-94.48
0
LINE
8
BLACK
6
CONTINUOUS
10
119.163
20
-94.48
11
119.13
21
-94.5193
0
LINE
8
BLACK
6
CONTINUOUS
10
119.13
20
-94.5193
11
119.08
21
-94.5282
0
LINE
8
BLACK
6
CONTINUOUS
10
119.08
20
-94.5282
11
119.035
21
-94.5026
0
LINE
8
BLACK
6
CONTINUOUS
10
119.035
20
-94.5026
11
119.018
21
-94.4544
0
LINE
8
BLACK
6
CONTINUOUS
10
119.018
20
-94.4544
11
119.018
21
-93.4544
0
LINE
8
BLACK
6
CONTINUOUS
10
119.018
20
-93.4544
11
119.02
21
-93.4446
0
LINE
8
BLACK
6
CONTINUOUS
10
119.02
20
-93.4446
11
119.019
21
-93.4414
0
LINE
8
BLACK
6
CONTINUOUS
10
119.019
20
-93.4414
11
119.021
21
-93.4385
0
LINE
8
BLACK
6
CONTINUOUS
10
119.021
20
-93.4385
11
119.022
21
-93.4287
0
LINE
8
BLACK
6
CONTINUOUS
10
119.022
20
-93.4287
11
119.035
21
-93.4138
0
LINE
8
BLACK
6
CONTINUOUS
10
119.035
20
-93.4138
11
119.045
21
-93.3969
0
LINE
8
BLACK
6
CONTINUOUS
10
119.045
20
-93.3969
11
119.051
21
-93.3946
0
LINE
8
BLACK
6
CONTINUOUS
10
119.051
20
-93.3946
11
119.055
21
-93.3894
0
LINE
8
BLACK
6
CONTINUOUS
10
119.055
20
-93.3894
11
119.075
21
-93.386
0
LINE
8
BLACK
6
CONTINUOUS
10
119.075
20
-93.386
11
119.093
21
-93.3794
0
LINE
8
BLACK
6
CONTINUOUS
10
119.093
20
-93.3794
11
119.474
21
-93.3794
0
LINE
8
BLACK
6
CONTINUOUS
10
119.474
20
-93.3794
11
119.499
21
-93.3839
0
LINE
8
BLACK
6
CONTINUOUS
10
119.168
20
-93.5294
11
119.168
21
-93.9032
0
LINE
8
BLACK
6
CONTINUOUS
10
119.168
20
-93.9032
11
119.456
21
-93.9032
0
LINE
8
BLACK
6
CONTINUOUS
10
119.456
20
-93.9032
11
119.525
21
-93.8689
0
LINE
8
BLACK
6
CONTINUOUS
10
119.525
20
-93.8689
11
119.555
21
-93.8385
0
LINE
8
BLACK
6
CONTINUOUS
10
119.555
20
-93.8385
11
119.589
21
-93.77
0
LINE
8
BLACK
6
CONTINUOUS
10
119.589
20
-93.77
11
119.589
21
-93.6626
0
LINE
8
BLACK
6
CONTINUOUS
10
119.589
20
-93.6626
11
119.555
21
-93.594
0
LINE
8
BLACK
6
CONTINUOUS
10
119.555
20
-93.594
11
119.525
21
-93.5636
0
LINE
8
BLACK
6
CONTINUOUS
10
119.525
20
-93.5636
11
119.456
21
-93.5294
0
LINE
8
BLACK
6
CONTINUOUS
10
119.456
20
-93.5294
11
119.168
21
-93.5294
0
LINE
8
BLACK
6
CONTINUOUS
10
160.002
20
-114.013
11
160.097
21
-113.785
0
LINE
8
BLACK
6
CONTINUOUS
10
160.097
20
-113.785
11
160.226
21
-113.574
0
LINE
8
BLACK
6
CONTINUOUS
10
160.226
20
-113.574
11
160.386
21
-113.386
0
LINE
8
BLACK
6
CONTINUOUS
10
160.386
20
-113.386
11
160.574
21
-113.226
0
LINE
8
BLACK
6
CONTINUOUS
10
160.574
20
-113.226
11
160.785
21
-113.097
0
LINE
8
BLACK
6
CONTINUOUS
10
160.785
20
-113.097
11
161.013
21
-113.002
0
LINE
8
BLACK
6
CONTINUOUS
10
161.013
20
-113.002
11
161.254
21
-112.944
0
LINE
8
BLACK
6
CONTINUOUS
10
161.254
20
-112.944
11
161.5
21
-112.925
0
LINE
8
BLACK
6
CONTINUOUS
10
161.5
20
-112.925
11
161.746
21
-112.944
0
LINE
8
BLACK
6
CONTINUOUS
10
161.746
20
-112.944
11
161.987
21
-113.002
0
LINE
8
BLACK
6
CONTINUOUS
10
161.987
20
-113.002
11
162.215
21
-113.097
0
LINE
8
BLACK
6
CONTINUOUS
10
162.215
20
-113.097
11
162.426
21
-113.226
0
LINE
8
BLACK
6
CONTINUOUS
10
162.426
20
-113.226
11
162.614
21
-113.386
0
LINE
8
BLACK
6
CONTINUOUS
10
162.614
20
-113.386
11
162.774
21
-113.574
0
LINE
8
BLACK
6
CONTINUOUS
10
162.774
20
-113.574
11
162.903
21
-113.785
0
LINE
8
BLACK
6
CONTINUOUS
10
162.903
20
-113.785
11
162.998
21
-114.013
0
LINE
8
BLACK
6
CONTINUOUS
10
162.998
20
-114.013
11
163.056
21
-114.254
0
LINE
8
BLACK
6
CONTINUOUS
10
163.056
20
-114.254
11
163.075
21
-114.5
0
LINE
8
BLACK
6
CONTINUOUS
10
163.075
20
-114.5
11
163.056
21
-114.746
0
LINE
8
BLACK
6
CONTINUOUS
10
163.056
20
-114.746
11
162.998
21
-114.987
0
LINE
8
BLACK
6
CONTINUOUS
10
162.998
20
-114.987
11
162.903
21
-115.215
0
LINE
8
BLACK
6
CONTINUOUS
10
162.903
20
-115.215
11
162.774
21
-115.426
0
LINE
8
BLACK
6
CONTINUOUS
10
162.774
20
-115.426
11
162.614
21
-115.614
0
LINE
8
BLACK
6
CONTINUOUS
10
162.614
20
-115.614
11
162.426
21
-115.774
0
LINE
8
BLACK
6
CONTINUOUS
10
162.426
20
-115.774
11
162.215
21
-115.903
0
LINE
8
BLACK
6
CONTINUOUS
10
162.215
20
-115.903
11
161.987
21
-115.998
0
LINE
8
BLACK
6
CONTINUOUS
10
161.987
20
-115.998
11
161.746
21
-116.056
0
LINE
8
BLACK
6
CONTINUOUS
10
161.746
20
-116.056
11
161.5
21
-116.075
0
LINE
8
BLACK
6
CONTINUOUS
10
161.5
20
-116.075
11
161.254
21
-116.056
0
LINE
8
BLACK
6
CONTINUOUS
10
161.254
20
-116.056
11
161.013
21
-115.998
0
LINE
8
BLACK
6
CONTINUOUS
10
161.013
20
-115.998
11
160.785
21
-115.903
0
LINE
8
BLACK
6
CONTINUOUS
10
160.785
20
-115.903
11
160.574
21
-115.774
0
LINE
8
BLACK
6
CONTINUOUS
10
160.574
20
-115.774
11
160.386
21
-115.614
0
LINE
8
BLACK
6
CONTINUOUS
10
160.386
20
-115.614
11
160.226
21
-115.426
0
LINE
8
BLACK
6
CONTINUOUS
10
160.226
20
-115.426
11
160.097
21
-115.215
0
LINE
8
BLACK
6
CONTINUOUS
10
160.097
20
-115.215
11
160.002
21
-114.987
0
LINE
8
BLACK
6
CONTINUOUS
10
160.002
20
-114.987
11
159.944
21
-114.746
0
LINE
8
BLACK
6
CONTINUOUS
10
159.944
20
-114.746
11
159.925
21
-114.5
0
LINE
8
BLACK
6
CONTINUOUS
10
159.925
20
-114.5
11
159.928
21
-114.465
0
LINE
8
BLACK
6
CONTINUOUS
10
159.928
20
-114.465
11
159.944
21
-114.254
0
LINE
8
BLACK
6
CONTINUOUS
10
159.944
20
-114.254
11
160.002
21
-114.013
0
LINE
8
BLACK
6
CONTINUOUS
10
160.136
20
-114.928
11
160.224
21
-115.145
0
LINE
8
BLACK
6
CONTINUOUS
10
160.224
20
-115.145
11
160.346
21
-115.344
0
LINE
8
BLACK
6
CONTINUOUS
10
160.346
20
-115.344
11
160.5
21
-115.522
0
LINE
8
BLACK
6
CONTINUOUS
10
160.5
20
-115.522
11
160.68
21
-115.671
0
LINE
8
BLACK
6
CONTINUOUS
10
160.68
20
-115.671
11
160.882
21
-115.79
0
LINE
8
BLACK
6
CONTINUOUS
10
160.882
20
-115.79
11
161.101
21
-115.873
0
LINE
8
BLACK
6
CONTINUOUS
10
161.101
20
-115.873
11
161.331
21
-115.92
0
LINE
8
BLACK
6
CONTINUOUS
10
161.331
20
-115.92
11
161.565
21
-115.928
0
LINE
8
BLACK
6
CONTINUOUS
10
161.565
20
-115.928
11
161.797
21
-115.899
0
LINE
8
BLACK
6
CONTINUOUS
10
161.797
20
-115.899
11
162.022
21
-115.831
0
LINE
8
BLACK
6
CONTINUOUS
10
162.022
20
-115.831
11
162.232
21
-115.728
0
LINE
8
BLACK
6
CONTINUOUS
10
162.232
20
-115.728
11
162.423
21
-115.592
0
LINE
8
BLACK
6
CONTINUOUS
10
162.423
20
-115.592
11
162.589
21
-115.427
0
LINE
8
BLACK
6
CONTINUOUS
10
162.589
20
-115.427
11
162.726
21
-115.236
0
LINE
8
BLACK
6
CONTINUOUS
10
162.726
20
-115.236
11
162.829
21
-115.026
0
LINE
8
BLACK
6
CONTINUOUS
10
162.829
20
-115.026
11
162.898
21
-114.802
0
LINE
8
BLACK
6
CONTINUOUS
10
162.898
20
-114.802
11
162.928
21
-114.57
0
LINE
8
BLACK
6
CONTINUOUS
10
162.928
20
-114.57
11
162.93
21
-114.5
0
LINE
8
BLACK
6
CONTINUOUS
10
162.93
20
-114.5
11
162.911
21
-114.266
0
LINE
8
BLACK
6
CONTINUOUS
10
162.911
20
-114.266
11
162.854
21
-114.039
0
LINE
8
BLACK
6
CONTINUOUS
10
162.854
20
-114.039
11
162.76
21
-113.824
0
LINE
8
BLACK
6
CONTINUOUS
10
162.76
20
-113.824
11
162.633
21
-113.628
0
LINE
8
BLACK
6
CONTINUOUS
10
162.633
20
-113.628
11
162.475
21
-113.454
0
LINE
8
BLACK
6
CONTINUOUS
10
162.475
20
-113.454
11
162.291
21
-113.309
0
LINE
8
BLACK
6
CONTINUOUS
10
162.291
20
-113.309
11
162.086
21
-113.196
0
LINE
8
BLACK
6
CONTINUOUS
10
162.086
20
-113.196
11
161.865
21
-113.118
0
LINE
8
BLACK
6
CONTINUOUS
10
161.865
20
-113.118
11
161.635
21
-113.076
0
LINE
8
BLACK
6
CONTINUOUS
10
161.635
20
-113.076
11
161.4
21
-113.074
0
LINE
8
BLACK
6
CONTINUOUS
10
161.4
20
-113.074
11
161.169
21
-113.109
0
LINE
8
BLACK
6
CONTINUOUS
10
161.169
20
-113.109
11
160.946
21
-113.182
0
LINE
8
BLACK
6
CONTINUOUS
10
160.946
20
-113.182
11
160.738
21
-113.29
0
LINE
8
BLACK
6
CONTINUOUS
10
160.738
20
-113.29
11
160.551
21
-113.431
0
LINE
8
BLACK
6
CONTINUOUS
10
160.551
20
-113.431
11
160.389
21
-113.6
0
LINE
8
BLACK
6
CONTINUOUS
10
160.389
20
-113.6
11
160.257
21
-113.794
0
LINE
8
BLACK
6
CONTINUOUS
10
160.257
20
-113.794
11
160.158
21
-114.006
0
LINE
8
BLACK
6
CONTINUOUS
10
160.158
20
-114.006
11
160.095
21
-114.232
0
LINE
8
BLACK
6
CONTINUOUS
10
160.095
20
-114.232
11
160.071
21
-114.465
0
LINE
8
BLACK
6
CONTINUOUS
10
160.071
20
-114.465
11
160.084
21
-114.699
0
LINE
8
BLACK
6
CONTINUOUS
10
160.084
20
-114.699
11
160.136
21
-114.928
0
LINE
8
BLACK
6
CONTINUOUS
10
87.7521
20
-114.013
11
87.8467
21
-113.785
0
LINE
8
BLACK
6
CONTINUOUS
10
87.8467
20
-113.785
11
87.9758
21
-113.574
0
LINE
8
BLACK
6
CONTINUOUS
10
87.9758
20
-113.574
11
88.1363
21
-113.386
0
LINE
8
BLACK
6
CONTINUOUS
10
88.1363
20
-113.386
11
88.3242
21
-113.226
0
LINE
8
BLACK
6
CONTINUOUS
10
88.3242
20
-113.226
11
88.535
21
-113.097
0
LINE
8
BLACK
6
CONTINUOUS
10
88.535
20
-113.097
11
88.7633
21
-113.002
0
LINE
8
BLACK
6
CONTINUOUS
10
88.7633
20
-113.002
11
89.0036
21
-112.944
0
LINE
8
BLACK
6
CONTINUOUS
10
89.0036
20
-112.944
11
89.25
21
-112.925
0
LINE
8
BLACK
6
CONTINUOUS
10
89.25
20
-112.925
11
89.4964
21
-112.944
0
LINE
8
BLACK
6
CONTINUOUS
10
89.4964
20
-112.944
11
89.7367
21
-113.002
0
LINE
8
BLACK
6
CONTINUOUS
10
89.7367
20
-113.002
11
89.965
21
-113.097
0
LINE
8
BLACK
6
CONTINUOUS
10
89.965
20
-113.097
11
90.1758
21
-113.226
0
LINE
8
BLACK
6
CONTINUOUS
10
90.1758
20
-113.226
11
90.3637
21
-113.386
0
LINE
8
BLACK
6
CONTINUOUS
10
90.3637
20
-113.386
11
90.5242
21
-113.574
0
LINE
8
BLACK
6
CONTINUOUS
10
90.5242
20
-113.574
11
90.6533
21
-113.785
0
LINE
8
BLACK
6
CONTINUOUS
10
90.6533
20
-113.785
11
90.7479
21
-114.013
0
LINE
8
BLACK
6
CONTINUOUS
10
90.7479
20
-114.013
11
90.8056
21
-114.254
0
LINE
8
BLACK
6
CONTINUOUS
10
90.8056
20
-114.254
11
90.825
21
-114.5
0
LINE
8
BLACK
6
CONTINUOUS
10
90.825
20
-114.5
11
90.8056
21
-114.746
0
LINE
8
BLACK
6
CONTINUOUS
10
90.8056
20
-114.746
11
90.7479
21
-114.987
0
LINE
8
BLACK
6
CONTINUOUS
10
90.7479
20
-114.987
11
90.6533
21
-115.215
0
LINE
8
BLACK
6
CONTINUOUS
10
90.6533
20
-115.215
11
90.5242
21
-115.426
0
LINE
8
BLACK
6
CONTINUOUS
10
90.5242
20
-115.426
11
90.3637
21
-115.614
0
LINE
8
BLACK
6
CONTINUOUS
10
90.3637
20
-115.614
11
90.1758
21
-115.774
0
LINE
8
BLACK
6
CONTINUOUS
10
90.1758
20
-115.774
11
89.965
21
-115.903
0
LINE
8
BLACK
6
CONTINUOUS
10
89.965
20
-115.903
11
89.7367
21
-115.998
0
LINE
8
BLACK
6
CONTINUOUS
10
89.7367
20
-115.998
11
89.4964
21
-116.056
0
LINE
8
BLACK
6
CONTINUOUS
10
89.4964
20
-116.056
11
89.25
21
-116.075
0
LINE
8
BLACK
6
CONTINUOUS
10
89.25
20
-116.075
11
89.0036
21
-116.056
0
LINE
8
BLACK
6
CONTINUOUS
10
89.0036
20
-116.056
11
88.7633
21
-115.998
0
LINE
8
BLACK
6
CONTINUOUS
10
88.7633
20
-115.998
11
88.535
21
-115.903
0
LINE
8
BLACK
6
CONTINUOUS
10
88.535
20
-115.903
11
88.3242
21
-115.774
0
LINE
8
BLACK
6
CONTINUOUS
10
88.3242
20
-115.774
11
88.1363
21
-115.614
0
LINE
8
BLACK
6
CONTINUOUS
10
88.1363
20
-115.614
11
87.9758
21
-115.426
0
LINE
8
BLACK
6
CONTINUOUS
10
87.9758
20
-115.426
11
87.8467
21
-115.215
0
LINE
8
BLACK
6
CONTINUOUS
10
87.8467
20
-115.215
11
87.7521
21
-114.987
0
LINE
8
BLACK
6
CONTINUOUS
10
87.7521
20
-114.987
11
87.6944
21
-114.746
0
LINE
8
BLACK
6
CONTINUOUS
10
87.6944
20
-114.746
11
87.675
21
-114.5
0
LINE
8
BLACK
6
CONTINUOUS
10
87.675
20
-114.5
11
87.6777
21
-114.465
0
LINE
8
BLACK
6
CONTINUOUS
10
87.6777
20
-114.465
11
87.6944
21
-114.254
0
LINE
8
BLACK
6
CONTINUOUS
10
87.6944
20
-114.254
11
87.7521
21
-114.013
0
LINE
8
BLACK
6
CONTINUOUS
10
87.8855
20
-114.928
11
87.9737
21
-115.145
0
LINE
8
BLACK
6
CONTINUOUS
10
87.9737
20
-115.145
11
88.0961
21
-115.344
0
LINE
8
BLACK
6
CONTINUOUS
10
88.0961
20
-115.344
11
88.2496
21
-115.522
0
LINE
8
BLACK
6
CONTINUOUS
10
88.2496
20
-115.522
11
88.4299
21
-115.671
0
LINE
8
BLACK
6
CONTINUOUS
10
88.4299
20
-115.671
11
88.6322
21
-115.79
0
LINE
8
BLACK
6
CONTINUOUS
10
88.6322
20
-115.79
11
88.8511
21
-115.873
0
LINE
8
BLACK
6
CONTINUOUS
10
88.8511
20
-115.873
11
89.0807
21
-115.92
0
LINE
8
BLACK
6
CONTINUOUS
10
89.0807
20
-115.92
11
89.3149
21
-115.928
0
LINE
8
BLACK
6
CONTINUOUS
10
89.3149
20
-115.928
11
89.5473
21
-115.899
0
LINE
8
BLACK
6
CONTINUOUS
10
89.5473
20
-115.899
11
89.7717
21
-115.831
0
LINE
8
BLACK
6
CONTINUOUS
10
89.7717
20
-115.831
11
89.9822
21
-115.728
0
LINE
8
BLACK
6
CONTINUOUS
10
89.9822
20
-115.728
11
90.1729
21
-115.592
0
LINE
8
BLACK
6
CONTINUOUS
10
90.1729
20
-115.592
11
90.3389
21
-115.427
0
LINE
8
BLACK
6
CONTINUOUS
10
90.3389
20
-115.427
11
90.4757
21
-115.236
0
LINE
8
BLACK
6
CONTINUOUS
10
90.4757
20
-115.236
11
90.5795
21
-115.026
0
LINE
8
BLACK
6
CONTINUOUS
10
90.5795
20
-115.026
11
90.6476
21
-114.802
0
LINE
8
BLACK
6
CONTINUOUS
10
90.6476
20
-114.802
11
90.6782
21
-114.57
0
LINE
8
BLACK
6
CONTINUOUS
10
90.6782
20
-114.57
11
90.6799
21
-114.5
0
LINE
8
BLACK
6
CONTINUOUS
10
90.6799
20
-114.5
11
90.6607
21
-114.266
0
LINE
8
BLACK
6
CONTINUOUS
10
90.6607
20
-114.266
11
90.6036
21
-114.039
0
LINE
8
BLACK
6
CONTINUOUS
10
90.6036
20
-114.039
11
90.5102
21
-113.824
0
LINE
8
BLACK
6
CONTINUOUS
10
90.5102
20
-113.824
11
90.3829
21
-113.628
0
LINE
8
BLACK
6
CONTINUOUS
10
90.3829
20
-113.628
11
90.2252
21
-113.454
0
LINE
8
BLACK
6
CONTINUOUS
10
90.2252
20
-113.454
11
90.0413
21
-113.309
0
LINE
8
BLACK
6
CONTINUOUS
10
90.0413
20
-113.309
11
89.8361
21
-113.196
0
LINE
8
BLACK
6
CONTINUOUS
10
89.8361
20
-113.196
11
89.6153
21
-113.118
0
LINE
8
BLACK
6
CONTINUOUS
10
89.6153
20
-113.118
11
89.3846
21
-113.076
0
LINE
8
BLACK
6
CONTINUOUS
10
89.3846
20
-113.076
11
89.1503
21
-113.074
0
LINE
8
BLACK
6
CONTINUOUS
10
89.1503
20
-113.074
11
88.9186
21
-113.109
0
LINE
8
BLACK
6
CONTINUOUS
10
88.9186
20
-113.109
11
88.6959
21
-113.182
0
LINE
8
BLACK
6
CONTINUOUS
10
88.6959
20
-113.182
11
88.488
21
-113.29
0
LINE
8
BLACK
6
CONTINUOUS
10
88.488
20
-113.29
11
88.3007
21
-113.431
0
LINE
8
BLACK
6
CONTINUOUS
10
88.3007
20
-113.431
11
88.1388
21
-113.6
0
LINE
8
BLACK
6
CONTINUOUS
10
88.1388
20
-113.6
11
88.0067
21
-113.794
0
LINE
8
BLACK
6
CONTINUOUS
10
88.0067
20
-113.794
11
87.9081
21
-114.006
0
LINE
8
BLACK
6
CONTINUOUS
10
87.9081
20
-114.006
11
87.8454
21
-114.232
0
LINE
8
BLACK
6
CONTINUOUS
10
87.8454
20
-114.232
11
87.8205
21
-114.465
0
LINE
8
BLACK
6
CONTINUOUS
10
87.8205
20
-114.465
11
87.834
21
-114.699
0
LINE
8
BLACK
6
CONTINUOUS
10
87.834
20
-114.699
11
87.8855
21
-114.928
0
LINE
8
BLACK
6
CONTINUOUS
10
160.002
20
-101.013
11
160.097
21
-100.785
0
LINE
8
BLACK
6
CONTINUOUS
10
160.097
20
-100.785
11
160.226
21
-100.574
0
LINE
8
BLACK
6
CONTINUOUS
10
160.226
20
-100.574
11
160.386
21
-100.386
0
LINE
8
BLACK
6
CONTINUOUS
10
160.386
20
-100.386
11
160.574
21
-100.226
0
LINE
8
BLACK
6
CONTINUOUS
10
160.574
20
-100.226
11
160.785
21
-100.097
0
LINE
8
BLACK
6
CONTINUOUS
10
160.785
20
-100.097
11
161.013
21
-100.002
0
LINE
8
BLACK
6
CONTINUOUS
10
161.013
20
-100.002
11
161.254
21
-99.9444
0
LINE
8
BLACK
6
CONTINUOUS
10
161.254
20
-99.9444
11
161.5
21
-99.925
0
LINE
8
BLACK
6
CONTINUOUS
10
161.5
20
-99.925
11
161.746
21
-99.9444
0
LINE
8
BLACK
6
CONTINUOUS
10
161.746
20
-99.9444
11
161.987
21
-100.002
0
LINE
8
BLACK
6
CONTINUOUS
10
161.987
20
-100.002
11
162.215
21
-100.097
0
LINE
8
BLACK
6
CONTINUOUS
10
162.215
20
-100.097
11
162.426
21
-100.226
0
LINE
8
BLACK
6
CONTINUOUS
10
162.426
20
-100.226
11
162.614
21
-100.386
0
LINE
8
BLACK
6
CONTINUOUS
10
162.614
20
-100.386
11
162.774
21
-100.574
0
LINE
8
BLACK
6
CONTINUOUS
10
162.774
20
-100.574
11
162.903
21
-100.785
0
LINE
8
BLACK
6
CONTINUOUS
10
162.903
20
-100.785
11
162.998
21
-101.013
0
LINE
8
BLACK
6
CONTINUOUS
10
162.998
20
-101.013
11
163.056
21
-101.254
0
LINE
8
BLACK
6
CONTINUOUS
10
163.056
20
-101.254
11
163.075
21
-101.5
0
LINE
8
BLACK
6
CONTINUOUS
10
163.075
20
-101.5
11
163.056
21
-101.746
0
LINE
8
BLACK
6
CONTINUOUS
10
163.056
20
-101.746
11
162.998
21
-101.987
0
LINE
8
BLACK
6
CONTINUOUS
10
162.998
20
-101.987
11
162.903
21
-102.215
0
LINE
8
BLACK
6
CONTINUOUS
10
162.903
20
-102.215
11
162.774
21
-102.426
0
LINE
8
BLACK
6
CONTINUOUS
10
162.774
20
-102.426
11
162.614
21
-102.614
0
LINE
8
BLACK
6
CONTINUOUS
10
162.614
20
-102.614
11
162.426
21
-102.774
0
LINE
8
BLACK
6
CONTINUOUS
10
162.426
20
-102.774
11
162.215
21
-102.903
0
LINE
8
BLACK
6
CONTINUOUS
10
162.215
20
-102.903
11
161.987
21
-102.998
0
LINE
8
BLACK
6
CONTINUOUS
10
161.987
20
-102.998
11
161.746
21
-103.056
0
LINE
8
BLACK
6
CONTINUOUS
10
161.746
20
-103.056
11
161.5
21
-103.075
0
LINE
8
BLACK
6
CONTINUOUS
10
161.5
20
-103.075
11
161.254
21
-103.056
0
LINE
8
BLACK
6
CONTINUOUS
10
161.254
20
-103.056
11
161.013
21
-102.998
0
LINE
8
BLACK
6
CONTINUOUS
10
161.013
20
-102.998
11
160.785
21
-102.903
0
LINE
8
BLACK
6
CONTINUOUS
10
160.785
20
-102.903
11
160.574
21
-102.774
0
LINE
8
BLACK
6
CONTINUOUS
10
160.574
20
-102.774
11
160.386
21
-102.614
0
LINE
8
BLACK
6
CONTINUOUS
10
160.386
20
-102.614
11
160.226
21
-102.426
0
LINE
8
BLACK
6
CONTINUOUS
10
160.226
20
-102.426
11
160.097
21
-102.215
0
LINE
8
BLACK
6
CONTINUOUS
10
160.097
20
-102.215
11
160.002
21
-101.987
0
LINE
8
BLACK
6
CONTINUOUS
10
160.002
20
-101.987
11
159.944
21
-101.746
0
LINE
8
BLACK
6
CONTINUOUS
10
159.944
20
-101.746
11
159.925
21
-101.5
0
LINE
8
BLACK
6
CONTINUOUS
10
159.925
20
-101.5
11
159.928
21
-101.465
0
LINE
8
BLACK
6
CONTINUOUS
10
159.928
20
-101.465
11
159.944
21
-101.254
0
LINE
8
BLACK
6
CONTINUOUS
10
159.944
20
-101.254
11
160.002
21
-101.013
0
LINE
8
BLACK
6
CONTINUOUS
10
160.136
20
-101.928
11
160.224
21
-102.145
0
LINE
8
BLACK
6
CONTINUOUS
10
160.224
20
-102.145
11
160.346
21
-102.344
0
LINE
8
BLACK
6
CONTINUOUS
10
160.346
20
-102.344
11
160.5
21
-102.522
0
LINE
8
BLACK
6
CONTINUOUS
10
160.5
20
-102.522
11
160.68
21
-102.671
0
LINE
8
BLACK
6
CONTINUOUS
10
160.68
20
-102.671
11
160.882
21
-102.79
0
LINE
8
BLACK
6
CONTINUOUS
10
160.882
20
-102.79
11
161.101
21
-102.873
0
LINE
8
BLACK
6
CONTINUOUS
10
161.101
20
-102.873
11
161.331
21
-102.92
0
LINE
8
BLACK
6
CONTINUOUS
10
161.331
20
-102.92
11
161.565
21
-102.928
0
LINE
8
BLACK
6
CONTINUOUS
10
161.565
20
-102.928
11
161.797
21
-102.899
0
LINE
8
BLACK
6
CONTINUOUS
10
161.797
20
-102.899
11
162.022
21
-102.831
0
LINE
8
BLACK
6
CONTINUOUS
10
162.022
20
-102.831
11
162.232
21
-102.728
0
LINE
8
BLACK
6
CONTINUOUS
10
162.232
20
-102.728
11
162.423
21
-102.592
0
LINE
8
BLACK
6
CONTINUOUS
10
162.423
20
-102.592
11
162.589
21
-102.427
0
LINE
8
BLACK
6
CONTINUOUS
10
162.589
20
-102.427
11
162.726
21
-102.236
0
LINE
8
BLACK
6
CONTINUOUS
10
162.726
20
-102.236
11
162.829
21
-102.026
0
LINE
8
BLACK
6
CONTINUOUS
10
162.829
20
-102.026
11
162.898
21
-101.802
0
LINE
8
BLACK
6
CONTINUOUS
10
162.898
20
-101.802
11
162.928
21
-101.57
0
LINE
8
BLACK
6
CONTINUOUS
10
162.928
20
-101.57
11
162.93
21
-101.5
0
LINE
8
BLACK
6
CONTINUOUS
10
162.93
20
-101.5
11
162.911
21
-101.266
0
LINE
8
BLACK
6
CONTINUOUS
10
162.911
20
-101.266
11
162.854
21
-101.039
0
LINE
8
BLACK
6
CONTINUOUS
10
162.854
20
-101.039
11
162.76
21
-100.824
0
LINE
8
BLACK
6
CONTINUOUS
10
162.76
20
-100.824
11
162.633
21
-100.628
0
LINE
8
BLACK
6
CONTINUOUS
10
162.633
20
-100.628
11
162.475
21
-100.454
0
LINE
8
BLACK
6
CONTINUOUS
10
162.475
20
-100.454
11
162.291
21
-100.309
0
LINE
8
BLACK
6
CONTINUOUS
10
162.291
20
-100.309
11
162.086
21
-100.196
0
LINE
8
BLACK
6
CONTINUOUS
10
162.086
20
-100.196
11
161.865
21
-100.118
0
LINE
8
BLACK
6
CONTINUOUS
10
161.865
20
-100.118
11
161.635
21
-100.076
0
LINE
8
BLACK
6
CONTINUOUS
10
161.635
20
-100.076
11
161.4
21
-100.074
0
LINE
8
BLACK
6
CONTINUOUS
10
161.4
20
-100.074
11
161.169
21
-100.109
0
LINE
8
BLACK
6
CONTINUOUS
10
161.169
20
-100.109
11
160.946
21
-100.182
0
LINE
8
BLACK
6
CONTINUOUS
10
160.946
20
-100.182
11
160.738
21
-100.29
0
LINE
8
BLACK
6
CONTINUOUS
10
160.738
20
-100.29
11
160.551
21
-100.431
0
LINE
8
BLACK
6
CONTINUOUS
10
160.551
20
-100.431
11
160.389
21
-100.6
0
LINE
8
BLACK
6
CONTINUOUS
10
160.389
20
-100.6
11
160.257
21
-100.794
0
LINE
8
BLACK
6
CONTINUOUS
10
160.257
20
-100.794
11
160.158
21
-101.006
0
LINE
8
BLACK
6
CONTINUOUS
10
160.158
20
-101.006
11
160.095
21
-101.232
0
LINE
8
BLACK
6
CONTINUOUS
10
160.095
20
-101.232
11
160.071
21
-101.465
0
LINE
8
BLACK
6
CONTINUOUS
10
160.071
20
-101.465
11
160.084
21
-101.699
0
LINE
8
BLACK
6
CONTINUOUS
10
160.084
20
-101.699
11
160.136
21
-101.928
0
LINE
8
BLACK
6
CONTINUOUS
10
87.7521
20
-101.013
11
87.8467
21
-100.785
0
LINE
8
BLACK
6
CONTINUOUS
10
87.8467
20
-100.785
11
87.9758
21
-100.574
0
LINE
8
BLACK
6
CONTINUOUS
10
87.9758
20
-100.574
11
88.1363
21
-100.386
0
LINE
8
BLACK
6
CONTINUOUS
10
88.1363
20
-100.386
11
88.3242
21
-100.226
0
LINE
8
BLACK
6
CONTINUOUS
10
88.3242
20
-100.226
11
88.535
21
-100.097
0
LINE
8
BLACK
6
CONTINUOUS
10
88.535
20
-100.097
11
88.7633
21
-100.002
0
LINE
8
BLACK
6
CONTINUOUS
10
88.7633
20
-100.002
11
89.0036
21
-99.9444
0
LINE
8
BLACK
6
CONTINUOUS
10
89.0036
20
-99.9444
11
89.25
21
-99.925
0
LINE
8
BLACK
6
CONTINUOUS
10
89.25
20
-99.925
11
89.4964
21
-99.9444
0
LINE
8
BLACK
6
CONTINUOUS
10
89.4964
20
-99.9444
11
89.7367
21
-100.002
0
LINE
8
BLACK
6
CONTINUOUS
10
89.7367
20
-100.002
11
89.965
21
-100.097
0
LINE
8
BLACK
6
CONTINUOUS
10
89.965
20
-100.097
11
90.1758
21
-100.226
0
LINE
8
BLACK
6
CONTINUOUS
10
90.1758
20
-100.226
11
90.3637
21
-100.386
0
LINE
8
BLACK
6
CONTINUOUS
10
90.3637
20
-100.386
11
90.5242
21
-100.574
0
LINE
8
BLACK
6
CONTINUOUS
10
90.5242
20
-100.574
11
90.6533
21
-100.785
0
LINE
8
BLACK
6
CONTINUOUS
10
90.6533
20
-100.785
11
90.7479
21
-101.013
0
LINE
8
BLACK
6
CONTINUOUS
10
90.7479
20
-101.013
11
90.8056
21
-101.254
0
LINE
8
BLACK
6
CONTINUOUS
10
90.8056
20
-101.254
11
90.825
21
-101.5
0
LINE
8
BLACK
6
CONTINUOUS
10
90.825
20
-101.5
11
90.8056
21
-101.746
0
LINE
8
BLACK
6
CONTINUOUS
10
90.8056
20
-101.746
11
90.7479
21
-101.987
0
LINE
8
BLACK
6
CONTINUOUS
10
90.7479
20
-101.987
11
90.6533
21
-102.215
0
LINE
8
BLACK
6
CONTINUOUS
10
90.6533
20
-102.215
11
90.5242
21
-102.426
0
LINE
8
BLACK
6
CONTINUOUS
10
90.5242
20
-102.426
11
90.3637
21
-102.614
0
LINE
8
BLACK
6
CONTINUOUS
10
90.3637
20
-102.614
11
90.1758
21
-102.774
0
LINE
8
BLACK
6
CONTINUOUS
10
90.1758
20
-102.774
11
89.965
21
-102.903
0
LINE
8
BLACK
6
CONTINUOUS
10
89.965
20
-102.903
11
89.7367
21
-102.998
0
LINE
8
BLACK
6
CONTINUOUS
10
89.7367
20
-102.998
11
89.4964
21
-103.056
0
LINE
8
BLACK
6
CONTINUOUS
10
89.4964
20
-103.056
11
89.25
21
-103.075
0
LINE
8
BLACK
6
CONTINUOUS
10
89.25
20
-103.075
11
89.0036
21
-103.056
0
LINE
8
BLACK
6
CONTINUOUS
10
89.0036
20
-103.056
11
88.7633
21
-102.998
0
LINE
8
BLACK
6
CONTINUOUS
10
88.7633
20
-102.998
11
88.535
21
-102.903
0
LINE
8
BLACK
6
CONTINUOUS
10
88.535
20
-102.903
11
88.3242
21
-102.774
0
LINE
8
BLACK
6
CONTINUOUS
10
88.3242
20
-102.774
11
88.1363
21
-102.614
0
LINE
8
BLACK
6
CONTINUOUS
10
88.1363
20
-102.614
11
87.9758
21
-102.426
0
LINE
8
BLACK
6
CONTINUOUS
10
87.9758
20
-102.426
11
87.8467
21
-102.215
0
LINE
8
BLACK
6
CONTINUOUS
10
87.8467
20
-102.215
11
87.7521
21
-101.987
0
LINE
8
BLACK
6
CONTINUOUS
10
87.7521
20
-101.987
11
87.6944
21
-101.746
0
LINE
8
BLACK
6
CONTINUOUS
10
87.6944
20
-101.746
11
87.675
21
-101.5
0
LINE
8
BLACK
6
CONTINUOUS
10
87.675
20
-101.5
11
87.6777
21
-101.465
0
LINE
8
BLACK
6
CONTINUOUS
10
87.6777
20
-101.465
11
87.6944
21
-101.254
0
LINE
8
BLACK
6
CONTINUOUS
10
87.6944
20
-101.254
11
87.7521
21
-101.013
0
LINE
8
BLACK
6
CONTINUOUS
10
87.8855
20
-101.928
11
87.9737
21
-102.145
0
LINE
8
BLACK
6
CONTINUOUS
10
87.9737
20
-102.145
11
88.0961
21
-102.344
0
LINE
8
BLACK
6
CONTINUOUS
10
88.0961
20
-102.344
11
88.2496
21
-102.522
0
LINE
8
BLACK
6
CONTINUOUS
10
88.2496
20
-102.522
11
88.4299
21
-102.671
0
LINE
8
BLACK
6
CONTINUOUS
10
88.4299
20
-102.671
11
88.6322
21
-102.79
0
LINE
8
BLACK
6
CONTINUOUS
10
88.6322
20
-102.79
11
88.8511
21
-102.873
0
LINE
8
BLACK
6
CONTINUOUS
10
88.8511
20
-102.873
11
89.0807
21
-102.92
0
LINE
8
BLACK
6
CONTINUOUS
10
89.0807
20
-102.92
11
89.3149
21
-102.928
0
LINE
8
BLACK
6
CONTINUOUS
10
89.3149
20
-102.928
11
89.5473
21
-102.899
0
LINE
8
BLACK
6
CONTINUOUS
10
89.5473
20
-102.899
11
89.7717
21
-102.831
0
LINE
8
BLACK
6
CONTINUOUS
10
89.7717
20
-102.831
11
89.9822
21
-102.728
0
LINE
8
BLACK
6
CONTINUOUS
10
89.9822
20
-102.728
11
90.1729
21
-102.592
0
LINE
8
BLACK
6
CONTINUOUS
10
90.1729
20
-102.592
11
90.3389
21
-102.427
0
LINE
8
BLACK
6
CONTINUOUS
10
90.3389
20
-102.427
11
90.4757
21
-102.236
0
LINE
8
BLACK
6
CONTINUOUS
10
90.4757
20
-102.236
11
90.5795
21
-102.026
0
LINE
8
BLACK
6
CONTINUOUS
10
90.5795
20
-102.026
11
90.6476
21
-101.802
0
LINE
8
BLACK
6
CONTINUOUS
10
90.6476
20
-101.802
11
90.6782
21
-101.57
0
LINE
8
BLACK
6
CONTINUOUS
10
90.6782
20
-101.57
11
90.6799
21
-101.5
0
LINE
8
BLACK
6
CONTINUOUS
10
90.6799
20
-101.5
11
90.6607
21
-101.266
0
LINE
8
BLACK
6
CONTINUOUS
10
90.6607
20
-101.266
11
90.6036
21
-101.039
0
LINE
8
BLACK
6
CONTINUOUS
10
90.6036
20
-101.039
11
90.5102
21
-100.824
0
LINE
8
BLACK
6
CONTINUOUS
10
90.5102
20
-100.824
11
90.3829
21
-100.628
0
LINE
8
BLACK
6
CONTINUOUS
10
90.3829
20
-100.628
11
90.2252
21
-100.454
0
LINE
8
BLACK
6
CONTINUOUS
10
90.2252
20
-100.454
11
90.0413
21
-100.309
0
LINE
8
BLACK
6
CONTINUOUS
10
90.0413
20
-100.309
11
89.8361
21
-100.196
0
LINE
8
BLACK
6
CONTINUOUS
10
89.8361
20
-100.196
11
89.6153
21
-100.118
0
LINE
8
BLACK
6
CONTINUOUS
10
89.6153
20
-100.118
11
89.3846
21
-100.076
0
LINE
8
BLACK
6
CONTINUOUS
10
89.3846
20
-100.076
11
89.1503
21
-100.074
0
LINE
8
BLACK
6
CONTINUOUS
10
89.1503
20
-100.074
11
88.9186
21
-100.109
0
LINE
8
BLACK
6
CONTINUOUS
10
88.9186
20
-100.109
11
88.6959
21
-100.182
0
LINE
8
BLACK
6
CONTINUOUS
10
88.6959
20
-100.182
11
88.488
21
-100.29
0
LINE
8
BLACK
6
CONTINUOUS
10
88.488
20
-100.29
11
88.3007
21
-100.431
0
LINE
8
BLACK
6
CONTINUOUS
10
88.3007
20
-100.431
11
88.1388
21
-100.6
0
LINE
8
BLACK
6
CONTINUOUS
10
88.1388
20
-100.6
11
88.0067
21
-100.794
0
LINE
8
BLACK
6
CONTINUOUS
10
88.0067
20
-100.794
11
87.9081
21
-101.006
0
LINE
8
BLACK
6
CONTINUOUS
10
87.9081
20
-101.006
11
87.8454
21
-101.232
0
LINE
8
BLACK
6
CONTINUOUS
10
87.8454
20
-101.232
11
87.8205
21
-101.465
0
LINE
8
BLACK
6
CONTINUOUS
10
87.8205
20
-101.465
11
87.834
21
-101.699
0
LINE
8
BLACK
6
CONTINUOUS
10
87.834
20
-101.699
11
87.8855
21
-101.928
0
LINE
8
BLACK
6
CONTINUOUS
10
118.462
20
-95.44
11
118.522
21
-95.2521
0
LINE
8
BLACK
6
CONTINUOUS
10
118.522
20
-95.2521
11
118.617
21
-95.0794
0
LINE
8
BLACK
6
CONTINUOUS
10
118.617
20
-95.0794
11
118.743
21
-94.9284
0
LINE
8
BLACK
6
CONTINUOUS
10
118.743
20
-94.9284
11
118.897
21
-94.8049
0
LINE
8
BLACK
6
CONTINUOUS
10
118.897
20
-94.8049
11
119.072
21
-94.7135
0
LINE
8
BLACK
6
CONTINUOUS
10
119.072
20
-94.7135
11
119.261
21
-94.6579
0
LINE
8
BLACK
6
CONTINUOUS
10
119.261
20
-94.6579
11
119.457
21
-94.64
0
LINE
8
BLACK
6
CONTINUOUS
10
119.457
20
-94.64
11
119.653
21
-94.6606
0
LINE
8
BLACK
6
CONTINUOUS
10
119.653
20
-94.6606
11
119.841
21
-94.7189
0
LINE
8
BLACK
6
CONTINUOUS
10
119.841
20
-94.7189
11
120.015
21
-94.8127
0
LINE
8
BLACK
6
CONTINUOUS
10
120.015
20
-94.8127
11
120.167
21
-94.9383
0
LINE
8
BLACK
6
CONTINUOUS
10
120.167
20
-94.9383
11
120.291
21
-95.0911
0
LINE
8
BLACK
6
CONTINUOUS
10
120.291
20
-95.0911
11
120.384
21
-95.2651
0
LINE
8
BLACK
6
CONTINUOUS
10
120.384
20
-95.2651
11
120.441
21
-95.4538
0
LINE
8
BLACK
6
CONTINUOUS
10
120.441
20
-95.4538
11
120.46
21
-95.65
0
LINE
8
BLACK
6
CONTINUOUS
10
120.46
20
-95.65
11
120.46
21
-95.6782
0
LINE
8
BLACK
6
CONTINUOUS
10
120.46
20
-95.6782
11
120.435
21
-95.8738
0
LINE
8
BLACK
6
CONTINUOUS
10
120.435
20
-95.8738
11
120.373
21
-96.0608
0
LINE
8
BLACK
6
CONTINUOUS
10
120.373
20
-96.0608
11
120.275
21
-96.2322
0
LINE
8
BLACK
6
CONTINUOUS
10
120.275
20
-96.2322
11
120.147
21
-96.3814
0
LINE
8
BLACK
6
CONTINUOUS
10
120.147
20
-96.3814
11
119.991
21
-96.5028
0
LINE
8
BLACK
6
CONTINUOUS
10
119.991
20
-96.5028
11
119.815
21
-96.5916
0
LINE
8
BLACK
6
CONTINUOUS
10
119.815
20
-96.5916
11
119.625
21
-96.6447
0
LINE
8
BLACK
6
CONTINUOUS
10
119.625
20
-96.6447
11
119.429
21
-96.6598
0
LINE
8
BLACK
6
CONTINUOUS
10
119.429
20
-96.6598
11
119.233
21
-96.6364
0
LINE
8
BLACK
6
CONTINUOUS
10
119.233
20
-96.6364
11
119.046
21
-96.5755
0
LINE
8
BLACK
6
CONTINUOUS
10
119.046
20
-96.5755
11
118.874
21
-96.4794
0
LINE
8
BLACK
6
CONTINUOUS
10
118.874
20
-96.4794
11
118.723
21
-96.3516
0
LINE
8
BLACK
6
CONTINUOUS
10
118.723
20
-96.3516
11
118.601
21
-96.1971
0
LINE
8
BLACK
6
CONTINUOUS
10
118.601
20
-96.1971
11
118.511
21
-96.0218
0
LINE
8
BLACK
6
CONTINUOUS
10
118.511
20
-96.0218
11
118.457
21
-95.8323
0
LINE
8
BLACK
6
CONTINUOUS
10
118.457
20
-95.8323
11
118.441
21
-95.65
0
LINE
8
BLACK
6
CONTINUOUS
10
118.441
20
-95.65
11
118.44
21
-95.6359
0
LINE
8
BLACK
6
CONTINUOUS
10
118.44
20
-95.6359
11
118.462
21
-95.44
0
LINE
8
BLACK
6
CONTINUOUS
10
118.632
20
-96.014
11
118.726
21
-96.176
0
LINE
8
BLACK
6
CONTINUOUS
10
118.726
20
-96.176
11
118.851
21
-96.315
0
LINE
8
BLACK
6
CONTINUOUS
10
118.851
20
-96.315
11
119.003
21
-96.425
0
LINE
8
BLACK
6
CONTINUOUS
10
119.003
20
-96.425
11
119.173
21
-96.5011
0
LINE
8
BLACK
6
CONTINUOUS
10
119.173
20
-96.5011
11
119.356
21
-96.54
0
LINE
8
BLACK
6
CONTINUOUS
10
119.356
20
-96.54
11
119.544
21
-96.54
0
LINE
8
BLACK
6
CONTINUOUS
10
119.544
20
-96.54
11
119.727
21
-96.5011
0
LINE
8
BLACK
6
CONTINUOUS
10
119.727
20
-96.5011
11
119.897
21
-96.425
0
LINE
8
BLACK
6
CONTINUOUS
10
119.897
20
-96.425
11
120.049
21
-96.315
0
LINE
8
BLACK
6
CONTINUOUS
10
120.049
20
-96.315
11
120.174
21
-96.176
0
LINE
8
BLACK
6
CONTINUOUS
10
120.174
20
-96.176
11
120.268
21
-96.014
0
LINE
8
BLACK
6
CONTINUOUS
10
120.268
20
-96.014
11
120.325
21
-95.8361
0
LINE
8
BLACK
6
CONTINUOUS
10
120.325
20
-95.8361
11
120.345
21
-95.65
0
LINE
8
BLACK
6
CONTINUOUS
10
120.345
20
-95.65
11
120.325
21
-95.4639
0
LINE
8
BLACK
6
CONTINUOUS
10
120.325
20
-95.4639
11
120.268
21
-95.286
0
LINE
8
BLACK
6
CONTINUOUS
10
120.268
20
-95.286
11
120.174
21
-95.124
0
LINE
8
BLACK
6
CONTINUOUS
10
120.174
20
-95.124
11
120.049
21
-94.985
0
LINE
8
BLACK
6
CONTINUOUS
10
120.049
20
-94.985
11
119.897
21
-94.875
0
LINE
8
BLACK
6
CONTINUOUS
10
119.897
20
-94.875
11
119.727
21
-94.7989
0
LINE
8
BLACK
6
CONTINUOUS
10
119.727
20
-94.7989
11
119.544
21
-94.76
0
LINE
8
BLACK
6
CONTINUOUS
10
119.544
20
-94.76
11
119.356
21
-94.76
0
LINE
8
BLACK
6
CONTINUOUS
10
119.356
20
-94.76
11
119.173
21
-94.7989
0
LINE
8
BLACK
6
CONTINUOUS
10
119.173
20
-94.7989
11
119.003
21
-94.875
0
LINE
8
BLACK
6
CONTINUOUS
10
119.003
20
-94.875
11
118.851
21
-94.985
0
LINE
8
BLACK
6
CONTINUOUS
10
118.851
20
-94.985
11
118.726
21
-95.124
0
LINE
8
BLACK
6
CONTINUOUS
10
118.726
20
-95.124
11
118.632
21
-95.286
0
LINE
8
BLACK
6
CONTINUOUS
10
118.632
20
-95.286
11
118.575
21
-95.4639
0
LINE
8
BLACK
6
CONTINUOUS
10
118.575
20
-95.4639
11
118.555
21
-95.65
0
LINE
8
BLACK
6
CONTINUOUS
10
118.555
20
-95.65
11
118.575
21
-95.8361
0
LINE
8
BLACK
6
CONTINUOUS
10
118.575
20
-95.8361
11
118.632
21
-96.014
  0
ENDSEC
  0
EOF
