%TF.GenerationSoftware,KiCad,Pcbnew,(6.0.0)*%
%TF.CreationDate,2022-03-29T17:15:08-07:00*%
%TF.ProjectId,ELW2106AA-breakout-board,454c5732-3130-4364-9141-2d627265616b,rev?*%
%TF.SameCoordinates,Original*%
%TF.FileFunction,Legend,Top*%
%TF.FilePolarity,Positive*%
%FSLAX46Y46*%
G04 Gerber Fmt 4.6, Leading zero omitted, Abs format (unit mm)*
G04 Created by KiCad (PCBNEW (6.0.0)) date 2022-03-29 17:15:08*
%MOMM*%
%LPD*%
G01*
G04 APERTURE LIST*
%ADD10C,0.150000*%
%ADD11C,0.200000*%
%ADD12C,0.127000*%
%ADD13C,0.120000*%
%ADD14C,0.254000*%
%ADD15C,0.175000*%
G04 APERTURE END LIST*
D10*
X104600000Y-94850000D02*
X104600000Y-86850000D01*
X91950000Y-94850000D02*
X104600000Y-94850000D01*
X104600000Y-86850000D02*
X91950000Y-86850000D01*
X126303571Y-95974142D02*
X126503571Y-95974142D01*
X126589285Y-96288428D02*
X126303571Y-96288428D01*
X126303571Y-95688428D01*
X126589285Y-95688428D01*
X127132142Y-96288428D02*
X126846428Y-96288428D01*
X126846428Y-95688428D01*
X127275000Y-95688428D02*
X127417857Y-96288428D01*
X127532142Y-95859857D01*
X127646428Y-96288428D01*
X127789285Y-95688428D01*
X127989285Y-95745571D02*
X128017857Y-95717000D01*
X128075000Y-95688428D01*
X128217857Y-95688428D01*
X128275000Y-95717000D01*
X128303571Y-95745571D01*
X128332142Y-95802714D01*
X128332142Y-95859857D01*
X128303571Y-95945571D01*
X127960714Y-96288428D01*
X128332142Y-96288428D01*
X128903571Y-96288428D02*
X128560714Y-96288428D01*
X128732142Y-96288428D02*
X128732142Y-95688428D01*
X128675000Y-95774142D01*
X128617857Y-95831285D01*
X128560714Y-95859857D01*
X129275000Y-95688428D02*
X129332142Y-95688428D01*
X129389285Y-95717000D01*
X129417857Y-95745571D01*
X129446428Y-95802714D01*
X129475000Y-95917000D01*
X129475000Y-96059857D01*
X129446428Y-96174142D01*
X129417857Y-96231285D01*
X129389285Y-96259857D01*
X129332142Y-96288428D01*
X129275000Y-96288428D01*
X129217857Y-96259857D01*
X129189285Y-96231285D01*
X129160714Y-96174142D01*
X129132142Y-96059857D01*
X129132142Y-95917000D01*
X129160714Y-95802714D01*
X129189285Y-95745571D01*
X129217857Y-95717000D01*
X129275000Y-95688428D01*
X129989285Y-95688428D02*
X129875000Y-95688428D01*
X129817857Y-95717000D01*
X129789285Y-95745571D01*
X129732142Y-95831285D01*
X129703571Y-95945571D01*
X129703571Y-96174142D01*
X129732142Y-96231285D01*
X129760714Y-96259857D01*
X129817857Y-96288428D01*
X129932142Y-96288428D01*
X129989285Y-96259857D01*
X130017857Y-96231285D01*
X130046428Y-96174142D01*
X130046428Y-96031285D01*
X130017857Y-95974142D01*
X129989285Y-95945571D01*
X129932142Y-95917000D01*
X129817857Y-95917000D01*
X129760714Y-95945571D01*
X129732142Y-95974142D01*
X129703571Y-96031285D01*
X130275000Y-96117000D02*
X130560714Y-96117000D01*
X130217857Y-96288428D02*
X130417857Y-95688428D01*
X130617857Y-96288428D01*
X130789285Y-96117000D02*
X131075000Y-96117000D01*
X130732142Y-96288428D02*
X130932142Y-95688428D01*
X131132142Y-96288428D01*
X125403571Y-96854428D02*
X125403571Y-97254428D01*
X125260714Y-96625857D02*
X125117857Y-97054428D01*
X125489285Y-97054428D01*
X125717857Y-97025857D02*
X126175000Y-97025857D01*
X126403571Y-96854428D02*
X126517857Y-97254428D01*
X126632142Y-96968714D01*
X126746428Y-97254428D01*
X126860714Y-96854428D01*
X127089285Y-97254428D02*
X127089285Y-96854428D01*
X127089285Y-96654428D02*
X127060714Y-96683000D01*
X127089285Y-96711571D01*
X127117857Y-96683000D01*
X127089285Y-96654428D01*
X127089285Y-96711571D01*
X127375000Y-97254428D02*
X127375000Y-96854428D01*
X127375000Y-96968714D02*
X127403571Y-96911571D01*
X127432142Y-96883000D01*
X127489285Y-96854428D01*
X127546428Y-96854428D01*
X127975000Y-97225857D02*
X127917857Y-97254428D01*
X127803571Y-97254428D01*
X127746428Y-97225857D01*
X127717857Y-97168714D01*
X127717857Y-96940142D01*
X127746428Y-96883000D01*
X127803571Y-96854428D01*
X127917857Y-96854428D01*
X127975000Y-96883000D01*
X128003571Y-96940142D01*
X128003571Y-96997285D01*
X127717857Y-97054428D01*
X128689285Y-97225857D02*
X128775000Y-97254428D01*
X128917857Y-97254428D01*
X128975000Y-97225857D01*
X129003571Y-97197285D01*
X129032142Y-97140142D01*
X129032142Y-97083000D01*
X129003571Y-97025857D01*
X128975000Y-96997285D01*
X128917857Y-96968714D01*
X128803571Y-96940142D01*
X128746428Y-96911571D01*
X128717857Y-96883000D01*
X128689285Y-96825857D01*
X128689285Y-96768714D01*
X128717857Y-96711571D01*
X128746428Y-96683000D01*
X128803571Y-96654428D01*
X128946428Y-96654428D01*
X129032142Y-96683000D01*
X129289285Y-97254428D02*
X129289285Y-96654428D01*
X129517857Y-96654428D01*
X129575000Y-96683000D01*
X129603571Y-96711571D01*
X129632142Y-96768714D01*
X129632142Y-96854428D01*
X129603571Y-96911571D01*
X129575000Y-96940142D01*
X129517857Y-96968714D01*
X129289285Y-96968714D01*
X129889285Y-97254428D02*
X129889285Y-96654428D01*
X130717857Y-97254428D02*
X130660714Y-97225857D01*
X130632142Y-97197285D01*
X130603571Y-97140142D01*
X130603571Y-96968714D01*
X130632142Y-96911571D01*
X130660714Y-96883000D01*
X130717857Y-96854428D01*
X130803571Y-96854428D01*
X130860714Y-96883000D01*
X130889285Y-96911571D01*
X130917857Y-96968714D01*
X130917857Y-97140142D01*
X130889285Y-97197285D01*
X130860714Y-97225857D01*
X130803571Y-97254428D01*
X130717857Y-97254428D01*
X131175000Y-96854428D02*
X131175000Y-97254428D01*
X131175000Y-96911571D02*
X131203571Y-96883000D01*
X131260714Y-96854428D01*
X131346428Y-96854428D01*
X131403571Y-96883000D01*
X131432142Y-96940142D01*
X131432142Y-97254428D01*
X131803571Y-97254428D02*
X131746428Y-97225857D01*
X131717857Y-97168714D01*
X131717857Y-96654428D01*
X131975000Y-96854428D02*
X132117857Y-97254428D01*
X132260714Y-96854428D02*
X132117857Y-97254428D01*
X132060714Y-97397285D01*
X132032142Y-97425857D01*
X131975000Y-97454428D01*
X153042857Y-86700000D02*
X152985714Y-86671428D01*
X152900000Y-86671428D01*
X152814285Y-86700000D01*
X152757142Y-86757142D01*
X152728571Y-86814285D01*
X152700000Y-86928571D01*
X152700000Y-87014285D01*
X152728571Y-87128571D01*
X152757142Y-87185714D01*
X152814285Y-87242857D01*
X152900000Y-87271428D01*
X152957142Y-87271428D01*
X153042857Y-87242857D01*
X153071428Y-87214285D01*
X153071428Y-87014285D01*
X152957142Y-87014285D01*
X153328571Y-87271428D02*
X153328571Y-86671428D01*
X153671428Y-87271428D01*
X153671428Y-86671428D01*
X153957142Y-87271428D02*
X153957142Y-86671428D01*
X154100000Y-86671428D01*
X154185714Y-86700000D01*
X154242857Y-86757142D01*
X154271428Y-86814285D01*
X154300000Y-86928571D01*
X154300000Y-87014285D01*
X154271428Y-87128571D01*
X154242857Y-87185714D01*
X154185714Y-87242857D01*
X154100000Y-87271428D01*
X153957142Y-87271428D01*
X162153571Y-89871428D02*
X162153571Y-89271428D01*
X162296428Y-89271428D01*
X162382142Y-89300000D01*
X162439285Y-89357142D01*
X162467857Y-89414285D01*
X162496428Y-89528571D01*
X162496428Y-89614285D01*
X162467857Y-89728571D01*
X162439285Y-89785714D01*
X162382142Y-89842857D01*
X162296428Y-89871428D01*
X162153571Y-89871428D01*
X163182142Y-89242857D02*
X162667857Y-90014285D01*
X163725000Y-89814285D02*
X163696428Y-89842857D01*
X163610714Y-89871428D01*
X163553571Y-89871428D01*
X163467857Y-89842857D01*
X163410714Y-89785714D01*
X163382142Y-89728571D01*
X163353571Y-89614285D01*
X163353571Y-89528571D01*
X163382142Y-89414285D01*
X163410714Y-89357142D01*
X163467857Y-89300000D01*
X163553571Y-89271428D01*
X163610714Y-89271428D01*
X163696428Y-89300000D01*
X163725000Y-89328571D01*
X162325000Y-87614285D02*
X162296428Y-87642857D01*
X162210714Y-87671428D01*
X162153571Y-87671428D01*
X162067857Y-87642857D01*
X162010714Y-87585714D01*
X161982142Y-87528571D01*
X161953571Y-87414285D01*
X161953571Y-87328571D01*
X161982142Y-87214285D01*
X162010714Y-87157142D01*
X162067857Y-87100000D01*
X162153571Y-87071428D01*
X162210714Y-87071428D01*
X162296428Y-87100000D01*
X162325000Y-87128571D01*
X162553571Y-87642857D02*
X162639285Y-87671428D01*
X162782142Y-87671428D01*
X162839285Y-87642857D01*
X162867857Y-87614285D01*
X162896428Y-87557142D01*
X162896428Y-87500000D01*
X162867857Y-87442857D01*
X162839285Y-87414285D01*
X162782142Y-87385714D01*
X162667857Y-87357142D01*
X162610714Y-87328571D01*
X162582142Y-87300000D01*
X162553571Y-87242857D01*
X162553571Y-87185714D01*
X162582142Y-87128571D01*
X162610714Y-87100000D01*
X162667857Y-87071428D01*
X162810714Y-87071428D01*
X162896428Y-87100000D01*
X153171428Y-91971428D02*
X152971428Y-91685714D01*
X152828571Y-91971428D02*
X152828571Y-91371428D01*
X153057142Y-91371428D01*
X153114285Y-91400000D01*
X153142857Y-91428571D01*
X153171428Y-91485714D01*
X153171428Y-91571428D01*
X153142857Y-91628571D01*
X153114285Y-91657142D01*
X153057142Y-91685714D01*
X152828571Y-91685714D01*
X153400000Y-91942857D02*
X153485714Y-91971428D01*
X153628571Y-91971428D01*
X153685714Y-91942857D01*
X153714285Y-91914285D01*
X153742857Y-91857142D01*
X153742857Y-91800000D01*
X153714285Y-91742857D01*
X153685714Y-91714285D01*
X153628571Y-91685714D01*
X153514285Y-91657142D01*
X153457142Y-91628571D01*
X153428571Y-91600000D01*
X153400000Y-91542857D01*
X153400000Y-91485714D01*
X153428571Y-91428571D01*
X153457142Y-91400000D01*
X153514285Y-91371428D01*
X153657142Y-91371428D01*
X153742857Y-91400000D01*
X153914285Y-91371428D02*
X154257142Y-91371428D01*
X154085714Y-91971428D02*
X154085714Y-91371428D01*
X162160714Y-92231062D02*
X162246428Y-92259633D01*
X162389285Y-92259633D01*
X162446428Y-92231062D01*
X162475000Y-92202490D01*
X162503571Y-92145347D01*
X162503571Y-92088205D01*
X162475000Y-92031062D01*
X162446428Y-92002490D01*
X162389285Y-91973919D01*
X162275000Y-91945347D01*
X162217857Y-91916776D01*
X162189285Y-91888205D01*
X162160714Y-91831062D01*
X162160714Y-91773919D01*
X162189285Y-91716776D01*
X162217857Y-91688205D01*
X162275000Y-91659633D01*
X162417857Y-91659633D01*
X162503571Y-91688205D01*
X163103571Y-92202490D02*
X163075000Y-92231062D01*
X162989285Y-92259633D01*
X162932142Y-92259633D01*
X162846428Y-92231062D01*
X162789285Y-92173919D01*
X162760714Y-92116776D01*
X162732142Y-92002490D01*
X162732142Y-91916776D01*
X162760714Y-91802490D01*
X162789285Y-91745347D01*
X162846428Y-91688205D01*
X162932142Y-91659633D01*
X162989285Y-91659633D01*
X163075000Y-91688205D01*
X163103571Y-91716776D01*
X163646428Y-92259633D02*
X163360714Y-92259633D01*
X163360714Y-91659633D01*
X163846428Y-92259633D02*
X163846428Y-91659633D01*
X164189285Y-92259633D02*
X163932142Y-91916776D01*
X164189285Y-91659633D02*
X163846428Y-92002490D01*
X152700000Y-88871428D02*
X152900000Y-89471428D01*
X153100000Y-88871428D01*
X153642857Y-89414285D02*
X153614285Y-89442857D01*
X153528571Y-89471428D01*
X153471428Y-89471428D01*
X153385714Y-89442857D01*
X153328571Y-89385714D01*
X153300000Y-89328571D01*
X153271428Y-89214285D01*
X153271428Y-89128571D01*
X153300000Y-89014285D01*
X153328571Y-88957142D01*
X153385714Y-88900000D01*
X153471428Y-88871428D01*
X153528571Y-88871428D01*
X153614285Y-88900000D01*
X153642857Y-88928571D01*
X154242857Y-89414285D02*
X154214285Y-89442857D01*
X154128571Y-89471428D01*
X154071428Y-89471428D01*
X153985714Y-89442857D01*
X153928571Y-89385714D01*
X153900000Y-89328571D01*
X153871428Y-89214285D01*
X153871428Y-89128571D01*
X153900000Y-89014285D01*
X153928571Y-88957142D01*
X153985714Y-88900000D01*
X154071428Y-88871428D01*
X154128571Y-88871428D01*
X154214285Y-88900000D01*
X154242857Y-88928571D01*
X162232142Y-94759633D02*
X162232142Y-94159633D01*
X162432142Y-94588205D01*
X162632142Y-94159633D01*
X162632142Y-94759633D01*
X163032142Y-94159633D02*
X163146428Y-94159633D01*
X163203571Y-94188205D01*
X163260714Y-94245347D01*
X163289285Y-94359633D01*
X163289285Y-94559633D01*
X163260714Y-94673919D01*
X163203571Y-94731062D01*
X163146428Y-94759633D01*
X163032142Y-94759633D01*
X162975000Y-94731062D01*
X162917857Y-94673919D01*
X162889285Y-94559633D01*
X162889285Y-94359633D01*
X162917857Y-94245347D01*
X162975000Y-94188205D01*
X163032142Y-94159633D01*
X163517857Y-94731062D02*
X163603571Y-94759633D01*
X163746428Y-94759633D01*
X163803571Y-94731062D01*
X163832142Y-94702490D01*
X163860714Y-94645347D01*
X163860714Y-94588205D01*
X163832142Y-94531062D01*
X163803571Y-94502490D01*
X163746428Y-94473919D01*
X163632142Y-94445347D01*
X163575000Y-94416776D01*
X163546428Y-94388205D01*
X163517857Y-94331062D01*
X163517857Y-94273919D01*
X163546428Y-94216776D01*
X163575000Y-94188205D01*
X163632142Y-94159633D01*
X163775000Y-94159633D01*
X163860714Y-94188205D01*
X164117857Y-94759633D02*
X164117857Y-94159633D01*
%TO.C,U3*%
X145413095Y-94487380D02*
X145413095Y-95296904D01*
X145460714Y-95392142D01*
X145508333Y-95439761D01*
X145603571Y-95487380D01*
X145794047Y-95487380D01*
X145889285Y-95439761D01*
X145936904Y-95392142D01*
X145984523Y-95296904D01*
X145984523Y-94487380D01*
X146365476Y-94487380D02*
X146984523Y-94487380D01*
X146651190Y-94868333D01*
X146794047Y-94868333D01*
X146889285Y-94915952D01*
X146936904Y-94963571D01*
X146984523Y-95058809D01*
X146984523Y-95296904D01*
X146936904Y-95392142D01*
X146889285Y-95439761D01*
X146794047Y-95487380D01*
X146508333Y-95487380D01*
X146413095Y-95439761D01*
X146365476Y-95392142D01*
%TO.C,C1*%
X137224315Y-88266324D02*
X137188600Y-88302038D01*
X137081457Y-88337752D01*
X137010029Y-88337752D01*
X136902886Y-88302038D01*
X136831457Y-88230609D01*
X136795743Y-88159181D01*
X136760029Y-88016324D01*
X136760029Y-87909181D01*
X136795743Y-87766324D01*
X136831457Y-87694895D01*
X136902886Y-87623467D01*
X137010029Y-87587752D01*
X137081457Y-87587752D01*
X137188600Y-87623467D01*
X137224315Y-87659181D01*
X137938600Y-88337752D02*
X137510029Y-88337752D01*
X137724315Y-88337752D02*
X137724315Y-87587752D01*
X137652886Y-87694895D01*
X137581457Y-87766324D01*
X137510029Y-87802038D01*
%TO.C,D1*%
X125646428Y-85089285D02*
X125646428Y-84339285D01*
X125825000Y-84339285D01*
X125932142Y-84375000D01*
X126003571Y-84446428D01*
X126039285Y-84517857D01*
X126075000Y-84660714D01*
X126075000Y-84767857D01*
X126039285Y-84910714D01*
X126003571Y-84982142D01*
X125932142Y-85053571D01*
X125825000Y-85089285D01*
X125646428Y-85089285D01*
X126789285Y-85089285D02*
X126360714Y-85089285D01*
X126575000Y-85089285D02*
X126575000Y-84339285D01*
X126503571Y-84446428D01*
X126432142Y-84517857D01*
X126360714Y-84553571D01*
%TO.C,TP5*%
X96751386Y-82064678D02*
X97094243Y-82064678D01*
X96922814Y-82664678D02*
X96922814Y-82064678D01*
X97294243Y-82664678D02*
X97294243Y-82064678D01*
X97522814Y-82064678D01*
X97579957Y-82093250D01*
X97608529Y-82121821D01*
X97637100Y-82178964D01*
X97637100Y-82264678D01*
X97608529Y-82321821D01*
X97579957Y-82350392D01*
X97522814Y-82378964D01*
X97294243Y-82378964D01*
X98179957Y-82064678D02*
X97894243Y-82064678D01*
X97865671Y-82350392D01*
X97894243Y-82321821D01*
X97951386Y-82293250D01*
X98094243Y-82293250D01*
X98151386Y-82321821D01*
X98179957Y-82350392D01*
X98208529Y-82407535D01*
X98208529Y-82550392D01*
X98179957Y-82607535D01*
X98151386Y-82636107D01*
X98094243Y-82664678D01*
X97951386Y-82664678D01*
X97894243Y-82636107D01*
X97865671Y-82607535D01*
%TO.C,L1*%
X130975000Y-88989285D02*
X130617857Y-88989285D01*
X130617857Y-88239285D01*
X131617857Y-88989285D02*
X131189285Y-88989285D01*
X131403571Y-88989285D02*
X131403571Y-88239285D01*
X131332142Y-88346428D01*
X131260714Y-88417857D01*
X131189285Y-88453571D01*
%TO.C,C10*%
X143917857Y-98667857D02*
X143882142Y-98703571D01*
X143775000Y-98739285D01*
X143703571Y-98739285D01*
X143596428Y-98703571D01*
X143525000Y-98632142D01*
X143489285Y-98560714D01*
X143453571Y-98417857D01*
X143453571Y-98310714D01*
X143489285Y-98167857D01*
X143525000Y-98096428D01*
X143596428Y-98025000D01*
X143703571Y-97989285D01*
X143775000Y-97989285D01*
X143882142Y-98025000D01*
X143917857Y-98060714D01*
X144632142Y-98739285D02*
X144203571Y-98739285D01*
X144417857Y-98739285D02*
X144417857Y-97989285D01*
X144346428Y-98096428D01*
X144275000Y-98167857D01*
X144203571Y-98203571D01*
X145096428Y-97989285D02*
X145167857Y-97989285D01*
X145239285Y-98025000D01*
X145275000Y-98060714D01*
X145310714Y-98132142D01*
X145346428Y-98275000D01*
X145346428Y-98453571D01*
X145310714Y-98596428D01*
X145275000Y-98667857D01*
X145239285Y-98703571D01*
X145167857Y-98739285D01*
X145096428Y-98739285D01*
X145025000Y-98703571D01*
X144989285Y-98667857D01*
X144953571Y-98596428D01*
X144917857Y-98453571D01*
X144917857Y-98275000D01*
X144953571Y-98132142D01*
X144989285Y-98060714D01*
X145025000Y-98025000D01*
X145096428Y-97989285D01*
%TO.C,C7*%
X108725000Y-84142857D02*
X108689285Y-84178571D01*
X108582142Y-84214285D01*
X108510714Y-84214285D01*
X108403571Y-84178571D01*
X108332142Y-84107142D01*
X108296428Y-84035714D01*
X108260714Y-83892857D01*
X108260714Y-83785714D01*
X108296428Y-83642857D01*
X108332142Y-83571428D01*
X108403571Y-83500000D01*
X108510714Y-83464285D01*
X108582142Y-83464285D01*
X108689285Y-83500000D01*
X108725000Y-83535714D01*
X108975000Y-83464285D02*
X109475000Y-83464285D01*
X109153571Y-84214285D01*
%TO.C,R3*%
X124775000Y-83239285D02*
X124525000Y-82882142D01*
X124346428Y-83239285D02*
X124346428Y-82489285D01*
X124632142Y-82489285D01*
X124703571Y-82525000D01*
X124739285Y-82560714D01*
X124775000Y-82632142D01*
X124775000Y-82739285D01*
X124739285Y-82810714D01*
X124703571Y-82846428D01*
X124632142Y-82882142D01*
X124346428Y-82882142D01*
X125025000Y-82489285D02*
X125489285Y-82489285D01*
X125239285Y-82775000D01*
X125346428Y-82775000D01*
X125417857Y-82810714D01*
X125453571Y-82846428D01*
X125489285Y-82917857D01*
X125489285Y-83096428D01*
X125453571Y-83167857D01*
X125417857Y-83203571D01*
X125346428Y-83239285D01*
X125132142Y-83239285D01*
X125060714Y-83203571D01*
X125025000Y-83167857D01*
%TO.C,R4*%
X121425000Y-83239285D02*
X121175000Y-82882142D01*
X120996428Y-83239285D02*
X120996428Y-82489285D01*
X121282142Y-82489285D01*
X121353571Y-82525000D01*
X121389285Y-82560714D01*
X121425000Y-82632142D01*
X121425000Y-82739285D01*
X121389285Y-82810714D01*
X121353571Y-82846428D01*
X121282142Y-82882142D01*
X120996428Y-82882142D01*
X122067857Y-82739285D02*
X122067857Y-83239285D01*
X121889285Y-82453571D02*
X121710714Y-82989285D01*
X122175000Y-82989285D01*
%TO.C,H1*%
X112522407Y-89748769D02*
X111721816Y-89748769D01*
X112103049Y-89748769D02*
X112103049Y-89291288D01*
X112522407Y-89291288D02*
X111721816Y-89291288D01*
X112522407Y-88490697D02*
X112522407Y-88948178D01*
X112522407Y-88719437D02*
X111721816Y-88719437D01*
X111836186Y-88795684D01*
X111912433Y-88871931D01*
X111950556Y-88948178D01*
%TO.C,TP3*%
X98927857Y-82064678D02*
X99270714Y-82064678D01*
X99099285Y-82664678D02*
X99099285Y-82064678D01*
X99470714Y-82664678D02*
X99470714Y-82064678D01*
X99699285Y-82064678D01*
X99756428Y-82093250D01*
X99785000Y-82121821D01*
X99813571Y-82178964D01*
X99813571Y-82264678D01*
X99785000Y-82321821D01*
X99756428Y-82350392D01*
X99699285Y-82378964D01*
X99470714Y-82378964D01*
X100013571Y-82064678D02*
X100385000Y-82064678D01*
X100185000Y-82293250D01*
X100270714Y-82293250D01*
X100327857Y-82321821D01*
X100356428Y-82350392D01*
X100385000Y-82407535D01*
X100385000Y-82550392D01*
X100356428Y-82607535D01*
X100327857Y-82636107D01*
X100270714Y-82664678D01*
X100099285Y-82664678D01*
X100042142Y-82636107D01*
X100013571Y-82607535D01*
%TO.C,C3*%
X137185000Y-85592857D02*
X137149285Y-85628571D01*
X137042142Y-85664285D01*
X136970714Y-85664285D01*
X136863571Y-85628571D01*
X136792142Y-85557142D01*
X136756428Y-85485714D01*
X136720714Y-85342857D01*
X136720714Y-85235714D01*
X136756428Y-85092857D01*
X136792142Y-85021428D01*
X136863571Y-84950000D01*
X136970714Y-84914285D01*
X137042142Y-84914285D01*
X137149285Y-84950000D01*
X137185000Y-84985714D01*
X137435000Y-84914285D02*
X137899285Y-84914285D01*
X137649285Y-85200000D01*
X137756428Y-85200000D01*
X137827857Y-85235714D01*
X137863571Y-85271428D01*
X137899285Y-85342857D01*
X137899285Y-85521428D01*
X137863571Y-85592857D01*
X137827857Y-85628571D01*
X137756428Y-85664285D01*
X137542142Y-85664285D01*
X137470714Y-85628571D01*
X137435000Y-85592857D01*
%TO.C,U1*%
X120478571Y-88339285D02*
X120478571Y-88946428D01*
X120514285Y-89017857D01*
X120550000Y-89053571D01*
X120621428Y-89089285D01*
X120764285Y-89089285D01*
X120835714Y-89053571D01*
X120871428Y-89017857D01*
X120907142Y-88946428D01*
X120907142Y-88339285D01*
X121657142Y-89089285D02*
X121228571Y-89089285D01*
X121442857Y-89089285D02*
X121442857Y-88339285D01*
X121371428Y-88446428D01*
X121300000Y-88517857D01*
X121228571Y-88553571D01*
%TO.C,C6*%
X114775000Y-98927857D02*
X114739285Y-98963571D01*
X114632142Y-98999285D01*
X114560714Y-98999285D01*
X114453571Y-98963571D01*
X114382142Y-98892142D01*
X114346428Y-98820714D01*
X114310714Y-98677857D01*
X114310714Y-98570714D01*
X114346428Y-98427857D01*
X114382142Y-98356428D01*
X114453571Y-98285000D01*
X114560714Y-98249285D01*
X114632142Y-98249285D01*
X114739285Y-98285000D01*
X114775000Y-98320714D01*
X115417857Y-98249285D02*
X115275000Y-98249285D01*
X115203571Y-98285000D01*
X115167857Y-98320714D01*
X115096428Y-98427857D01*
X115060714Y-98570714D01*
X115060714Y-98856428D01*
X115096428Y-98927857D01*
X115132142Y-98963571D01*
X115203571Y-98999285D01*
X115346428Y-98999285D01*
X115417857Y-98963571D01*
X115453571Y-98927857D01*
X115489285Y-98856428D01*
X115489285Y-98677857D01*
X115453571Y-98606428D01*
X115417857Y-98570714D01*
X115346428Y-98535000D01*
X115203571Y-98535000D01*
X115132142Y-98570714D01*
X115096428Y-98606428D01*
X115060714Y-98677857D01*
%TO.C,C4*%
X116775000Y-84967857D02*
X116739285Y-85003571D01*
X116632142Y-85039285D01*
X116560714Y-85039285D01*
X116453571Y-85003571D01*
X116382142Y-84932142D01*
X116346428Y-84860714D01*
X116310714Y-84717857D01*
X116310714Y-84610714D01*
X116346428Y-84467857D01*
X116382142Y-84396428D01*
X116453571Y-84325000D01*
X116560714Y-84289285D01*
X116632142Y-84289285D01*
X116739285Y-84325000D01*
X116775000Y-84360714D01*
X117417857Y-84539285D02*
X117417857Y-85039285D01*
X117239285Y-84253571D02*
X117060714Y-84789285D01*
X117525000Y-84789285D01*
%TO.C,TP4*%
X103527857Y-82064678D02*
X103870714Y-82064678D01*
X103699285Y-82664678D02*
X103699285Y-82064678D01*
X104070714Y-82664678D02*
X104070714Y-82064678D01*
X104299285Y-82064678D01*
X104356428Y-82093250D01*
X104385000Y-82121821D01*
X104413571Y-82178964D01*
X104413571Y-82264678D01*
X104385000Y-82321821D01*
X104356428Y-82350392D01*
X104299285Y-82378964D01*
X104070714Y-82378964D01*
X104927857Y-82264678D02*
X104927857Y-82664678D01*
X104785000Y-82036107D02*
X104642142Y-82464678D01*
X105013571Y-82464678D01*
%TO.C,TP2*%
X101227857Y-82064678D02*
X101570714Y-82064678D01*
X101399285Y-82664678D02*
X101399285Y-82064678D01*
X101770714Y-82664678D02*
X101770714Y-82064678D01*
X101999285Y-82064678D01*
X102056428Y-82093250D01*
X102085000Y-82121821D01*
X102113571Y-82178964D01*
X102113571Y-82264678D01*
X102085000Y-82321821D01*
X102056428Y-82350392D01*
X101999285Y-82378964D01*
X101770714Y-82378964D01*
X102342142Y-82121821D02*
X102370714Y-82093250D01*
X102427857Y-82064678D01*
X102570714Y-82064678D01*
X102627857Y-82093250D01*
X102656428Y-82121821D01*
X102685000Y-82178964D01*
X102685000Y-82236107D01*
X102656428Y-82321821D01*
X102313571Y-82664678D01*
X102685000Y-82664678D01*
%TO.C,TP7*%
X105757857Y-82064678D02*
X106100714Y-82064678D01*
X105929285Y-82664678D02*
X105929285Y-82064678D01*
X106300714Y-82664678D02*
X106300714Y-82064678D01*
X106529285Y-82064678D01*
X106586428Y-82093250D01*
X106615000Y-82121821D01*
X106643571Y-82178964D01*
X106643571Y-82264678D01*
X106615000Y-82321821D01*
X106586428Y-82350392D01*
X106529285Y-82378964D01*
X106300714Y-82378964D01*
X106843571Y-82064678D02*
X107243571Y-82064678D01*
X106986428Y-82664678D01*
%TO.C,C8*%
X119527857Y-93825000D02*
X119563571Y-93860714D01*
X119599285Y-93967857D01*
X119599285Y-94039285D01*
X119563571Y-94146428D01*
X119492142Y-94217857D01*
X119420714Y-94253571D01*
X119277857Y-94289285D01*
X119170714Y-94289285D01*
X119027857Y-94253571D01*
X118956428Y-94217857D01*
X118885000Y-94146428D01*
X118849285Y-94039285D01*
X118849285Y-93967857D01*
X118885000Y-93860714D01*
X118920714Y-93825000D01*
X119170714Y-93396428D02*
X119135000Y-93467857D01*
X119099285Y-93503571D01*
X119027857Y-93539285D01*
X118992142Y-93539285D01*
X118920714Y-93503571D01*
X118885000Y-93467857D01*
X118849285Y-93396428D01*
X118849285Y-93253571D01*
X118885000Y-93182142D01*
X118920714Y-93146428D01*
X118992142Y-93110714D01*
X119027857Y-93110714D01*
X119099285Y-93146428D01*
X119135000Y-93182142D01*
X119170714Y-93253571D01*
X119170714Y-93396428D01*
X119206428Y-93467857D01*
X119242142Y-93503571D01*
X119313571Y-93539285D01*
X119456428Y-93539285D01*
X119527857Y-93503571D01*
X119563571Y-93467857D01*
X119599285Y-93396428D01*
X119599285Y-93253571D01*
X119563571Y-93182142D01*
X119527857Y-93146428D01*
X119456428Y-93110714D01*
X119313571Y-93110714D01*
X119242142Y-93146428D01*
X119206428Y-93182142D01*
X119170714Y-93253571D01*
%TO.C,C2*%
X137197979Y-86879308D02*
X137162264Y-86915022D01*
X137055121Y-86950736D01*
X136983693Y-86950736D01*
X136876550Y-86915022D01*
X136805121Y-86843593D01*
X136769407Y-86772165D01*
X136733693Y-86629308D01*
X136733693Y-86522165D01*
X136769407Y-86379308D01*
X136805121Y-86307879D01*
X136876550Y-86236451D01*
X136983693Y-86200736D01*
X137055121Y-86200736D01*
X137162264Y-86236451D01*
X137197979Y-86272165D01*
X137483693Y-86272165D02*
X137519407Y-86236451D01*
X137590836Y-86200736D01*
X137769407Y-86200736D01*
X137840836Y-86236451D01*
X137876550Y-86272165D01*
X137912264Y-86343593D01*
X137912264Y-86415022D01*
X137876550Y-86522165D01*
X137447979Y-86950736D01*
X137912264Y-86950736D01*
%TO.C,C5*%
X119775000Y-97767857D02*
X119739285Y-97803571D01*
X119632142Y-97839285D01*
X119560714Y-97839285D01*
X119453571Y-97803571D01*
X119382142Y-97732142D01*
X119346428Y-97660714D01*
X119310714Y-97517857D01*
X119310714Y-97410714D01*
X119346428Y-97267857D01*
X119382142Y-97196428D01*
X119453571Y-97125000D01*
X119560714Y-97089285D01*
X119632142Y-97089285D01*
X119739285Y-97125000D01*
X119775000Y-97160714D01*
X120453571Y-97089285D02*
X120096428Y-97089285D01*
X120060714Y-97446428D01*
X120096428Y-97410714D01*
X120167857Y-97375000D01*
X120346428Y-97375000D01*
X120417857Y-97410714D01*
X120453571Y-97446428D01*
X120489285Y-97517857D01*
X120489285Y-97696428D01*
X120453571Y-97767857D01*
X120417857Y-97803571D01*
X120346428Y-97839285D01*
X120167857Y-97839285D01*
X120096428Y-97803571D01*
X120060714Y-97767857D01*
%TO.C,TP6*%
X94442857Y-82071428D02*
X94785714Y-82071428D01*
X94614285Y-82671428D02*
X94614285Y-82071428D01*
X94985714Y-82671428D02*
X94985714Y-82071428D01*
X95214285Y-82071428D01*
X95271428Y-82100000D01*
X95300000Y-82128571D01*
X95328571Y-82185714D01*
X95328571Y-82271428D01*
X95300000Y-82328571D01*
X95271428Y-82357142D01*
X95214285Y-82385714D01*
X94985714Y-82385714D01*
X95842857Y-82071428D02*
X95728571Y-82071428D01*
X95671428Y-82100000D01*
X95642857Y-82128571D01*
X95585714Y-82214285D01*
X95557142Y-82328571D01*
X95557142Y-82557142D01*
X95585714Y-82614285D01*
X95614285Y-82642857D01*
X95671428Y-82671428D01*
X95785714Y-82671428D01*
X95842857Y-82642857D01*
X95871428Y-82614285D01*
X95900000Y-82557142D01*
X95900000Y-82414285D01*
X95871428Y-82357142D01*
X95842857Y-82328571D01*
X95785714Y-82300000D01*
X95671428Y-82300000D01*
X95614285Y-82328571D01*
X95585714Y-82357142D01*
X95557142Y-82414285D01*
%TO.C,U2*%
X135928571Y-93489285D02*
X135928571Y-94096428D01*
X135964285Y-94167857D01*
X136000000Y-94203571D01*
X136071428Y-94239285D01*
X136214285Y-94239285D01*
X136285714Y-94203571D01*
X136321428Y-94167857D01*
X136357142Y-94096428D01*
X136357142Y-93489285D01*
X136678571Y-93560714D02*
X136714285Y-93525000D01*
X136785714Y-93489285D01*
X136964285Y-93489285D01*
X137035714Y-93525000D01*
X137071428Y-93560714D01*
X137107142Y-93632142D01*
X137107142Y-93703571D01*
X137071428Y-93810714D01*
X136642857Y-94239285D01*
X137107142Y-94239285D01*
%TO.C,C12*%
X139617857Y-95967857D02*
X139582142Y-96003571D01*
X139475000Y-96039285D01*
X139403571Y-96039285D01*
X139296428Y-96003571D01*
X139225000Y-95932142D01*
X139189285Y-95860714D01*
X139153571Y-95717857D01*
X139153571Y-95610714D01*
X139189285Y-95467857D01*
X139225000Y-95396428D01*
X139296428Y-95325000D01*
X139403571Y-95289285D01*
X139475000Y-95289285D01*
X139582142Y-95325000D01*
X139617857Y-95360714D01*
X140332142Y-96039285D02*
X139903571Y-96039285D01*
X140117857Y-96039285D02*
X140117857Y-95289285D01*
X140046428Y-95396428D01*
X139975000Y-95467857D01*
X139903571Y-95503571D01*
X140617857Y-95360714D02*
X140653571Y-95325000D01*
X140725000Y-95289285D01*
X140903571Y-95289285D01*
X140975000Y-95325000D01*
X141010714Y-95360714D01*
X141046428Y-95432142D01*
X141046428Y-95503571D01*
X141010714Y-95610714D01*
X140582142Y-96039285D01*
X141046428Y-96039285D01*
%TO.C,C9*%
X119725000Y-96267857D02*
X119689285Y-96303571D01*
X119582142Y-96339285D01*
X119510714Y-96339285D01*
X119403571Y-96303571D01*
X119332142Y-96232142D01*
X119296428Y-96160714D01*
X119260714Y-96017857D01*
X119260714Y-95910714D01*
X119296428Y-95767857D01*
X119332142Y-95696428D01*
X119403571Y-95625000D01*
X119510714Y-95589285D01*
X119582142Y-95589285D01*
X119689285Y-95625000D01*
X119725000Y-95660714D01*
X120082142Y-96339285D02*
X120225000Y-96339285D01*
X120296428Y-96303571D01*
X120332142Y-96267857D01*
X120403571Y-96160714D01*
X120439285Y-96017857D01*
X120439285Y-95732142D01*
X120403571Y-95660714D01*
X120367857Y-95625000D01*
X120296428Y-95589285D01*
X120153571Y-95589285D01*
X120082142Y-95625000D01*
X120046428Y-95660714D01*
X120010714Y-95732142D01*
X120010714Y-95910714D01*
X120046428Y-95982142D01*
X120082142Y-96017857D01*
X120153571Y-96053571D01*
X120296428Y-96053571D01*
X120367857Y-96017857D01*
X120403571Y-95982142D01*
X120439285Y-95910714D01*
%TO.C,TP1*%
X108753571Y-97489285D02*
X109182142Y-97489285D01*
X108967857Y-98239285D02*
X108967857Y-97489285D01*
X109432142Y-98239285D02*
X109432142Y-97489285D01*
X109717857Y-97489285D01*
X109789285Y-97525000D01*
X109825000Y-97560714D01*
X109860714Y-97632142D01*
X109860714Y-97739285D01*
X109825000Y-97810714D01*
X109789285Y-97846428D01*
X109717857Y-97882142D01*
X109432142Y-97882142D01*
X110575000Y-98239285D02*
X110146428Y-98239285D01*
X110360714Y-98239285D02*
X110360714Y-97489285D01*
X110289285Y-97596428D01*
X110217857Y-97667857D01*
X110146428Y-97703571D01*
%TO.C,J1*%
X157880000Y-84009285D02*
X157880000Y-84545000D01*
X157844285Y-84652142D01*
X157772857Y-84723571D01*
X157665714Y-84759285D01*
X157594285Y-84759285D01*
X158630000Y-84759285D02*
X158201428Y-84759285D01*
X158415714Y-84759285D02*
X158415714Y-84009285D01*
X158344285Y-84116428D01*
X158272857Y-84187857D01*
X158201428Y-84223571D01*
%TO.C,C11*%
X128967857Y-91732142D02*
X129003571Y-91767857D01*
X129039285Y-91875000D01*
X129039285Y-91946428D01*
X129003571Y-92053571D01*
X128932142Y-92125000D01*
X128860714Y-92160714D01*
X128717857Y-92196428D01*
X128610714Y-92196428D01*
X128467857Y-92160714D01*
X128396428Y-92125000D01*
X128325000Y-92053571D01*
X128289285Y-91946428D01*
X128289285Y-91875000D01*
X128325000Y-91767857D01*
X128360714Y-91732142D01*
X129039285Y-91017857D02*
X129039285Y-91446428D01*
X129039285Y-91232142D02*
X128289285Y-91232142D01*
X128396428Y-91303571D01*
X128467857Y-91375000D01*
X128503571Y-91446428D01*
X129039285Y-90303571D02*
X129039285Y-90732142D01*
X129039285Y-90517857D02*
X128289285Y-90517857D01*
X128396428Y-90589285D01*
X128467857Y-90660714D01*
X128503571Y-90732142D01*
D11*
%TO.C,U3*%
X150140000Y-93575000D02*
G75*
G03*
X150140000Y-93575000I-100000J0D01*
G01*
D12*
X148050000Y-94100000D02*
X143650000Y-94100000D01*
X148050000Y-87200000D02*
X143650000Y-87200000D01*
D13*
%TO.C,C1*%
X135707836Y-87740000D02*
X135492164Y-87740000D01*
X135707836Y-88460000D02*
X135492164Y-88460000D01*
%TO.C,D1*%
X124700000Y-85450000D02*
X124700000Y-87150000D01*
X124700000Y-87150000D02*
X127250000Y-87150000D01*
X124700000Y-85450000D02*
X127250000Y-85450000D01*
%TO.C,TP5*%
X98173529Y-83646250D02*
G75*
G03*
X98173529Y-83646250I-700000J0D01*
G01*
%TO.C,L1*%
X132486252Y-84290000D02*
X129713748Y-84290000D01*
X132486252Y-87710000D02*
X129713748Y-87710000D01*
%TO.C,C10*%
X144090000Y-96957836D02*
X144090000Y-96742164D01*
X144810000Y-96957836D02*
X144810000Y-96742164D01*
%TO.C,C7*%
X110592164Y-84210000D02*
X110807836Y-84210000D01*
X110592164Y-83490000D02*
X110807836Y-83490000D01*
%TO.C,R3*%
X125053641Y-84280000D02*
X124746359Y-84280000D01*
X125053641Y-83520000D02*
X124746359Y-83520000D01*
%TO.C,R4*%
X121703641Y-83520000D02*
X121396359Y-83520000D01*
X121703641Y-84280000D02*
X121396359Y-84280000D01*
D14*
%TO.C,H1*%
X108480000Y-85500000D02*
X111020000Y-85500000D01*
X105115000Y-85500000D02*
X105790000Y-85500000D01*
X111020000Y-87101000D02*
X111020000Y-85500000D01*
X105115000Y-95996000D02*
X105940000Y-95990000D01*
X105115000Y-96000000D02*
X105115000Y-85500000D01*
X108520000Y-96000000D02*
X111020000Y-96000000D01*
X111020000Y-96000000D02*
X111020000Y-94381000D01*
X110639000Y-86051000D02*
G75*
G03*
X110639000Y-86051000I-127000J0D01*
G01*
D15*
X111298000Y-87500000D02*
G75*
G03*
X111298000Y-87500000I-75000J0D01*
G01*
D13*
%TO.C,TP3*%
X100350000Y-83646250D02*
G75*
G03*
X100350000Y-83646250I-700000J0D01*
G01*
%TO.C,C3*%
X135707836Y-85660000D02*
X135492164Y-85660000D01*
X135707836Y-84940000D02*
X135492164Y-84940000D01*
%TO.C,U1*%
X121050000Y-87910000D02*
X120250000Y-87910000D01*
X121050000Y-87910000D02*
X122850000Y-87910000D01*
X121050000Y-84790000D02*
X121850000Y-84790000D01*
X121050000Y-84790000D02*
X120250000Y-84790000D01*
%TO.C,C6*%
X115007836Y-97860000D02*
X114792164Y-97860000D01*
X115007836Y-97140000D02*
X114792164Y-97140000D01*
%TO.C,C4*%
X114461252Y-83365000D02*
X113938748Y-83365000D01*
X114461252Y-84835000D02*
X113938748Y-84835000D01*
%TO.C,TP4*%
X104950000Y-83646250D02*
G75*
G03*
X104950000Y-83646250I-700000J0D01*
G01*
%TO.C,TP2*%
X102650000Y-83646250D02*
G75*
G03*
X102650000Y-83646250I-700000J0D01*
G01*
%TO.C,TP7*%
X107180000Y-83646250D02*
G75*
G03*
X107180000Y-83646250I-700000J0D01*
G01*
%TO.C,C8*%
X118460000Y-93592164D02*
X118460000Y-93807836D01*
X117740000Y-93592164D02*
X117740000Y-93807836D01*
%TO.C,C2*%
X135707836Y-86340000D02*
X135492164Y-86340000D01*
X135707836Y-87060000D02*
X135492164Y-87060000D01*
%TO.C,C5*%
X117892164Y-97810000D02*
X118107836Y-97810000D01*
X117892164Y-97090000D02*
X118107836Y-97090000D01*
%TO.C,TP6*%
X95865000Y-83675000D02*
G75*
G03*
X95865000Y-83675000I-700000J0D01*
G01*
%TO.C,U2*%
X136500000Y-97860000D02*
X135850000Y-97860000D01*
X136500000Y-94740000D02*
X137150000Y-94740000D01*
X136500000Y-97860000D02*
X137150000Y-97860000D01*
X136500000Y-94740000D02*
X134825000Y-94740000D01*
%TO.C,C12*%
X139840000Y-94207836D02*
X139840000Y-93992164D01*
X140560000Y-94207836D02*
X140560000Y-93992164D01*
%TO.C,C9*%
X117892164Y-95640000D02*
X118107836Y-95640000D01*
X117892164Y-96360000D02*
X118107836Y-96360000D01*
%TO.C,TP1*%
X112850000Y-97950000D02*
G75*
G03*
X112850000Y-97950000I-950000J0D01*
G01*
%TO.C,J1*%
X155530000Y-88020000D02*
X158130000Y-88020000D01*
X160730000Y-85420000D02*
X160730000Y-95700000D01*
X155530000Y-95700000D02*
X160730000Y-95700000D01*
X155530000Y-86750000D02*
X155530000Y-85420000D01*
X155530000Y-88020000D02*
X155530000Y-95700000D01*
X158130000Y-88020000D02*
X158130000Y-85420000D01*
X155530000Y-85420000D02*
X156860000Y-85420000D01*
X158130000Y-85420000D02*
X160730000Y-85420000D01*
%TO.C,C11*%
X129010000Y-93807836D02*
X129010000Y-93592164D01*
X128290000Y-93807836D02*
X128290000Y-93592164D01*
%TD*%
M02*
