M48
; DRILL file {KiCad (6.0.0)} date Tue Mar 29 17:15:08 2022
; FORMAT={-:-/ absolute / inch / decimal}
; #@! TF.CreationDate,2022-03-29T17:15:08-07:00
; #@! TF.GenerationSoftware,Kicad,Pcbnew,(6.0.0)
; #@! TF.FileFunction,Plated,1,2,PTH
FMAT,2
INCH
; #@! TA.AperFunction,Plated,PTH,ViaDrill
T1C0.0157
; #@! TA.AperFunction,Plated,PTH,ViaDrill
T2C0.0394
; #@! TA.AperFunction,Plated,PTH,ComponentDrill
T3C0.0394
; #@! TA.AperFunction,Plated,PTH,ComponentDrill
T4C0.1063
%
G90
G05
T1
X4.4055Y-3.3406
X4.4331Y-3.7776
X4.5787Y-3.3819
X4.5807Y-3.2579
X4.5807Y-3.4587
X4.5807Y-3.4941
X4.6175Y-3.5236
X4.6569Y-3.5236
X4.6963Y-3.5236
X4.7357Y-3.5236
X4.7751Y-3.5236
X4.8145Y-3.5236
X4.8539Y-3.5236
X4.8701Y-3.3996
X4.8933Y-3.5236
X4.9327Y-3.5236
X4.9721Y-3.5236
X5.002Y-3.3031
X5.0115Y-3.5236
X5.0509Y-3.5236
X5.0903Y-3.5236
X5.1297Y-3.5236
X5.1691Y-3.5236
X5.2085Y-3.5236
X5.2479Y-3.5236
X5.2873Y-3.5236
X5.3012Y-3.3031
X5.3267Y-3.5236
X5.3661Y-3.2504
X5.3661Y-3.2894
X5.4055Y-3.2874
X5.4055Y-3.3858
X5.4449Y-3.2874
X5.4449Y-3.3858
X6.0394Y-3.7953
X6.06Y-3.4793
T2
X3.7992Y-3.8327
X6.0748Y-3.3051
X6.0787Y-3.8681
T3
X6.1756Y-3.4154
X6.1756Y-3.5154
X6.1756Y-3.6154
X6.2756Y-3.4154
X6.2756Y-3.5154
X6.2756Y-3.6154
X6.2756Y-3.7154
T4
X3.6004Y-3.3327
X3.6004Y-3.8248
X6.4154Y-3.3327
X6.4154Y-3.8248
T0
M30
