%TF.GenerationSoftware,KiCad,Pcbnew,(6.0.0)*%
%TF.CreationDate,2022-03-29T17:15:08-07:00*%
%TF.ProjectId,ELW2106AA-breakout-board,454c5732-3130-4364-9141-2d627265616b,rev?*%
%TF.SameCoordinates,Original*%
%TF.FileFunction,Paste,Top*%
%TF.FilePolarity,Positive*%
%FSLAX46Y46*%
G04 Gerber Fmt 4.6, Leading zero omitted, Abs format (unit mm)*
G04 Created by KiCad (PCBNEW (6.0.0)) date 2022-03-29 17:15:08*
%MOMM*%
%LPD*%
G01*
G04 APERTURE LIST*
G04 Aperture macros list*
%AMRoundRect*
0 Rectangle with rounded corners*
0 $1 Rounding radius*
0 $2 $3 $4 $5 $6 $7 $8 $9 X,Y pos of 4 corners*
0 Add a 4 corners polygon primitive as box body*
4,1,4,$2,$3,$4,$5,$6,$7,$8,$9,$2,$3,0*
0 Add four circle primitives for the rounded corners*
1,1,$1+$1,$2,$3*
1,1,$1+$1,$4,$5*
1,1,$1+$1,$6,$7*
1,1,$1+$1,$8,$9*
0 Add four rect primitives between the rounded corners*
20,1,$1+$1,$2,$3,$4,$5,0*
20,1,$1+$1,$4,$5,$6,$7,0*
20,1,$1+$1,$6,$7,$8,$9,0*
20,1,$1+$1,$8,$9,$2,$3,0*%
G04 Aperture macros list end*
%ADD10RoundRect,0.020500X0.764500X0.184500X-0.764500X0.184500X-0.764500X-0.184500X0.764500X-0.184500X0*%
%ADD11RoundRect,0.140000X0.140000X0.170000X-0.140000X0.170000X-0.140000X-0.170000X0.140000X-0.170000X0*%
%ADD12R,0.600000X0.450000*%
%ADD13RoundRect,0.250000X0.312500X1.450000X-0.312500X1.450000X-0.312500X-1.450000X0.312500X-1.450000X0*%
%ADD14RoundRect,0.140000X0.170000X-0.140000X0.170000X0.140000X-0.170000X0.140000X-0.170000X-0.140000X0*%
%ADD15RoundRect,0.140000X-0.140000X-0.170000X0.140000X-0.170000X0.140000X0.170000X-0.140000X0.170000X0*%
%ADD16RoundRect,0.135000X0.135000X0.185000X-0.135000X0.185000X-0.135000X-0.185000X0.135000X-0.185000X0*%
%ADD17R,1.200000X0.300000*%
%ADD18R,2.000000X1.800000*%
%ADD19RoundRect,0.150000X0.512500X0.150000X-0.512500X0.150000X-0.512500X-0.150000X0.512500X-0.150000X0*%
%ADD20RoundRect,0.250000X0.250000X0.475000X-0.250000X0.475000X-0.250000X-0.475000X0.250000X-0.475000X0*%
%ADD21RoundRect,0.140000X-0.170000X0.140000X-0.170000X-0.140000X0.170000X-0.140000X0.170000X0.140000X0*%
%ADD22RoundRect,0.150000X-0.587500X-0.150000X0.587500X-0.150000X0.587500X0.150000X-0.587500X0.150000X0*%
G04 APERTURE END LIST*
D10*
%TO.C,U3*%
X148720000Y-93575000D03*
X148720000Y-92925000D03*
X148720000Y-92275000D03*
X148720000Y-91625000D03*
X148720000Y-90975000D03*
X148720000Y-90325000D03*
X148720000Y-89675000D03*
X148720000Y-89025000D03*
X148720000Y-88375000D03*
X148720000Y-87725000D03*
X142980000Y-87725000D03*
X142980000Y-88375000D03*
X142980000Y-89025000D03*
X142980000Y-89675000D03*
X142980000Y-90325000D03*
X142980000Y-90975000D03*
X142980000Y-91625000D03*
X142980000Y-92275000D03*
X142980000Y-92925000D03*
X142980000Y-93575000D03*
%TD*%
D11*
%TO.C,C1*%
X136080000Y-88100000D03*
X135120000Y-88100000D03*
%TD*%
D12*
%TO.C,D1*%
X125150000Y-86300000D03*
X127250000Y-86300000D03*
%TD*%
D13*
%TO.C,L1*%
X133237500Y-86000000D03*
X128962500Y-86000000D03*
%TD*%
D14*
%TO.C,C10*%
X144450000Y-97330000D03*
X144450000Y-96370000D03*
%TD*%
D15*
%TO.C,C7*%
X110220000Y-83850000D03*
X111180000Y-83850000D03*
%TD*%
D16*
%TO.C,R3*%
X125410000Y-83900000D03*
X124390000Y-83900000D03*
%TD*%
%TO.C,R4*%
X122060000Y-83900000D03*
X121040000Y-83900000D03*
%TD*%
D17*
%TO.C,H1*%
X110410000Y-87500000D03*
X110410000Y-88000000D03*
X110410000Y-88500000D03*
X110410000Y-89000000D03*
X110410000Y-89500000D03*
X110410000Y-90000000D03*
X110410000Y-90500000D03*
X110410000Y-91000000D03*
X110410000Y-91500000D03*
X110410000Y-92000000D03*
X110410000Y-92500000D03*
X110410000Y-93000000D03*
X110410000Y-93500000D03*
X110410000Y-94000000D03*
D18*
X107240000Y-95650000D03*
X107240000Y-85850000D03*
%TD*%
D11*
%TO.C,C3*%
X136080000Y-85300000D03*
X135120000Y-85300000D03*
%TD*%
D19*
%TO.C,U1*%
X122187500Y-87300000D03*
X122187500Y-86350000D03*
X122187500Y-85400000D03*
X119912500Y-85400000D03*
X119912500Y-86350000D03*
X119912500Y-87300000D03*
%TD*%
D11*
%TO.C,C6*%
X115380000Y-97500000D03*
X114420000Y-97500000D03*
%TD*%
D20*
%TO.C,C4*%
X115150000Y-84100000D03*
X113250000Y-84100000D03*
%TD*%
D21*
%TO.C,C8*%
X118100000Y-93220000D03*
X118100000Y-94180000D03*
%TD*%
D11*
%TO.C,C2*%
X136080000Y-86700000D03*
X135120000Y-86700000D03*
%TD*%
D15*
%TO.C,C5*%
X117520000Y-97450000D03*
X118480000Y-97450000D03*
%TD*%
D22*
%TO.C,U2*%
X135562500Y-95350000D03*
X135562500Y-97250000D03*
X137437500Y-96300000D03*
%TD*%
D14*
%TO.C,C12*%
X140200000Y-94580000D03*
X140200000Y-93620000D03*
%TD*%
D15*
%TO.C,C9*%
X117520000Y-96000000D03*
X118480000Y-96000000D03*
%TD*%
D14*
%TO.C,C11*%
X128650000Y-94180000D03*
X128650000Y-93220000D03*
%TD*%
M02*
