%TF.GenerationSoftware,KiCad,Pcbnew,(6.0.0)*%
%TF.CreationDate,2022-03-29T17:15:08-07:00*%
%TF.ProjectId,ELW2106AA-breakout-board,454c5732-3130-4364-9141-2d627265616b,rev?*%
%TF.SameCoordinates,Original*%
%TF.FileFunction,Copper,L2,Bot*%
%TF.FilePolarity,Positive*%
%FSLAX46Y46*%
G04 Gerber Fmt 4.6, Leading zero omitted, Abs format (unit mm)*
G04 Created by KiCad (PCBNEW (6.0.0)) date 2022-03-29 17:15:08*
%MOMM*%
%LPD*%
G01*
G04 APERTURE LIST*
%TA.AperFunction,ComponentPad*%
%ADD10R,1.700000X1.700000*%
%TD*%
%TA.AperFunction,ComponentPad*%
%ADD11O,1.700000X1.700000*%
%TD*%
%TA.AperFunction,ComponentPad*%
%ADD12C,3.500000*%
%TD*%
%TA.AperFunction,ViaPad*%
%ADD13C,0.800000*%
%TD*%
%TA.AperFunction,ViaPad*%
%ADD14C,2.000000*%
%TD*%
%TA.AperFunction,ViaPad*%
%ADD15C,1.000000*%
%TD*%
%TA.AperFunction,Conductor*%
%ADD16C,0.500000*%
%TD*%
G04 APERTURE END LIST*
D10*
%TO.P,J1,1,Pin_1*%
%TO.N,GND*%
X156860000Y-86750000D03*
D11*
%TO.P,J1,2,Pin_2*%
%TO.N,VCC*%
X156860000Y-89290000D03*
%TO.P,J1,3,Pin_3*%
%TO.N,/RESET*%
X156860000Y-91830000D03*
%TO.P,J1,4,Pin_4*%
%TO.N,/CS*%
X159400000Y-86750000D03*
%TO.P,J1,5,Pin_5*%
%TO.N,/D{slash}C*%
X159400000Y-89290000D03*
%TO.P,J1,6,Pin_6*%
%TO.N,/SCLK*%
X159400000Y-91830000D03*
%TO.P,J1,7,Pin_7*%
%TO.N,/MOSI*%
X159400000Y-94370000D03*
%TD*%
D12*
%TO.P,MH4,1,1*%
%TO.N,GND*%
X162950000Y-84650000D03*
%TD*%
%TO.P,MH1,1,1*%
%TO.N,GND*%
X91450000Y-97150000D03*
%TD*%
%TO.P,MH3,1,1*%
%TO.N,GND*%
X162950000Y-97150000D03*
%TD*%
%TO.P,MH2,1,1*%
%TO.N,GND*%
X91450000Y-84650000D03*
%TD*%
D13*
%TO.N,GND*%
X122288196Y-89500000D03*
X136300000Y-82560414D03*
X138300000Y-86000000D03*
X137300000Y-86000000D03*
X134298300Y-89500000D03*
X136300000Y-83550000D03*
X123289038Y-89500000D03*
X124289880Y-89500000D03*
X135299142Y-89500000D03*
X116350000Y-87850000D03*
X117283986Y-89500000D03*
X116350000Y-82750000D03*
X133297458Y-89500000D03*
X118284828Y-89500000D03*
X126291564Y-89500000D03*
X125290722Y-89500000D03*
X130294932Y-89500000D03*
X120286512Y-89500000D03*
D14*
X96500000Y-97350000D03*
D13*
X116300000Y-85900000D03*
X123700000Y-86350000D03*
X129294090Y-89500000D03*
X128293248Y-89500000D03*
X121287354Y-89500000D03*
X131295774Y-89500000D03*
X119285670Y-89500000D03*
D14*
X154400000Y-98250000D03*
D13*
X137300000Y-83500000D03*
X127292406Y-89500000D03*
X116350000Y-88750000D03*
D14*
X154300000Y-83950000D03*
D13*
X132296616Y-89500000D03*
X138300000Y-83500000D03*
%TO.N,+16V*%
X111900000Y-84850000D03*
X112600000Y-95950000D03*
X127050000Y-83900000D03*
D15*
%TO.N,VCC*%
X134650000Y-83900000D03*
D13*
X153925000Y-88375000D03*
X153400000Y-96400000D03*
%TD*%
D16*
%TO.N,+16V*%
X113100000Y-95450000D02*
X112600000Y-95950000D01*
X126100000Y-84850000D02*
X114200000Y-84850000D01*
X127050000Y-83900000D02*
X126100000Y-84850000D01*
X114200000Y-84850000D02*
X113100000Y-85950000D01*
X113100000Y-85950000D02*
X113100000Y-95450000D01*
X111900000Y-84850000D02*
X114200000Y-84850000D01*
%TO.N,VCC*%
X150150000Y-84600000D02*
X153925000Y-88375000D01*
X153925000Y-95875000D02*
X153925000Y-88375000D01*
X135350000Y-84600000D02*
X150150000Y-84600000D01*
X153400000Y-96400000D02*
X153925000Y-95875000D01*
X134650000Y-83900000D02*
X135350000Y-84600000D01*
%TD*%
%TA.AperFunction,Conductor*%
%TO.N,GND*%
G36*
X90418801Y-82428002D02*
G01*
X90465294Y-82481658D01*
X90475398Y-82551932D01*
X90445904Y-82616512D01*
X90406408Y-82647006D01*
X90322282Y-82688492D01*
X90315145Y-82692613D01*
X90075901Y-82852470D01*
X90069361Y-82857488D01*
X90054926Y-82870147D01*
X90046528Y-82883386D01*
X90052362Y-82893151D01*
X91437190Y-84277980D01*
X91451131Y-84285592D01*
X91452966Y-84285461D01*
X91459580Y-84281210D01*
X92845884Y-82894905D01*
X92853399Y-82881144D01*
X92846941Y-82871784D01*
X92830639Y-82857488D01*
X92824099Y-82852470D01*
X92584856Y-82692613D01*
X92577719Y-82688492D01*
X92493593Y-82647006D01*
X92441344Y-82598938D01*
X92423377Y-82530252D01*
X92445396Y-82462756D01*
X92500411Y-82417880D01*
X92549321Y-82408000D01*
X161850680Y-82408000D01*
X161918801Y-82428002D01*
X161965294Y-82481658D01*
X161975398Y-82551932D01*
X161945904Y-82616512D01*
X161906408Y-82647006D01*
X161822282Y-82688492D01*
X161815145Y-82692613D01*
X161575901Y-82852470D01*
X161569361Y-82857488D01*
X161554926Y-82870147D01*
X161546528Y-82883386D01*
X161552362Y-82893151D01*
X162937190Y-84277980D01*
X162951131Y-84285592D01*
X162952966Y-84285461D01*
X162959580Y-84281210D01*
X164345884Y-82894905D01*
X164353399Y-82881144D01*
X164346941Y-82871784D01*
X164330639Y-82857488D01*
X164324099Y-82852470D01*
X164084856Y-82692613D01*
X164077719Y-82688492D01*
X163993593Y-82647006D01*
X163941344Y-82598938D01*
X163923377Y-82530252D01*
X163945396Y-82462756D01*
X164000411Y-82417880D01*
X164049321Y-82408000D01*
X165066000Y-82408000D01*
X165134121Y-82428002D01*
X165180614Y-82481658D01*
X165192000Y-82534000D01*
X165192000Y-83550680D01*
X165171998Y-83618801D01*
X165118342Y-83665294D01*
X165048068Y-83675398D01*
X164983488Y-83645904D01*
X164952994Y-83606408D01*
X164911508Y-83522282D01*
X164907387Y-83515145D01*
X164747530Y-83275901D01*
X164742512Y-83269361D01*
X164729853Y-83254926D01*
X164716614Y-83246528D01*
X164706849Y-83252362D01*
X163322020Y-84637190D01*
X163314408Y-84651131D01*
X163314539Y-84652966D01*
X163318790Y-84659580D01*
X164705095Y-86045884D01*
X164718856Y-86053399D01*
X164728216Y-86046941D01*
X164742512Y-86030639D01*
X164747530Y-86024099D01*
X164907387Y-85784855D01*
X164911508Y-85777718D01*
X164952994Y-85693592D01*
X165001062Y-85641343D01*
X165069748Y-85623376D01*
X165137244Y-85645395D01*
X165182120Y-85700410D01*
X165192000Y-85749320D01*
X165192000Y-96050680D01*
X165171998Y-96118801D01*
X165118342Y-96165294D01*
X165048068Y-96175398D01*
X164983488Y-96145904D01*
X164952994Y-96106408D01*
X164911508Y-96022282D01*
X164907387Y-96015145D01*
X164747530Y-95775901D01*
X164742512Y-95769361D01*
X164729853Y-95754926D01*
X164716614Y-95746528D01*
X164706849Y-95752362D01*
X163322020Y-97137190D01*
X163314408Y-97151131D01*
X163314539Y-97152966D01*
X163318790Y-97159580D01*
X164705095Y-98545884D01*
X164718856Y-98553399D01*
X164728216Y-98546941D01*
X164742512Y-98530639D01*
X164747530Y-98524099D01*
X164907387Y-98284855D01*
X164911508Y-98277718D01*
X164952994Y-98193592D01*
X165001062Y-98141343D01*
X165069748Y-98123376D01*
X165137244Y-98145395D01*
X165182120Y-98200410D01*
X165192000Y-98249320D01*
X165192000Y-99166000D01*
X165171998Y-99234121D01*
X165118342Y-99280614D01*
X165066000Y-99292000D01*
X164223930Y-99292000D01*
X164155809Y-99271998D01*
X164109316Y-99218342D01*
X164099212Y-99148068D01*
X164128706Y-99083488D01*
X164153928Y-99061235D01*
X164324099Y-98947530D01*
X164330639Y-98942512D01*
X164345074Y-98929853D01*
X164353472Y-98916614D01*
X164347638Y-98906849D01*
X162962810Y-97522020D01*
X162948869Y-97514408D01*
X162947034Y-97514539D01*
X162940420Y-97518790D01*
X161554116Y-98905095D01*
X161546601Y-98918856D01*
X161553059Y-98928216D01*
X161569361Y-98942512D01*
X161575901Y-98947530D01*
X161746072Y-99061235D01*
X161791600Y-99115712D01*
X161800448Y-99186155D01*
X161769807Y-99250199D01*
X161709405Y-99287510D01*
X161676070Y-99292000D01*
X92723930Y-99292000D01*
X92655809Y-99271998D01*
X92609316Y-99218342D01*
X92599212Y-99148068D01*
X92628706Y-99083488D01*
X92653928Y-99061235D01*
X92824099Y-98947530D01*
X92830639Y-98942512D01*
X92845074Y-98929853D01*
X92853472Y-98916614D01*
X92847638Y-98906849D01*
X91462810Y-97522020D01*
X91448869Y-97514408D01*
X91447034Y-97514539D01*
X91440420Y-97518790D01*
X90054116Y-98905095D01*
X90046601Y-98918856D01*
X90053059Y-98928216D01*
X90069361Y-98942512D01*
X90075901Y-98947530D01*
X90246072Y-99061235D01*
X90291600Y-99115712D01*
X90300448Y-99186155D01*
X90269807Y-99250199D01*
X90209405Y-99287510D01*
X90176070Y-99292000D01*
X89334000Y-99292000D01*
X89265879Y-99271998D01*
X89219386Y-99218342D01*
X89208000Y-99166000D01*
X89208000Y-98249320D01*
X89228002Y-98181199D01*
X89281658Y-98134706D01*
X89351932Y-98124602D01*
X89416512Y-98154096D01*
X89447006Y-98193592D01*
X89488492Y-98277718D01*
X89492613Y-98284855D01*
X89652470Y-98524099D01*
X89657488Y-98530639D01*
X89670147Y-98545074D01*
X89683386Y-98553472D01*
X89693151Y-98547638D01*
X91077980Y-97162810D01*
X91084357Y-97151131D01*
X91814408Y-97151131D01*
X91814539Y-97152966D01*
X91818790Y-97159580D01*
X93205095Y-98545884D01*
X93218856Y-98553399D01*
X93228216Y-98546941D01*
X93242512Y-98530639D01*
X93247530Y-98524099D01*
X93407387Y-98284855D01*
X93411508Y-98277718D01*
X93538772Y-98019651D01*
X93541922Y-98012047D01*
X93634412Y-97739580D01*
X93636546Y-97731617D01*
X93692683Y-97449400D01*
X93693756Y-97441249D01*
X93712575Y-97154119D01*
X93712575Y-97145881D01*
X93693756Y-96858751D01*
X93692683Y-96850600D01*
X93636546Y-96568383D01*
X93634412Y-96560420D01*
X93541922Y-96287953D01*
X93538772Y-96280349D01*
X93411508Y-96022282D01*
X93407387Y-96015145D01*
X93247530Y-95775901D01*
X93242512Y-95769361D01*
X93229853Y-95754926D01*
X93216614Y-95746528D01*
X93206849Y-95752362D01*
X91822020Y-97137190D01*
X91814408Y-97151131D01*
X91084357Y-97151131D01*
X91085592Y-97148869D01*
X91085461Y-97147034D01*
X91081210Y-97140420D01*
X89694905Y-95754116D01*
X89681144Y-95746601D01*
X89671784Y-95753059D01*
X89657488Y-95769361D01*
X89652470Y-95775901D01*
X89492613Y-96015145D01*
X89488492Y-96022282D01*
X89447006Y-96106408D01*
X89398938Y-96158657D01*
X89330252Y-96176624D01*
X89262756Y-96154605D01*
X89217880Y-96099590D01*
X89208000Y-96050680D01*
X89208000Y-94976000D01*
X89228002Y-94907879D01*
X89281658Y-94861386D01*
X89334000Y-94850000D01*
X90468292Y-94850000D01*
X90536413Y-94870002D01*
X90582906Y-94923658D01*
X90593010Y-94993932D01*
X90563516Y-95058512D01*
X90524020Y-95089006D01*
X90322282Y-95188492D01*
X90315145Y-95192613D01*
X90075901Y-95352470D01*
X90069361Y-95357488D01*
X90054926Y-95370147D01*
X90046528Y-95383386D01*
X90052362Y-95393151D01*
X91437190Y-96777980D01*
X91451131Y-96785592D01*
X91452966Y-96785461D01*
X91459580Y-96781210D01*
X92845884Y-95394905D01*
X92853399Y-95381144D01*
X92846941Y-95371784D01*
X92830639Y-95357488D01*
X92824099Y-95352470D01*
X92584856Y-95192613D01*
X92577719Y-95188492D01*
X92319651Y-95061228D01*
X92312047Y-95058078D01*
X92039580Y-94965588D01*
X92031615Y-94963454D01*
X91801419Y-94917665D01*
X91738509Y-94884758D01*
X91703377Y-94823063D01*
X91700000Y-94794086D01*
X91700000Y-94296027D01*
X91720002Y-94227906D01*
X91753728Y-94192815D01*
X91850404Y-94125122D01*
X91975122Y-94000404D01*
X92076287Y-93855925D01*
X92150828Y-93696073D01*
X92194133Y-93534457D01*
X92195053Y-93531022D01*
X92195053Y-93531021D01*
X92196477Y-93525707D01*
X92196958Y-93520215D01*
X92207806Y-93396232D01*
X92209072Y-93386309D01*
X92212265Y-93367333D01*
X92212265Y-93367328D01*
X92213071Y-93362540D01*
X92213224Y-93350001D01*
X92209273Y-93322413D01*
X92208000Y-93304550D01*
X92208000Y-88403206D01*
X92209746Y-88382302D01*
X92212264Y-88367334D01*
X92213071Y-88362538D01*
X92213224Y-88349999D01*
X92212535Y-88345192D01*
X92212535Y-88345185D01*
X92210185Y-88328780D01*
X92209391Y-88321898D01*
X92200933Y-88225229D01*
X92196477Y-88174293D01*
X92186427Y-88136784D01*
X92152251Y-88009237D01*
X92152250Y-88009235D01*
X92150828Y-88003927D01*
X92130864Y-87961114D01*
X92078610Y-87849056D01*
X92078608Y-87849053D01*
X92076287Y-87844075D01*
X91975122Y-87699596D01*
X91850404Y-87574878D01*
X91753728Y-87507185D01*
X91709401Y-87451729D01*
X91700000Y-87403973D01*
X91700000Y-87005914D01*
X91720002Y-86937793D01*
X91773658Y-86891300D01*
X91801419Y-86882335D01*
X92031615Y-86836546D01*
X92039580Y-86834412D01*
X92312047Y-86741922D01*
X92319651Y-86738772D01*
X92577719Y-86611508D01*
X92584856Y-86607387D01*
X92824099Y-86447530D01*
X92830639Y-86442512D01*
X92845074Y-86429853D01*
X92853472Y-86416614D01*
X92847638Y-86406849D01*
X91462810Y-85022020D01*
X91448869Y-85014408D01*
X91447034Y-85014539D01*
X91440420Y-85018790D01*
X90054116Y-86405095D01*
X90046601Y-86418856D01*
X90053059Y-86428216D01*
X90069361Y-86442512D01*
X90075901Y-86447530D01*
X90315144Y-86607387D01*
X90325848Y-86613567D01*
X90325219Y-86614657D01*
X90373484Y-86659054D01*
X90391457Y-86727739D01*
X90369442Y-86795236D01*
X90314431Y-86840116D01*
X90265512Y-86850000D01*
X89334000Y-86850000D01*
X89265879Y-86829998D01*
X89219386Y-86776342D01*
X89208000Y-86724000D01*
X89208000Y-85749320D01*
X89228002Y-85681199D01*
X89281658Y-85634706D01*
X89351932Y-85624602D01*
X89416512Y-85654096D01*
X89447006Y-85693592D01*
X89488492Y-85777718D01*
X89492613Y-85784855D01*
X89652470Y-86024099D01*
X89657488Y-86030639D01*
X89670147Y-86045074D01*
X89683386Y-86053472D01*
X89693151Y-86047638D01*
X91077980Y-84662810D01*
X91084357Y-84651131D01*
X91814408Y-84651131D01*
X91814539Y-84652966D01*
X91818790Y-84659580D01*
X93205095Y-86045884D01*
X93218856Y-86053399D01*
X93228216Y-86046941D01*
X93242512Y-86030639D01*
X93247530Y-86024099D01*
X93407387Y-85784855D01*
X93411508Y-85777718D01*
X93538772Y-85519651D01*
X93541922Y-85512047D01*
X93634412Y-85239580D01*
X93636546Y-85231617D01*
X93692683Y-84949400D01*
X93693756Y-84941249D01*
X93699737Y-84850000D01*
X110986496Y-84850000D01*
X110987186Y-84856565D01*
X111003790Y-85014539D01*
X111006458Y-85039928D01*
X111065473Y-85221556D01*
X111068776Y-85227278D01*
X111068777Y-85227279D01*
X111083531Y-85252834D01*
X111160960Y-85386944D01*
X111165378Y-85391851D01*
X111165379Y-85391852D01*
X111267179Y-85504912D01*
X111288747Y-85528866D01*
X111385085Y-85598860D01*
X111434423Y-85634706D01*
X111443248Y-85641118D01*
X111449276Y-85643802D01*
X111449278Y-85643803D01*
X111595602Y-85708950D01*
X111617712Y-85718794D01*
X111711113Y-85738647D01*
X111798056Y-85757128D01*
X111798061Y-85757128D01*
X111804513Y-85758500D01*
X111995487Y-85758500D01*
X112001939Y-85757128D01*
X112001944Y-85757128D01*
X112141189Y-85727530D01*
X112180665Y-85719139D01*
X112180667Y-85719139D01*
X112182288Y-85718794D01*
X112182351Y-85719090D01*
X112249800Y-85717163D01*
X112310598Y-85753825D01*
X112341924Y-85817537D01*
X112342308Y-85855136D01*
X112342192Y-85855610D01*
X112341500Y-85866764D01*
X112341464Y-85866762D01*
X112341225Y-85870755D01*
X112340851Y-85874947D01*
X112339360Y-85882115D01*
X112339558Y-85889432D01*
X112341454Y-85959521D01*
X112341500Y-85962928D01*
X112341500Y-94988789D01*
X112321498Y-95056910D01*
X112266749Y-95103896D01*
X112149278Y-95156197D01*
X112149276Y-95156198D01*
X112143248Y-95158882D01*
X111988747Y-95271134D01*
X111984326Y-95276044D01*
X111984325Y-95276045D01*
X111865937Y-95407529D01*
X111860960Y-95413056D01*
X111765473Y-95578444D01*
X111706458Y-95760072D01*
X111705768Y-95766633D01*
X111705768Y-95766635D01*
X111704794Y-95775901D01*
X111686496Y-95950000D01*
X111687186Y-95956565D01*
X111705251Y-96128441D01*
X111706458Y-96139928D01*
X111765473Y-96321556D01*
X111860960Y-96486944D01*
X111865378Y-96491851D01*
X111865379Y-96491852D01*
X111984325Y-96623955D01*
X111988747Y-96628866D01*
X112143248Y-96741118D01*
X112149276Y-96743802D01*
X112149278Y-96743803D01*
X112311681Y-96816109D01*
X112317712Y-96818794D01*
X112411112Y-96838647D01*
X112498056Y-96857128D01*
X112498061Y-96857128D01*
X112504513Y-96858500D01*
X112695487Y-96858500D01*
X112701939Y-96857128D01*
X112701944Y-96857128D01*
X112788887Y-96838647D01*
X112882288Y-96818794D01*
X112888319Y-96816109D01*
X113050722Y-96743803D01*
X113050724Y-96743802D01*
X113056752Y-96741118D01*
X113211253Y-96628866D01*
X113215675Y-96623955D01*
X113334621Y-96491852D01*
X113334622Y-96491851D01*
X113339040Y-96486944D01*
X113434527Y-96321556D01*
X113489387Y-96152714D01*
X113520125Y-96102556D01*
X113588911Y-96033770D01*
X113603323Y-96021384D01*
X113614918Y-96012851D01*
X113614923Y-96012846D01*
X113620818Y-96008508D01*
X113625557Y-96002930D01*
X113625560Y-96002927D01*
X113655035Y-95968232D01*
X113661965Y-95960716D01*
X113667661Y-95955020D01*
X113669924Y-95952159D01*
X113669929Y-95952154D01*
X113685293Y-95932734D01*
X113688082Y-95929333D01*
X113689743Y-95927378D01*
X113735333Y-95873715D01*
X113738659Y-95867202D01*
X113742020Y-95862163D01*
X113745196Y-95857021D01*
X113749734Y-95851284D01*
X113780655Y-95785125D01*
X113782561Y-95781225D01*
X113790011Y-95766635D01*
X113815769Y-95716192D01*
X113817508Y-95709083D01*
X113819604Y-95703449D01*
X113821523Y-95697679D01*
X113824622Y-95691050D01*
X113827123Y-95679030D01*
X113839490Y-95619571D01*
X113840461Y-95615282D01*
X113857808Y-95544390D01*
X113858500Y-95533236D01*
X113858535Y-95533238D01*
X113858775Y-95529266D01*
X113859152Y-95525045D01*
X113860641Y-95517885D01*
X113858546Y-95440458D01*
X113858500Y-95437050D01*
X113858500Y-86316371D01*
X113878502Y-86248250D01*
X113895405Y-86227276D01*
X114477276Y-85645405D01*
X114539588Y-85611379D01*
X114566371Y-85608500D01*
X126032930Y-85608500D01*
X126051880Y-85609933D01*
X126066115Y-85612099D01*
X126066119Y-85612099D01*
X126073349Y-85613199D01*
X126080641Y-85612606D01*
X126080644Y-85612606D01*
X126126018Y-85608915D01*
X126136233Y-85608500D01*
X126144293Y-85608500D01*
X126157583Y-85606951D01*
X126172507Y-85605211D01*
X126176882Y-85604778D01*
X126242339Y-85599454D01*
X126242342Y-85599453D01*
X126249637Y-85598860D01*
X126256601Y-85596604D01*
X126262560Y-85595413D01*
X126268415Y-85594029D01*
X126275681Y-85593182D01*
X126344327Y-85568265D01*
X126348455Y-85566848D01*
X126410936Y-85546607D01*
X126410938Y-85546606D01*
X126417899Y-85544351D01*
X126424154Y-85540555D01*
X126429628Y-85538049D01*
X126435058Y-85535330D01*
X126441937Y-85532833D01*
X126481891Y-85506638D01*
X126502976Y-85492814D01*
X126506680Y-85490477D01*
X126569107Y-85452595D01*
X126577484Y-85445197D01*
X126577508Y-85445224D01*
X126580500Y-85442571D01*
X126583733Y-85439868D01*
X126589852Y-85435856D01*
X126643128Y-85379617D01*
X126645506Y-85377175D01*
X127206331Y-84816350D01*
X127269228Y-84782199D01*
X127325824Y-84770169D01*
X127325833Y-84770166D01*
X127332288Y-84768794D01*
X127338319Y-84766109D01*
X127500722Y-84693803D01*
X127500724Y-84693802D01*
X127506752Y-84691118D01*
X127545715Y-84662810D01*
X127569015Y-84645881D01*
X127661253Y-84578866D01*
X127773878Y-84453783D01*
X127784621Y-84441852D01*
X127784622Y-84441851D01*
X127789040Y-84436944D01*
X127884527Y-84271556D01*
X127943542Y-84089928D01*
X127944672Y-84079182D01*
X127962814Y-83906565D01*
X127963504Y-83900000D01*
X127962017Y-83885851D01*
X133636719Y-83885851D01*
X133637235Y-83891995D01*
X133652555Y-84074440D01*
X133653268Y-84082934D01*
X133707783Y-84273050D01*
X133710602Y-84278535D01*
X133792014Y-84436944D01*
X133798187Y-84448956D01*
X133921035Y-84603953D01*
X133925728Y-84607947D01*
X133925729Y-84607948D01*
X134018894Y-84687237D01*
X134071650Y-84732136D01*
X134244294Y-84828624D01*
X134250154Y-84830528D01*
X134426531Y-84887836D01*
X134426534Y-84887837D01*
X134432392Y-84889740D01*
X134526463Y-84900958D01*
X134541970Y-84902807D01*
X134607243Y-84930735D01*
X134616145Y-84938826D01*
X134766230Y-85088911D01*
X134778616Y-85103323D01*
X134787149Y-85114918D01*
X134787154Y-85114923D01*
X134791492Y-85120818D01*
X134797070Y-85125557D01*
X134797073Y-85125560D01*
X134831768Y-85155035D01*
X134839284Y-85161965D01*
X134844979Y-85167660D01*
X134847861Y-85169940D01*
X134867251Y-85185281D01*
X134870655Y-85188072D01*
X134916805Y-85227279D01*
X134926285Y-85235333D01*
X134932801Y-85238661D01*
X134937838Y-85242020D01*
X134942977Y-85245194D01*
X134948716Y-85249734D01*
X134955349Y-85252834D01*
X135014837Y-85280636D01*
X135018791Y-85282569D01*
X135083808Y-85315769D01*
X135090924Y-85317510D01*
X135096554Y-85319604D01*
X135102321Y-85321523D01*
X135108950Y-85324621D01*
X135116110Y-85326110D01*
X135116112Y-85326111D01*
X135180396Y-85339482D01*
X135184680Y-85340452D01*
X135255610Y-85357808D01*
X135261212Y-85358156D01*
X135261215Y-85358156D01*
X135266764Y-85358500D01*
X135266762Y-85358536D01*
X135270752Y-85358775D01*
X135274950Y-85359150D01*
X135282115Y-85360640D01*
X135359504Y-85358546D01*
X135362912Y-85358500D01*
X149783629Y-85358500D01*
X149851750Y-85378502D01*
X149872724Y-85395405D01*
X153004875Y-88527556D01*
X153035613Y-88577714D01*
X153090473Y-88746556D01*
X153093776Y-88752278D01*
X153093777Y-88752279D01*
X153149619Y-88848999D01*
X153166500Y-88911999D01*
X153166500Y-95427658D01*
X153146498Y-95495779D01*
X153091749Y-95542765D01*
X152949278Y-95606197D01*
X152949276Y-95606198D01*
X152943248Y-95608882D01*
X152937907Y-95612762D01*
X152937906Y-95612763D01*
X152901555Y-95639174D01*
X152788747Y-95721134D01*
X152784326Y-95726044D01*
X152784325Y-95726045D01*
X152671560Y-95851284D01*
X152660960Y-95863056D01*
X152657659Y-95868774D01*
X152569031Y-96022282D01*
X152565473Y-96028444D01*
X152506458Y-96210072D01*
X152486496Y-96400000D01*
X152487186Y-96406565D01*
X152504194Y-96568383D01*
X152506458Y-96589928D01*
X152565473Y-96771556D01*
X152660960Y-96936944D01*
X152788747Y-97078866D01*
X152880985Y-97145881D01*
X152904286Y-97162810D01*
X152943248Y-97191118D01*
X152949276Y-97193802D01*
X152949278Y-97193803D01*
X153111681Y-97266109D01*
X153117712Y-97268794D01*
X153211113Y-97288647D01*
X153298056Y-97307128D01*
X153298061Y-97307128D01*
X153304513Y-97308500D01*
X153495487Y-97308500D01*
X153501939Y-97307128D01*
X153501944Y-97307128D01*
X153588888Y-97288647D01*
X153682288Y-97268794D01*
X153688319Y-97266109D01*
X153850722Y-97193803D01*
X153850724Y-97193802D01*
X153856752Y-97191118D01*
X153895715Y-97162810D01*
X153907677Y-97154119D01*
X160687425Y-97154119D01*
X160706244Y-97441249D01*
X160707317Y-97449400D01*
X160763454Y-97731617D01*
X160765588Y-97739580D01*
X160858078Y-98012047D01*
X160861228Y-98019651D01*
X160988492Y-98277718D01*
X160992613Y-98284855D01*
X161152470Y-98524099D01*
X161157488Y-98530639D01*
X161170147Y-98545074D01*
X161183386Y-98553472D01*
X161193151Y-98547638D01*
X162577980Y-97162810D01*
X162585592Y-97148869D01*
X162585461Y-97147034D01*
X162581210Y-97140420D01*
X161194905Y-95754116D01*
X161181144Y-95746601D01*
X161171784Y-95753059D01*
X161157488Y-95769361D01*
X161152470Y-95775901D01*
X160992613Y-96015145D01*
X160988492Y-96022282D01*
X160861228Y-96280349D01*
X160858078Y-96287953D01*
X160765588Y-96560420D01*
X160763454Y-96568383D01*
X160707317Y-96850600D01*
X160706244Y-96858751D01*
X160687425Y-97145881D01*
X160687425Y-97154119D01*
X153907677Y-97154119D01*
X153919015Y-97145881D01*
X154011253Y-97078866D01*
X154139040Y-96936944D01*
X154234527Y-96771556D01*
X154289387Y-96602714D01*
X154320125Y-96552556D01*
X154413911Y-96458770D01*
X154428323Y-96446384D01*
X154439918Y-96437851D01*
X154439923Y-96437846D01*
X154445818Y-96433508D01*
X154450557Y-96427930D01*
X154450560Y-96427927D01*
X154480035Y-96393232D01*
X154486965Y-96385716D01*
X154492660Y-96380021D01*
X154510281Y-96357749D01*
X154513072Y-96354345D01*
X154555591Y-96304297D01*
X154555592Y-96304295D01*
X154560333Y-96298715D01*
X154563661Y-96292199D01*
X154567028Y-96287150D01*
X154570195Y-96282021D01*
X154574734Y-96276284D01*
X154605655Y-96210125D01*
X154607561Y-96206225D01*
X154623302Y-96175398D01*
X154640769Y-96141192D01*
X154642508Y-96134084D01*
X154644607Y-96128441D01*
X154646524Y-96122678D01*
X154649622Y-96116050D01*
X154664487Y-96044583D01*
X154665457Y-96040299D01*
X154681473Y-95974845D01*
X154682808Y-95969390D01*
X154683500Y-95958236D01*
X154683536Y-95958238D01*
X154683775Y-95954245D01*
X154684149Y-95950053D01*
X154685640Y-95942885D01*
X154683546Y-95865479D01*
X154683500Y-95862072D01*
X154683500Y-91796695D01*
X155497251Y-91796695D01*
X155497548Y-91801848D01*
X155497548Y-91801851D01*
X155503011Y-91896590D01*
X155510110Y-92019715D01*
X155511247Y-92024761D01*
X155511248Y-92024767D01*
X155531119Y-92112939D01*
X155559222Y-92237639D01*
X155643266Y-92444616D01*
X155694019Y-92527438D01*
X155757291Y-92630688D01*
X155759987Y-92635088D01*
X155906250Y-92803938D01*
X156078126Y-92946632D01*
X156271000Y-93059338D01*
X156479692Y-93139030D01*
X156484760Y-93140061D01*
X156484763Y-93140062D01*
X156589466Y-93161364D01*
X156698597Y-93183567D01*
X156703772Y-93183757D01*
X156703774Y-93183757D01*
X156916673Y-93191564D01*
X156916677Y-93191564D01*
X156921837Y-93191753D01*
X156926957Y-93191097D01*
X156926959Y-93191097D01*
X157138288Y-93164025D01*
X157138289Y-93164025D01*
X157143416Y-93163368D01*
X157150096Y-93161364D01*
X157352429Y-93100661D01*
X157352434Y-93100659D01*
X157357384Y-93099174D01*
X157557994Y-93000896D01*
X157739860Y-92871173D01*
X157898096Y-92713489D01*
X157957594Y-92630689D01*
X158028453Y-92532077D01*
X158029776Y-92533028D01*
X158076645Y-92489857D01*
X158146580Y-92477625D01*
X158212026Y-92505144D01*
X158239875Y-92536994D01*
X158299987Y-92635088D01*
X158446250Y-92803938D01*
X158618126Y-92946632D01*
X158688595Y-92987811D01*
X158691445Y-92989476D01*
X158740169Y-93041114D01*
X158753240Y-93110897D01*
X158726509Y-93176669D01*
X158686055Y-93210027D01*
X158673607Y-93216507D01*
X158669474Y-93219610D01*
X158669471Y-93219612D01*
X158502222Y-93345186D01*
X158494965Y-93350635D01*
X158340629Y-93512138D01*
X158214743Y-93696680D01*
X158120688Y-93899305D01*
X158060989Y-94114570D01*
X158037251Y-94336695D01*
X158037548Y-94341848D01*
X158037548Y-94341851D01*
X158043011Y-94436590D01*
X158050110Y-94559715D01*
X158051247Y-94564761D01*
X158051248Y-94564767D01*
X158067421Y-94636529D01*
X158099222Y-94777639D01*
X158137461Y-94871811D01*
X158175540Y-94965588D01*
X158183266Y-94984616D01*
X158185965Y-94989020D01*
X158288411Y-95156197D01*
X158299987Y-95175088D01*
X158446250Y-95343938D01*
X158618126Y-95486632D01*
X158811000Y-95599338D01*
X159019692Y-95679030D01*
X159024760Y-95680061D01*
X159024763Y-95680062D01*
X159132017Y-95701883D01*
X159238597Y-95723567D01*
X159243772Y-95723757D01*
X159243774Y-95723757D01*
X159456673Y-95731564D01*
X159456677Y-95731564D01*
X159461837Y-95731753D01*
X159466957Y-95731097D01*
X159466959Y-95731097D01*
X159678288Y-95704025D01*
X159678289Y-95704025D01*
X159683416Y-95703368D01*
X159724474Y-95691050D01*
X159892429Y-95640661D01*
X159892434Y-95640659D01*
X159897384Y-95639174D01*
X160097994Y-95540896D01*
X160279860Y-95411173D01*
X160307745Y-95383386D01*
X161546528Y-95383386D01*
X161552362Y-95393151D01*
X162937190Y-96777980D01*
X162951131Y-96785592D01*
X162952966Y-96785461D01*
X162959580Y-96781210D01*
X164345884Y-95394905D01*
X164353399Y-95381144D01*
X164346941Y-95371784D01*
X164330639Y-95357488D01*
X164324099Y-95352470D01*
X164084856Y-95192613D01*
X164077719Y-95188492D01*
X163819651Y-95061228D01*
X163812047Y-95058078D01*
X163539580Y-94965588D01*
X163531617Y-94963454D01*
X163249400Y-94907317D01*
X163241249Y-94906244D01*
X162954119Y-94887425D01*
X162945881Y-94887425D01*
X162658751Y-94906244D01*
X162650600Y-94907317D01*
X162368383Y-94963454D01*
X162360420Y-94965588D01*
X162087953Y-95058078D01*
X162080349Y-95061228D01*
X161822282Y-95188492D01*
X161815145Y-95192613D01*
X161575901Y-95352470D01*
X161569361Y-95357488D01*
X161554926Y-95370147D01*
X161546528Y-95383386D01*
X160307745Y-95383386D01*
X160338769Y-95352470D01*
X160434435Y-95257137D01*
X160438096Y-95253489D01*
X160497594Y-95170689D01*
X160565435Y-95076277D01*
X160568453Y-95072077D01*
X160607075Y-94993932D01*
X160665136Y-94876453D01*
X160665137Y-94876451D01*
X160667430Y-94871811D01*
X160732370Y-94658069D01*
X160761529Y-94436590D01*
X160763156Y-94370000D01*
X160744852Y-94147361D01*
X160690431Y-93930702D01*
X160601354Y-93725840D01*
X160561906Y-93664862D01*
X160482822Y-93542617D01*
X160482820Y-93542614D01*
X160480014Y-93538277D01*
X160329670Y-93373051D01*
X160325619Y-93369852D01*
X160325615Y-93369848D01*
X160158414Y-93237800D01*
X160158410Y-93237798D01*
X160154359Y-93234598D01*
X160113053Y-93211796D01*
X160063084Y-93161364D01*
X160048312Y-93091921D01*
X160073428Y-93025516D01*
X160100780Y-92998909D01*
X160144603Y-92967650D01*
X160279860Y-92871173D01*
X160438096Y-92713489D01*
X160497594Y-92630689D01*
X160565435Y-92536277D01*
X160568453Y-92532077D01*
X160589320Y-92489857D01*
X160665136Y-92336453D01*
X160665137Y-92336451D01*
X160667430Y-92331811D01*
X160732370Y-92118069D01*
X160761529Y-91896590D01*
X160763156Y-91830000D01*
X160744852Y-91607361D01*
X160690431Y-91390702D01*
X160601354Y-91185840D01*
X160480014Y-90998277D01*
X160329670Y-90833051D01*
X160325619Y-90829852D01*
X160325615Y-90829848D01*
X160158414Y-90697800D01*
X160158410Y-90697798D01*
X160154359Y-90694598D01*
X160113053Y-90671796D01*
X160063084Y-90621364D01*
X160048312Y-90551921D01*
X160073428Y-90485516D01*
X160100780Y-90458909D01*
X160144603Y-90427650D01*
X160279860Y-90331173D01*
X160438096Y-90173489D01*
X160497594Y-90090689D01*
X160565435Y-89996277D01*
X160568453Y-89992077D01*
X160589320Y-89949857D01*
X160665136Y-89796453D01*
X160665137Y-89796451D01*
X160667430Y-89791811D01*
X160732370Y-89578069D01*
X160761529Y-89356590D01*
X160763156Y-89290000D01*
X160744852Y-89067361D01*
X160690431Y-88850702D01*
X160601354Y-88645840D01*
X160480014Y-88458277D01*
X160329670Y-88293051D01*
X160325619Y-88289852D01*
X160325615Y-88289848D01*
X160158414Y-88157800D01*
X160158410Y-88157798D01*
X160154359Y-88154598D01*
X160113053Y-88131796D01*
X160063084Y-88081364D01*
X160048312Y-88011921D01*
X160073428Y-87945516D01*
X160100780Y-87918909D01*
X160144603Y-87887650D01*
X160279860Y-87791173D01*
X160438096Y-87633489D01*
X160475672Y-87581197D01*
X160565435Y-87456277D01*
X160568453Y-87452077D01*
X160592228Y-87403973D01*
X160665136Y-87256453D01*
X160665137Y-87256451D01*
X160667430Y-87251811D01*
X160699900Y-87144940D01*
X160730865Y-87043023D01*
X160730865Y-87043021D01*
X160732370Y-87038069D01*
X160761529Y-86816590D01*
X160762051Y-86795236D01*
X160763074Y-86753365D01*
X160763074Y-86753361D01*
X160763156Y-86750000D01*
X160744852Y-86527361D01*
X160717597Y-86418856D01*
X161546601Y-86418856D01*
X161553059Y-86428216D01*
X161569361Y-86442512D01*
X161575901Y-86447530D01*
X161815144Y-86607387D01*
X161822281Y-86611508D01*
X162080349Y-86738772D01*
X162087953Y-86741922D01*
X162360420Y-86834412D01*
X162368383Y-86836546D01*
X162650600Y-86892683D01*
X162658751Y-86893756D01*
X162945881Y-86912575D01*
X162954119Y-86912575D01*
X163241249Y-86893756D01*
X163249400Y-86892683D01*
X163531617Y-86836546D01*
X163539580Y-86834412D01*
X163812047Y-86741922D01*
X163819651Y-86738772D01*
X164077719Y-86611508D01*
X164084856Y-86607387D01*
X164324099Y-86447530D01*
X164330639Y-86442512D01*
X164345074Y-86429853D01*
X164353472Y-86416614D01*
X164347638Y-86406849D01*
X162962810Y-85022020D01*
X162948869Y-85014408D01*
X162947034Y-85014539D01*
X162940420Y-85018790D01*
X161554116Y-86405095D01*
X161546601Y-86418856D01*
X160717597Y-86418856D01*
X160690431Y-86310702D01*
X160601354Y-86105840D01*
X160480014Y-85918277D01*
X160329670Y-85753051D01*
X160325619Y-85749852D01*
X160325615Y-85749848D01*
X160158414Y-85617800D01*
X160158410Y-85617798D01*
X160154359Y-85614598D01*
X160145909Y-85609933D01*
X160069088Y-85567526D01*
X159958789Y-85506638D01*
X159953920Y-85504914D01*
X159953916Y-85504912D01*
X159753087Y-85433795D01*
X159753083Y-85433794D01*
X159748212Y-85432069D01*
X159743119Y-85431162D01*
X159743116Y-85431161D01*
X159533373Y-85393800D01*
X159533367Y-85393799D01*
X159528284Y-85392894D01*
X159454452Y-85391992D01*
X159310081Y-85390228D01*
X159310079Y-85390228D01*
X159304911Y-85390165D01*
X159084091Y-85423955D01*
X158871756Y-85493357D01*
X158673607Y-85596507D01*
X158669474Y-85599610D01*
X158669471Y-85599612D01*
X158510276Y-85719139D01*
X158494965Y-85730635D01*
X158491393Y-85734373D01*
X158413898Y-85815466D01*
X158352374Y-85850895D01*
X158281462Y-85847438D01*
X158223676Y-85806192D01*
X158204823Y-85772644D01*
X158163324Y-85661946D01*
X158154786Y-85646351D01*
X158078285Y-85544276D01*
X158065724Y-85531715D01*
X157963649Y-85455214D01*
X157948054Y-85446676D01*
X157827606Y-85401522D01*
X157812351Y-85397895D01*
X157761486Y-85392369D01*
X157754672Y-85392000D01*
X157132115Y-85392000D01*
X157116876Y-85396475D01*
X157115671Y-85397865D01*
X157114000Y-85405548D01*
X157114000Y-86878000D01*
X157093998Y-86946121D01*
X157040342Y-86992614D01*
X156988000Y-87004000D01*
X155520116Y-87004000D01*
X155504877Y-87008475D01*
X155503672Y-87009865D01*
X155502001Y-87017548D01*
X155502001Y-87644669D01*
X155502371Y-87651490D01*
X155507895Y-87702352D01*
X155511521Y-87717604D01*
X155556676Y-87838054D01*
X155565214Y-87853649D01*
X155641715Y-87955724D01*
X155654276Y-87968285D01*
X155756351Y-88044786D01*
X155771946Y-88053324D01*
X155880827Y-88094142D01*
X155937591Y-88136784D01*
X155962291Y-88203345D01*
X155947083Y-88272694D01*
X155927691Y-88299175D01*
X155838336Y-88392680D01*
X155800629Y-88432138D01*
X155674743Y-88616680D01*
X155580688Y-88819305D01*
X155520989Y-89034570D01*
X155497251Y-89256695D01*
X155497548Y-89261848D01*
X155497548Y-89261851D01*
X155503011Y-89356590D01*
X155510110Y-89479715D01*
X155511247Y-89484761D01*
X155511248Y-89484767D01*
X155531119Y-89572939D01*
X155559222Y-89697639D01*
X155643266Y-89904616D01*
X155694019Y-89987438D01*
X155757291Y-90090688D01*
X155759987Y-90095088D01*
X155906250Y-90263938D01*
X156078126Y-90406632D01*
X156148595Y-90447811D01*
X156151445Y-90449476D01*
X156200169Y-90501114D01*
X156213240Y-90570897D01*
X156186509Y-90636669D01*
X156146055Y-90670027D01*
X156133607Y-90676507D01*
X156129474Y-90679610D01*
X156129471Y-90679612D01*
X156105247Y-90697800D01*
X155954965Y-90810635D01*
X155800629Y-90972138D01*
X155674743Y-91156680D01*
X155580688Y-91359305D01*
X155520989Y-91574570D01*
X155497251Y-91796695D01*
X154683500Y-91796695D01*
X154683500Y-88911999D01*
X154700381Y-88848999D01*
X154756223Y-88752279D01*
X154756224Y-88752278D01*
X154759527Y-88746556D01*
X154818542Y-88564928D01*
X154838504Y-88375000D01*
X154818542Y-88185072D01*
X154759527Y-88003444D01*
X154664040Y-87838056D01*
X154621827Y-87791173D01*
X154540675Y-87701045D01*
X154540674Y-87701044D01*
X154536253Y-87696134D01*
X154381752Y-87583882D01*
X154375724Y-87581198D01*
X154375722Y-87581197D01*
X154213319Y-87508891D01*
X154213318Y-87508891D01*
X154207288Y-87506206D01*
X154200833Y-87504834D01*
X154200824Y-87504831D01*
X154144228Y-87492801D01*
X154081331Y-87458650D01*
X153100566Y-86477885D01*
X155502000Y-86477885D01*
X155506475Y-86493124D01*
X155507865Y-86494329D01*
X155515548Y-86496000D01*
X156587885Y-86496000D01*
X156603124Y-86491525D01*
X156604329Y-86490135D01*
X156606000Y-86482452D01*
X156606000Y-85410116D01*
X156601525Y-85394877D01*
X156600135Y-85393672D01*
X156592452Y-85392001D01*
X155965331Y-85392001D01*
X155958510Y-85392371D01*
X155907648Y-85397895D01*
X155892396Y-85401521D01*
X155771946Y-85446676D01*
X155756351Y-85455214D01*
X155654276Y-85531715D01*
X155641715Y-85544276D01*
X155565214Y-85646351D01*
X155556676Y-85661946D01*
X155511522Y-85782394D01*
X155507895Y-85797649D01*
X155502369Y-85848514D01*
X155502000Y-85855328D01*
X155502000Y-86477885D01*
X153100566Y-86477885D01*
X151276800Y-84654119D01*
X160687425Y-84654119D01*
X160706244Y-84941249D01*
X160707317Y-84949400D01*
X160763454Y-85231617D01*
X160765588Y-85239580D01*
X160858078Y-85512047D01*
X160861228Y-85519651D01*
X160988492Y-85777718D01*
X160992613Y-85784855D01*
X161152470Y-86024099D01*
X161157488Y-86030639D01*
X161170147Y-86045074D01*
X161183386Y-86053472D01*
X161193151Y-86047638D01*
X162577980Y-84662810D01*
X162585592Y-84648869D01*
X162585461Y-84647034D01*
X162581210Y-84640420D01*
X161194905Y-83254116D01*
X161181144Y-83246601D01*
X161171784Y-83253059D01*
X161157488Y-83269361D01*
X161152470Y-83275901D01*
X160992613Y-83515145D01*
X160988492Y-83522282D01*
X160861228Y-83780349D01*
X160858078Y-83787953D01*
X160765588Y-84060420D01*
X160763454Y-84068383D01*
X160707317Y-84350600D01*
X160706244Y-84358751D01*
X160687425Y-84645881D01*
X160687425Y-84654119D01*
X151276800Y-84654119D01*
X150733770Y-84111089D01*
X150721384Y-84096677D01*
X150712851Y-84085082D01*
X150712846Y-84085077D01*
X150708508Y-84079182D01*
X150702930Y-84074443D01*
X150702927Y-84074440D01*
X150668232Y-84044965D01*
X150660716Y-84038035D01*
X150655021Y-84032340D01*
X150648880Y-84027482D01*
X150632749Y-84014719D01*
X150629345Y-84011928D01*
X150579297Y-83969409D01*
X150579295Y-83969408D01*
X150573715Y-83964667D01*
X150567199Y-83961339D01*
X150562150Y-83957972D01*
X150557021Y-83954805D01*
X150551284Y-83950266D01*
X150485125Y-83919345D01*
X150481225Y-83917439D01*
X150416192Y-83884231D01*
X150409084Y-83882492D01*
X150403441Y-83880393D01*
X150397678Y-83878476D01*
X150391050Y-83875378D01*
X150319583Y-83860513D01*
X150315299Y-83859543D01*
X150244390Y-83842192D01*
X150238788Y-83841844D01*
X150238785Y-83841844D01*
X150233236Y-83841500D01*
X150233238Y-83841464D01*
X150229245Y-83841225D01*
X150225053Y-83840851D01*
X150217885Y-83839360D01*
X150151675Y-83841151D01*
X150140479Y-83841454D01*
X150137072Y-83841500D01*
X135771894Y-83841500D01*
X135703773Y-83821498D01*
X135657280Y-83767842D01*
X135646495Y-83727796D01*
X135645939Y-83722128D01*
X135644080Y-83703167D01*
X135586916Y-83513831D01*
X135494066Y-83339204D01*
X135401776Y-83226045D01*
X135372960Y-83190713D01*
X135372957Y-83190710D01*
X135369065Y-83185938D01*
X135362724Y-83180692D01*
X135221425Y-83063799D01*
X135221421Y-83063797D01*
X135216675Y-83059870D01*
X135042701Y-82965802D01*
X134853768Y-82907318D01*
X134847643Y-82906674D01*
X134847642Y-82906674D01*
X134663204Y-82887289D01*
X134663202Y-82887289D01*
X134657075Y-82886645D01*
X134585586Y-82893151D01*
X134466251Y-82904011D01*
X134466248Y-82904012D01*
X134460112Y-82904570D01*
X134454206Y-82906308D01*
X134454202Y-82906309D01*
X134349076Y-82937249D01*
X134270381Y-82960410D01*
X134264923Y-82963263D01*
X134264919Y-82963265D01*
X134208287Y-82992872D01*
X134095110Y-83052040D01*
X133940975Y-83175968D01*
X133813846Y-83327474D01*
X133810879Y-83332872D01*
X133810875Y-83332877D01*
X133791141Y-83368774D01*
X133718567Y-83500787D01*
X133716706Y-83506654D01*
X133716705Y-83506656D01*
X133672533Y-83645904D01*
X133658765Y-83689306D01*
X133636719Y-83885851D01*
X127962017Y-83885851D01*
X127957392Y-83841844D01*
X127944232Y-83716635D01*
X127944232Y-83716633D01*
X127943542Y-83710072D01*
X127884527Y-83528444D01*
X127880970Y-83522282D01*
X127792341Y-83368774D01*
X127789040Y-83363056D01*
X127710566Y-83275901D01*
X127665675Y-83226045D01*
X127665674Y-83226044D01*
X127661253Y-83221134D01*
X127506752Y-83108882D01*
X127500724Y-83106198D01*
X127500722Y-83106197D01*
X127338319Y-83033891D01*
X127338318Y-83033891D01*
X127332288Y-83031206D01*
X127238888Y-83011353D01*
X127151944Y-82992872D01*
X127151939Y-82992872D01*
X127145487Y-82991500D01*
X126954513Y-82991500D01*
X126948061Y-82992872D01*
X126948056Y-82992872D01*
X126861112Y-83011353D01*
X126767712Y-83031206D01*
X126761682Y-83033891D01*
X126761681Y-83033891D01*
X126599278Y-83106197D01*
X126599276Y-83106198D01*
X126593248Y-83108882D01*
X126438747Y-83221134D01*
X126434326Y-83226044D01*
X126434325Y-83226045D01*
X126389435Y-83275901D01*
X126310960Y-83363056D01*
X126307659Y-83368774D01*
X126219031Y-83522282D01*
X126215473Y-83528444D01*
X126163206Y-83689306D01*
X126160613Y-83697285D01*
X126129875Y-83747444D01*
X125822724Y-84054595D01*
X125760412Y-84088621D01*
X125733629Y-84091500D01*
X114267070Y-84091500D01*
X114248120Y-84090067D01*
X114233885Y-84087901D01*
X114233881Y-84087901D01*
X114226651Y-84086801D01*
X114219359Y-84087394D01*
X114219356Y-84087394D01*
X114173982Y-84091085D01*
X114163767Y-84091500D01*
X112442587Y-84091500D01*
X112368528Y-84067437D01*
X112362098Y-84062765D01*
X112362091Y-84062761D01*
X112356752Y-84058882D01*
X112350724Y-84056198D01*
X112350722Y-84056197D01*
X112188319Y-83983891D01*
X112188318Y-83983891D01*
X112182288Y-83981206D01*
X112075828Y-83958577D01*
X112001944Y-83942872D01*
X112001939Y-83942872D01*
X111995487Y-83941500D01*
X111804513Y-83941500D01*
X111798061Y-83942872D01*
X111798056Y-83942872D01*
X111724172Y-83958577D01*
X111617712Y-83981206D01*
X111611682Y-83983891D01*
X111611681Y-83983891D01*
X111449278Y-84056197D01*
X111449276Y-84056198D01*
X111443248Y-84058882D01*
X111437907Y-84062762D01*
X111437906Y-84062763D01*
X111398353Y-84091500D01*
X111288747Y-84171134D01*
X111284326Y-84176044D01*
X111284325Y-84176045D01*
X111185807Y-84285461D01*
X111160960Y-84313056D01*
X111065473Y-84478444D01*
X111006458Y-84660072D01*
X111005768Y-84666633D01*
X111005768Y-84666635D01*
X110998884Y-84732136D01*
X110986496Y-84850000D01*
X93699737Y-84850000D01*
X93712575Y-84654119D01*
X93712575Y-84645881D01*
X93693756Y-84358751D01*
X93692683Y-84350600D01*
X93636546Y-84068383D01*
X93634412Y-84060420D01*
X93541922Y-83787953D01*
X93538772Y-83780349D01*
X93411508Y-83522282D01*
X93407387Y-83515145D01*
X93247530Y-83275901D01*
X93242512Y-83269361D01*
X93229853Y-83254926D01*
X93216614Y-83246528D01*
X93206849Y-83252362D01*
X91822020Y-84637190D01*
X91814408Y-84651131D01*
X91084357Y-84651131D01*
X91085592Y-84648869D01*
X91085461Y-84647034D01*
X91081210Y-84640420D01*
X89694905Y-83254116D01*
X89681144Y-83246601D01*
X89671784Y-83253059D01*
X89657488Y-83269361D01*
X89652470Y-83275901D01*
X89492613Y-83515145D01*
X89488492Y-83522282D01*
X89447006Y-83606408D01*
X89398938Y-83658657D01*
X89330252Y-83676624D01*
X89262756Y-83654605D01*
X89217880Y-83599590D01*
X89208000Y-83550680D01*
X89208000Y-82534000D01*
X89228002Y-82465879D01*
X89281658Y-82419386D01*
X89334000Y-82408000D01*
X90350680Y-82408000D01*
X90418801Y-82428002D01*
G37*
%TD.AperFunction*%
%TD*%
M02*
