%TF.GenerationSoftware,KiCad,Pcbnew,(6.0.0)*%
%TF.CreationDate,2022-03-29T17:15:08-07:00*%
%TF.ProjectId,ELW2106AA-breakout-board,454c5732-3130-4364-9141-2d627265616b,rev?*%
%TF.SameCoordinates,Original*%
%TF.FileFunction,Copper,L1,Top*%
%TF.FilePolarity,Positive*%
%FSLAX46Y46*%
G04 Gerber Fmt 4.6, Leading zero omitted, Abs format (unit mm)*
G04 Created by KiCad (PCBNEW (6.0.0)) date 2022-03-29 17:15:08*
%MOMM*%
%LPD*%
G01*
G04 APERTURE LIST*
G04 Aperture macros list*
%AMRoundRect*
0 Rectangle with rounded corners*
0 $1 Rounding radius*
0 $2 $3 $4 $5 $6 $7 $8 $9 X,Y pos of 4 corners*
0 Add a 4 corners polygon primitive as box body*
4,1,4,$2,$3,$4,$5,$6,$7,$8,$9,$2,$3,0*
0 Add four circle primitives for the rounded corners*
1,1,$1+$1,$2,$3*
1,1,$1+$1,$4,$5*
1,1,$1+$1,$6,$7*
1,1,$1+$1,$8,$9*
0 Add four rect primitives between the rounded corners*
20,1,$1+$1,$2,$3,$4,$5,0*
20,1,$1+$1,$4,$5,$6,$7,0*
20,1,$1+$1,$6,$7,$8,$9,0*
20,1,$1+$1,$8,$9,$2,$3,0*%
G04 Aperture macros list end*
%TA.AperFunction,SMDPad,CuDef*%
%ADD10RoundRect,0.020500X0.764500X0.184500X-0.764500X0.184500X-0.764500X-0.184500X0.764500X-0.184500X0*%
%TD*%
%TA.AperFunction,SMDPad,CuDef*%
%ADD11RoundRect,0.140000X0.140000X0.170000X-0.140000X0.170000X-0.140000X-0.170000X0.140000X-0.170000X0*%
%TD*%
%TA.AperFunction,SMDPad,CuDef*%
%ADD12R,0.600000X0.450000*%
%TD*%
%TA.AperFunction,SMDPad,CuDef*%
%ADD13C,1.000000*%
%TD*%
%TA.AperFunction,SMDPad,CuDef*%
%ADD14RoundRect,0.250000X0.312500X1.450000X-0.312500X1.450000X-0.312500X-1.450000X0.312500X-1.450000X0*%
%TD*%
%TA.AperFunction,SMDPad,CuDef*%
%ADD15RoundRect,0.140000X0.170000X-0.140000X0.170000X0.140000X-0.170000X0.140000X-0.170000X-0.140000X0*%
%TD*%
%TA.AperFunction,SMDPad,CuDef*%
%ADD16RoundRect,0.140000X-0.140000X-0.170000X0.140000X-0.170000X0.140000X0.170000X-0.140000X0.170000X0*%
%TD*%
%TA.AperFunction,SMDPad,CuDef*%
%ADD17RoundRect,0.135000X0.135000X0.185000X-0.135000X0.185000X-0.135000X-0.185000X0.135000X-0.185000X0*%
%TD*%
%TA.AperFunction,SMDPad,CuDef*%
%ADD18R,1.200000X0.300000*%
%TD*%
%TA.AperFunction,SMDPad,CuDef*%
%ADD19R,2.000000X1.800000*%
%TD*%
%TA.AperFunction,SMDPad,CuDef*%
%ADD20RoundRect,0.150000X0.512500X0.150000X-0.512500X0.150000X-0.512500X-0.150000X0.512500X-0.150000X0*%
%TD*%
%TA.AperFunction,SMDPad,CuDef*%
%ADD21RoundRect,0.250000X0.250000X0.475000X-0.250000X0.475000X-0.250000X-0.475000X0.250000X-0.475000X0*%
%TD*%
%TA.AperFunction,SMDPad,CuDef*%
%ADD22RoundRect,0.140000X-0.170000X0.140000X-0.170000X-0.140000X0.170000X-0.140000X0.170000X0.140000X0*%
%TD*%
%TA.AperFunction,SMDPad,CuDef*%
%ADD23RoundRect,0.150000X-0.587500X-0.150000X0.587500X-0.150000X0.587500X0.150000X-0.587500X0.150000X0*%
%TD*%
%TA.AperFunction,SMDPad,CuDef*%
%ADD24C,1.500000*%
%TD*%
%TA.AperFunction,ComponentPad*%
%ADD25R,1.700000X1.700000*%
%TD*%
%TA.AperFunction,ComponentPad*%
%ADD26O,1.700000X1.700000*%
%TD*%
%TA.AperFunction,ComponentPad*%
%ADD27C,3.500000*%
%TD*%
%TA.AperFunction,ViaPad*%
%ADD28C,0.800000*%
%TD*%
%TA.AperFunction,ViaPad*%
%ADD29C,2.000000*%
%TD*%
%TA.AperFunction,ViaPad*%
%ADD30C,1.000000*%
%TD*%
%TA.AperFunction,Conductor*%
%ADD31C,0.250000*%
%TD*%
%TA.AperFunction,Conductor*%
%ADD32C,0.500000*%
%TD*%
%TA.AperFunction,Conductor*%
%ADD33C,1.000000*%
%TD*%
G04 APERTURE END LIST*
D10*
%TO.P,U3,1,DIR*%
%TO.N,GND*%
X148720000Y-93575000D03*
%TO.P,U3,2,A1*%
%TO.N,/MOSI*%
X148720000Y-92925000D03*
%TO.P,U3,3,A2*%
%TO.N,/SCLK*%
X148720000Y-92275000D03*
%TO.P,U3,4,A3*%
%TO.N,/D{slash}C*%
X148720000Y-91625000D03*
%TO.P,U3,5,A4*%
%TO.N,/RESET*%
X148720000Y-90975000D03*
%TO.P,U3,6,A5*%
%TO.N,/CS*%
X148720000Y-90325000D03*
%TO.P,U3,7,A6*%
%TO.N,GND*%
X148720000Y-89675000D03*
%TO.P,U3,8,A7*%
X148720000Y-89025000D03*
%TO.P,U3,9,A8*%
X148720000Y-88375000D03*
%TO.P,U3,10,GND*%
X148720000Y-87725000D03*
%TO.P,U3,11,B8*%
X142980000Y-87725000D03*
%TO.P,U3,12,B7*%
X142980000Y-88375000D03*
%TO.P,U3,13,B6*%
X142980000Y-89025000D03*
%TO.P,U3,14,B5*%
%TO.N,/OLED_CS*%
X142980000Y-89675000D03*
%TO.P,U3,15,B4*%
%TO.N,/OLED_RST*%
X142980000Y-90325000D03*
%TO.P,U3,16,B3*%
%TO.N,/OLED_D{slash}C#*%
X142980000Y-90975000D03*
%TO.P,U3,17,B2*%
%TO.N,/OLED_SCLK*%
X142980000Y-91625000D03*
%TO.P,U3,18,B1*%
%TO.N,/OLED_MOSI*%
X142980000Y-92275000D03*
%TO.P,U3,19,~{OE}*%
%TO.N,GND*%
X142980000Y-92925000D03*
%TO.P,U3,20,VCC*%
%TO.N,+3V3*%
X142980000Y-93575000D03*
%TD*%
D11*
%TO.P,C1,1*%
%TO.N,GND*%
X136080000Y-88100000D03*
%TO.P,C1,2*%
%TO.N,VCC*%
X135120000Y-88100000D03*
%TD*%
D12*
%TO.P,D1,1,K*%
%TO.N,+16V*%
X125150000Y-86300000D03*
%TO.P,D1,2,A*%
%TO.N,Net-(D1-Pad2)*%
X127250000Y-86300000D03*
%TD*%
D13*
%TO.P,TP5,1,1*%
%TO.N,/OLED_SCLK*%
X97473529Y-83646250D03*
%TD*%
D14*
%TO.P,L1,1*%
%TO.N,VCC*%
X133237500Y-86000000D03*
%TO.P,L1,2*%
%TO.N,Net-(D1-Pad2)*%
X128962500Y-86000000D03*
%TD*%
D15*
%TO.P,C10,1*%
%TO.N,GND*%
X144450000Y-97330000D03*
%TO.P,C10,2*%
%TO.N,VCC*%
X144450000Y-96370000D03*
%TD*%
D16*
%TO.P,C7,1*%
%TO.N,GND*%
X110220000Y-83850000D03*
%TO.P,C7,2*%
%TO.N,+16V*%
X111180000Y-83850000D03*
%TD*%
D17*
%TO.P,R3,1*%
%TO.N,+16V*%
X125410000Y-83900000D03*
%TO.P,R3,2*%
%TO.N,Net-(R3-Pad2)*%
X124390000Y-83900000D03*
%TD*%
%TO.P,R4,1*%
%TO.N,Net-(R3-Pad2)*%
X122060000Y-83900000D03*
%TO.P,R4,2*%
%TO.N,GND*%
X121040000Y-83900000D03*
%TD*%
D18*
%TO.P,H1,1,VCC*%
%TO.N,+16V*%
X110410000Y-87500000D03*
%TO.P,H1,2,AGND*%
%TO.N,GND*%
X110410000Y-88000000D03*
%TO.P,H1,3,FR*%
%TO.N,/FRAME_SYNC*%
X110410000Y-88500000D03*
%TO.P,H1,4,CSB*%
%TO.N,/OLED_CS*%
X110410000Y-89000000D03*
%TO.P,H1,5,RSTB*%
%TO.N,/OLED_RST*%
X110410000Y-89500000D03*
%TO.P,H1,6,DC*%
%TO.N,/OLED_D{slash}C#*%
X110410000Y-90000000D03*
%TO.P,H1,7,SCLK*%
%TO.N,/OLED_SCLK*%
X110410000Y-90500000D03*
%TO.P,H1,8,SDIN*%
%TO.N,/OLED_MOSI*%
X110410000Y-91000000D03*
%TO.P,H1,9,GND*%
%TO.N,GND*%
X110410000Y-91500000D03*
%TO.P,H1,10,AGND*%
X110410000Y-92000000D03*
%TO.P,H1,11,VCI*%
%TO.N,+3V3*%
X110410000Y-92500000D03*
%TO.P,H1,12,VDD*%
%TO.N,Net-(C9-Pad1)*%
X110410000Y-93000000D03*
%TO.P,H1,13,VCOMH*%
%TO.N,Net-(C5-Pad1)*%
X110410000Y-93500000D03*
%TO.P,H1,14,VCC*%
%TO.N,+16V*%
X110410000Y-94000000D03*
D19*
%TO.P,H1,15*%
%TO.N,N/C*%
X107240000Y-95650000D03*
%TO.P,H1,16*%
X107240000Y-85850000D03*
%TD*%
D13*
%TO.P,TP3,1,1*%
%TO.N,/OLED_D{slash}C#*%
X99650000Y-83646250D03*
%TD*%
D11*
%TO.P,C3,1*%
%TO.N,GND*%
X136080000Y-85300000D03*
%TO.P,C3,2*%
%TO.N,VCC*%
X135120000Y-85300000D03*
%TD*%
D20*
%TO.P,U1,1,SW*%
%TO.N,Net-(D1-Pad2)*%
X122187500Y-87300000D03*
%TO.P,U1,2,GND*%
%TO.N,GND*%
X122187500Y-86350000D03*
%TO.P,U1,3,FB*%
%TO.N,Net-(R3-Pad2)*%
X122187500Y-85400000D03*
%TO.P,U1,4,EN*%
%TO.N,VCC*%
X119912500Y-85400000D03*
%TO.P,U1,5,IN*%
X119912500Y-86350000D03*
%TO.P,U1,6,NC*%
%TO.N,unconnected-(U1-Pad6)*%
X119912500Y-87300000D03*
%TD*%
D11*
%TO.P,C6,1*%
%TO.N,GND*%
X115380000Y-97500000D03*
%TO.P,C6,2*%
%TO.N,+16V*%
X114420000Y-97500000D03*
%TD*%
D21*
%TO.P,C4,1*%
%TO.N,GND*%
X115150000Y-84100000D03*
%TO.P,C4,2*%
%TO.N,+16V*%
X113250000Y-84100000D03*
%TD*%
D13*
%TO.P,TP4,1,1*%
%TO.N,/OLED_CS*%
X104250000Y-83646250D03*
%TD*%
%TO.P,TP2,1,1*%
%TO.N,/OLED_RST*%
X101950000Y-83646250D03*
%TD*%
%TO.P,TP7,1,1*%
%TO.N,/FRAME_SYNC*%
X106480000Y-83646250D03*
%TD*%
D22*
%TO.P,C8,1*%
%TO.N,+3V3*%
X118100000Y-93220000D03*
%TO.P,C8,2*%
%TO.N,GND*%
X118100000Y-94180000D03*
%TD*%
D11*
%TO.P,C2,1*%
%TO.N,GND*%
X136080000Y-86700000D03*
%TO.P,C2,2*%
%TO.N,VCC*%
X135120000Y-86700000D03*
%TD*%
D16*
%TO.P,C5,1*%
%TO.N,Net-(C5-Pad1)*%
X117520000Y-97450000D03*
%TO.P,C5,2*%
%TO.N,GND*%
X118480000Y-97450000D03*
%TD*%
D13*
%TO.P,TP6,1,1*%
%TO.N,/OLED_MOSI*%
X95165000Y-83675000D03*
%TD*%
D23*
%TO.P,U2,1,GND*%
%TO.N,GND*%
X135562500Y-95350000D03*
%TO.P,U2,2,VO*%
%TO.N,+3V3*%
X135562500Y-97250000D03*
%TO.P,U2,3,VI*%
%TO.N,VCC*%
X137437500Y-96300000D03*
%TD*%
D15*
%TO.P,C12,1*%
%TO.N,GND*%
X140200000Y-94580000D03*
%TO.P,C12,2*%
%TO.N,+3V3*%
X140200000Y-93620000D03*
%TD*%
D16*
%TO.P,C9,1*%
%TO.N,Net-(C9-Pad1)*%
X117520000Y-96000000D03*
%TO.P,C9,2*%
%TO.N,GND*%
X118480000Y-96000000D03*
%TD*%
D24*
%TO.P,TP1,1,1*%
%TO.N,+16V*%
X111900000Y-97950000D03*
%TD*%
D25*
%TO.P,J1,1,Pin_1*%
%TO.N,GND*%
X156860000Y-86750000D03*
D26*
%TO.P,J1,2,Pin_2*%
%TO.N,VCC*%
X156860000Y-89290000D03*
%TO.P,J1,3,Pin_3*%
%TO.N,/RESET*%
X156860000Y-91830000D03*
%TO.P,J1,4,Pin_4*%
%TO.N,/CS*%
X159400000Y-86750000D03*
%TO.P,J1,5,Pin_5*%
%TO.N,/D{slash}C*%
X159400000Y-89290000D03*
%TO.P,J1,6,Pin_6*%
%TO.N,/SCLK*%
X159400000Y-91830000D03*
%TO.P,J1,7,Pin_7*%
%TO.N,/MOSI*%
X159400000Y-94370000D03*
%TD*%
D15*
%TO.P,C11,1*%
%TO.N,GND*%
X128650000Y-94180000D03*
%TO.P,C11,2*%
%TO.N,+3V3*%
X128650000Y-93220000D03*
%TD*%
D27*
%TO.P,MH4,1,1*%
%TO.N,GND*%
X162950000Y-84650000D03*
%TD*%
%TO.P,MH1,1,1*%
%TO.N,GND*%
X91450000Y-97150000D03*
%TD*%
%TO.P,MH3,1,1*%
%TO.N,GND*%
X162950000Y-97150000D03*
%TD*%
%TO.P,MH2,1,1*%
%TO.N,GND*%
X91450000Y-84650000D03*
%TD*%
D28*
%TO.N,GND*%
X122288196Y-89500000D03*
X136300000Y-82560414D03*
X138300000Y-86000000D03*
X137300000Y-86000000D03*
X134298300Y-89500000D03*
X136300000Y-83550000D03*
X123289038Y-89500000D03*
X124289880Y-89500000D03*
X135299142Y-89500000D03*
X116350000Y-87850000D03*
X117283986Y-89500000D03*
X116350000Y-82750000D03*
X133297458Y-89500000D03*
X118284828Y-89500000D03*
X126291564Y-89500000D03*
X125290722Y-89500000D03*
X130294932Y-89500000D03*
X120286512Y-89500000D03*
D29*
X96500000Y-97350000D03*
D28*
X116300000Y-85900000D03*
X123700000Y-86350000D03*
X129294090Y-89500000D03*
X128293248Y-89500000D03*
X121287354Y-89500000D03*
X131295774Y-89500000D03*
X119285670Y-89500000D03*
D29*
X154400000Y-98250000D03*
D28*
X137300000Y-83500000D03*
X127292406Y-89500000D03*
X116350000Y-88750000D03*
D29*
X154300000Y-83950000D03*
D28*
X132296616Y-89500000D03*
X138300000Y-83500000D03*
%TO.N,+16V*%
X111900000Y-84850000D03*
X112600000Y-95950000D03*
X127050000Y-83900000D03*
D30*
%TO.N,VCC*%
X134650000Y-83900000D03*
D28*
X153925000Y-88375000D03*
X153400000Y-96400000D03*
%TD*%
D31*
%TO.N,GND*%
X110650000Y-91500000D02*
X110650000Y-92000000D01*
X121050000Y-83910000D02*
X121040000Y-83900000D01*
X121600000Y-86350000D02*
X121050000Y-85800000D01*
X121050000Y-85800000D02*
X121050000Y-83910000D01*
X121600000Y-86350000D02*
X123700000Y-86350000D01*
D32*
%TO.N,+3V3*%
X132850000Y-93200000D02*
X128670000Y-93200000D01*
X134200000Y-95887500D02*
X133250000Y-94937500D01*
X133200000Y-93550000D02*
X132850000Y-93200000D01*
X115170000Y-93220000D02*
X118100000Y-93220000D01*
D31*
X142217800Y-93571000D02*
X140249000Y-93571000D01*
D32*
X135727151Y-93600000D02*
X134300000Y-95027151D01*
X140080000Y-93600000D02*
X135727151Y-93600000D01*
X114500000Y-92550000D02*
X115170000Y-93220000D01*
X134300000Y-95027151D02*
X134300000Y-95950000D01*
X133250000Y-93600000D02*
X133250000Y-94937500D01*
X134200000Y-95887500D02*
X135662500Y-97350000D01*
D31*
X133200000Y-93550000D02*
X133225000Y-93575000D01*
D32*
X133200000Y-93550000D02*
X133250000Y-93600000D01*
D31*
X114500000Y-92500000D02*
X110650000Y-92500000D01*
D32*
X128650000Y-93220000D02*
X118100000Y-93220000D01*
%TO.N,+16V*%
X112200000Y-86900000D02*
X112157000Y-86943000D01*
D33*
X111900000Y-84850000D02*
X111900000Y-84500000D01*
D32*
X112300000Y-96050000D02*
X112970000Y-96050000D01*
X125410000Y-83900000D02*
X125150000Y-84160000D01*
D33*
X112500000Y-84850000D02*
X113250000Y-84100000D01*
D32*
X112970000Y-96050000D02*
X114420000Y-97500000D01*
X112600000Y-96800000D02*
X111450000Y-97950000D01*
D33*
X111900000Y-84850000D02*
X112200000Y-85150000D01*
X112200000Y-85150000D02*
X112200000Y-86900000D01*
D32*
X125150000Y-84160000D02*
X125150000Y-86300000D01*
X112157000Y-86943000D02*
X110650000Y-86943000D01*
D33*
X111900000Y-84500000D02*
X111300000Y-83900000D01*
D32*
X110650000Y-94400000D02*
X110650000Y-94099511D01*
X112600000Y-95950000D02*
X112600000Y-96800000D01*
X127050000Y-83900000D02*
X125410000Y-83900000D01*
D33*
X111900000Y-84850000D02*
X112500000Y-84850000D01*
D31*
X110650000Y-86943000D02*
X110650000Y-87425480D01*
D32*
X110650000Y-94400000D02*
X112300000Y-96050000D01*
X111180000Y-83900000D02*
X111300000Y-83900000D01*
D31*
%TO.N,Net-(C9-Pad1)*%
X114000000Y-93000000D02*
X110650000Y-93000000D01*
X117520000Y-96000000D02*
X117000000Y-96000000D01*
X117000000Y-96000000D02*
X114000000Y-93000000D01*
%TO.N,/FRAME_SYNC*%
X108900000Y-84600000D02*
X108900000Y-87889022D01*
X107946250Y-83646250D02*
X108900000Y-84600000D01*
X109510978Y-88500000D02*
X110650000Y-88500000D01*
X108900000Y-87889022D02*
X109510978Y-88500000D01*
X106480000Y-83646250D02*
X107946250Y-83646250D01*
%TO.N,Net-(D1-Pad2)*%
X127150000Y-86300000D02*
X128662500Y-86300000D01*
X128962500Y-86000000D02*
X127312500Y-87650000D01*
X124000000Y-87300000D02*
X122187500Y-87300000D01*
X127312500Y-87650000D02*
X124350000Y-87650000D01*
X124350000Y-87650000D02*
X124000000Y-87300000D01*
%TO.N,/OLED_MOSI*%
X115689459Y-92022591D02*
X114666868Y-91000000D01*
X114666868Y-91000000D02*
X101481372Y-91000000D01*
X101481372Y-91000000D02*
X95165000Y-84683628D01*
X141320798Y-92275600D02*
X141067789Y-92022591D01*
X142217800Y-92275600D02*
X141320798Y-92275600D01*
X141067789Y-92022591D02*
X115689459Y-92022591D01*
X95165000Y-84683628D02*
X95165000Y-83675000D01*
%TO.N,/OLED_SCLK*%
X142105760Y-91625000D02*
X142053831Y-91573071D01*
X114865820Y-90500000D02*
X103173529Y-90500000D01*
X97473529Y-84800000D02*
X97473529Y-83646250D01*
X115938892Y-91573071D02*
X114865820Y-90500000D01*
X103173529Y-90500000D02*
X97473529Y-84800000D01*
X142053831Y-91573071D02*
X115938892Y-91573071D01*
%TO.N,Net-(R3-Pad2)*%
X122212500Y-85477500D02*
X123422500Y-85477500D01*
X123422500Y-85477500D02*
X124390000Y-84510000D01*
X122060000Y-84050000D02*
X122060000Y-85272500D01*
X124390000Y-84510000D02*
X124390000Y-83900000D01*
X122060000Y-85272500D02*
X122187500Y-85400000D01*
%TO.N,/OLED_D{slash}C#*%
X99650000Y-84850000D02*
X99650000Y-83646250D01*
X116125089Y-91123551D02*
X115001538Y-90000000D01*
X115001538Y-90000000D02*
X104800000Y-90000000D01*
X142120042Y-90975000D02*
X142045042Y-90900000D01*
X142045042Y-90900000D02*
X136696050Y-90900000D01*
X136472498Y-91123551D02*
X116125089Y-91123551D01*
X104800000Y-90000000D02*
X99650000Y-84850000D01*
X136696050Y-90900000D02*
X136472498Y-91123551D01*
D32*
%TO.N,VCC*%
X155945000Y-88375000D02*
X153925000Y-88375000D01*
X156860000Y-89290000D02*
X155945000Y-88375000D01*
X153400000Y-96400000D02*
X137537500Y-96400000D01*
X137537500Y-96400000D02*
X137437500Y-96300000D01*
D31*
%TO.N,/OLED_RST*%
X106600480Y-89550480D02*
X101950000Y-84900000D01*
X101950000Y-84900000D02*
X101950000Y-83646250D01*
X136635332Y-90325000D02*
X136286301Y-90674031D01*
X136286301Y-90674031D02*
X116355159Y-90674031D01*
X115181128Y-89500000D02*
X109435718Y-89500000D01*
X116355159Y-90674031D02*
X115181128Y-89500000D01*
X109385238Y-89550480D02*
X106600480Y-89550480D01*
X109435718Y-89500000D02*
X109385238Y-89550480D01*
X142980000Y-90325000D02*
X136635332Y-90325000D01*
%TO.N,/OLED_CS*%
X115325000Y-89000000D02*
X107425000Y-89000000D01*
X104250000Y-85825000D02*
X104250000Y-83646250D01*
X116549511Y-90224511D02*
X115325000Y-89000000D01*
X107425000Y-89000000D02*
X104250000Y-85825000D01*
X142980000Y-89675000D02*
X136649614Y-89675000D01*
X136649614Y-89675000D02*
X136100103Y-90224511D01*
X136100103Y-90224511D02*
X116549511Y-90224511D01*
%TO.N,/RESET*%
X151580000Y-91830000D02*
X150725000Y-90975000D01*
X150725000Y-90975000D02*
X148720000Y-90975000D01*
X156860000Y-91830000D02*
X151580000Y-91830000D01*
%TO.N,/D{slash}C*%
X158034511Y-90655489D02*
X158034511Y-92316499D01*
X158034511Y-92316499D02*
X157201010Y-93150000D01*
X150675000Y-91625000D02*
X148720000Y-91625000D01*
X159400000Y-89290000D02*
X158034511Y-90655489D01*
X157201010Y-93150000D02*
X152200000Y-93150000D01*
X152200000Y-93150000D02*
X150675000Y-91625000D01*
%TO.N,/CS*%
X158034511Y-89776499D02*
X157311010Y-90500000D01*
X150640000Y-90500000D02*
X150465000Y-90325000D01*
X150465000Y-90325000D02*
X148720000Y-90325000D01*
X159400000Y-86750000D02*
X158034511Y-88115489D01*
X158034511Y-88115489D02*
X158034511Y-89776499D01*
X157311010Y-90500000D02*
X150640000Y-90500000D01*
%TO.N,/MOSI*%
X151991700Y-94370000D02*
X159400000Y-94370000D01*
X149482200Y-92936000D02*
X150557700Y-92936000D01*
X150557700Y-92936000D02*
X151991700Y-94370000D01*
%TO.N,/SCLK*%
X150689282Y-92275000D02*
X148720000Y-92275000D01*
X152013802Y-93599520D02*
X150689282Y-92275000D01*
X157630480Y-93599520D02*
X152013802Y-93599520D01*
X159400000Y-91830000D02*
X157630480Y-93599520D01*
%TO.N,Net-(C5-Pad1)*%
X113570000Y-93500000D02*
X117520000Y-97450000D01*
X110650000Y-93500000D02*
X113570000Y-93500000D01*
%TD*%
%TA.AperFunction,Conductor*%
%TO.N,GND*%
G36*
X116742121Y-82128002D02*
G01*
X116788614Y-82181658D01*
X116800000Y-82234000D01*
X116800000Y-89000000D01*
X135800000Y-89000000D01*
X135800000Y-88879885D01*
X141987000Y-88879885D01*
X141991475Y-88895124D01*
X141992865Y-88896329D01*
X142000548Y-88898000D01*
X142834885Y-88898000D01*
X142850124Y-88893525D01*
X142851329Y-88892135D01*
X142853000Y-88884452D01*
X142853000Y-88879885D01*
X143107000Y-88879885D01*
X143111475Y-88895124D01*
X143112865Y-88896329D01*
X143120548Y-88898000D01*
X143954885Y-88898000D01*
X143970124Y-88893525D01*
X143971329Y-88892135D01*
X143973000Y-88884452D01*
X143973000Y-88879885D01*
X147727000Y-88879885D01*
X147731475Y-88895124D01*
X147732865Y-88896329D01*
X147740548Y-88898000D01*
X148574885Y-88898000D01*
X148590124Y-88893525D01*
X148591329Y-88892135D01*
X148593000Y-88884452D01*
X148593000Y-88879885D01*
X148847000Y-88879885D01*
X148851475Y-88895124D01*
X148852865Y-88896329D01*
X148860548Y-88898000D01*
X149694885Y-88898000D01*
X149710124Y-88893525D01*
X149711329Y-88892135D01*
X149713000Y-88884452D01*
X149713000Y-88824179D01*
X149711793Y-88811924D01*
X149702164Y-88763516D01*
X149695828Y-88748220D01*
X149688238Y-88677630D01*
X149695828Y-88651780D01*
X149702164Y-88636484D01*
X149711793Y-88588076D01*
X149713000Y-88575821D01*
X149713000Y-88520115D01*
X149708525Y-88504876D01*
X149707135Y-88503671D01*
X149699452Y-88502000D01*
X148865115Y-88502000D01*
X148849876Y-88506475D01*
X148848671Y-88507865D01*
X148847000Y-88515548D01*
X148847000Y-88879885D01*
X148593000Y-88879885D01*
X148593000Y-88520115D01*
X148588525Y-88504876D01*
X148587135Y-88503671D01*
X148579452Y-88502000D01*
X147745115Y-88502000D01*
X147729876Y-88506475D01*
X147728671Y-88507865D01*
X147727000Y-88515548D01*
X147727000Y-88575821D01*
X147728207Y-88588076D01*
X147737836Y-88636484D01*
X147744172Y-88651780D01*
X147751762Y-88722370D01*
X147744172Y-88748220D01*
X147737836Y-88763516D01*
X147728207Y-88811924D01*
X147727000Y-88824179D01*
X147727000Y-88879885D01*
X143973000Y-88879885D01*
X143973000Y-88824179D01*
X143971793Y-88811924D01*
X143962164Y-88763516D01*
X143955828Y-88748220D01*
X143948238Y-88677630D01*
X143955828Y-88651780D01*
X143962164Y-88636484D01*
X143971793Y-88588076D01*
X143973000Y-88575821D01*
X143973000Y-88520115D01*
X143968525Y-88504876D01*
X143967135Y-88503671D01*
X143959452Y-88502000D01*
X143125115Y-88502000D01*
X143109876Y-88506475D01*
X143108671Y-88507865D01*
X143107000Y-88515548D01*
X143107000Y-88879885D01*
X142853000Y-88879885D01*
X142853000Y-88520115D01*
X142848525Y-88504876D01*
X142847135Y-88503671D01*
X142839452Y-88502000D01*
X142005115Y-88502000D01*
X141989876Y-88506475D01*
X141988671Y-88507865D01*
X141987000Y-88515548D01*
X141987000Y-88575821D01*
X141988207Y-88588076D01*
X141997836Y-88636484D01*
X142004172Y-88651780D01*
X142011762Y-88722370D01*
X142004172Y-88748220D01*
X141997836Y-88763516D01*
X141988207Y-88811924D01*
X141987000Y-88824179D01*
X141987000Y-88879885D01*
X135800000Y-88879885D01*
X135800000Y-88744000D01*
X135820002Y-88675879D01*
X135873658Y-88629386D01*
X135926000Y-88618000D01*
X135934885Y-88618000D01*
X135950124Y-88613525D01*
X135951329Y-88612135D01*
X135953000Y-88604452D01*
X135953000Y-88599885D01*
X136207000Y-88599885D01*
X136211475Y-88615124D01*
X136212865Y-88616329D01*
X136220548Y-88618000D01*
X136248380Y-88618000D01*
X136257539Y-88617330D01*
X136311695Y-88609357D01*
X136330177Y-88603614D01*
X136416031Y-88561462D01*
X136432736Y-88549503D01*
X136499872Y-88482250D01*
X136511804Y-88465522D01*
X136553812Y-88379582D01*
X136559520Y-88361115D01*
X136567340Y-88307513D01*
X136568000Y-88298413D01*
X136568000Y-88245115D01*
X136563528Y-88229885D01*
X141987000Y-88229885D01*
X141991475Y-88245124D01*
X141992865Y-88246329D01*
X142000548Y-88248000D01*
X142834885Y-88248000D01*
X142850124Y-88243525D01*
X142851329Y-88242135D01*
X142853000Y-88234452D01*
X142853000Y-88229885D01*
X143107000Y-88229885D01*
X143111475Y-88245124D01*
X143112865Y-88246329D01*
X143120548Y-88248000D01*
X143954885Y-88248000D01*
X143970124Y-88243525D01*
X143971329Y-88242135D01*
X143973000Y-88234452D01*
X143973000Y-88229885D01*
X147727000Y-88229885D01*
X147731475Y-88245124D01*
X147732865Y-88246329D01*
X147740548Y-88248000D01*
X148574885Y-88248000D01*
X148590124Y-88243525D01*
X148591329Y-88242135D01*
X148593000Y-88234452D01*
X148593000Y-88229885D01*
X148847000Y-88229885D01*
X148851475Y-88245124D01*
X148852865Y-88246329D01*
X148860548Y-88248000D01*
X149694885Y-88248000D01*
X149710124Y-88243525D01*
X149711329Y-88242135D01*
X149713000Y-88234452D01*
X149713000Y-88174179D01*
X149711793Y-88161924D01*
X149702164Y-88113516D01*
X149695828Y-88098220D01*
X149688238Y-88027630D01*
X149695828Y-88001780D01*
X149702164Y-87986484D01*
X149711793Y-87938076D01*
X149713000Y-87925821D01*
X149713000Y-87870115D01*
X149708525Y-87854876D01*
X149707135Y-87853671D01*
X149699452Y-87852000D01*
X148865115Y-87852000D01*
X148849876Y-87856475D01*
X148848671Y-87857865D01*
X148847000Y-87865548D01*
X148847000Y-88229885D01*
X148593000Y-88229885D01*
X148593000Y-87870115D01*
X148588525Y-87854876D01*
X148587135Y-87853671D01*
X148579452Y-87852000D01*
X147745115Y-87852000D01*
X147729876Y-87856475D01*
X147728671Y-87857865D01*
X147727000Y-87865548D01*
X147727000Y-87925821D01*
X147728207Y-87938076D01*
X147737836Y-87986484D01*
X147744172Y-88001780D01*
X147751762Y-88072370D01*
X147744172Y-88098220D01*
X147737836Y-88113516D01*
X147728207Y-88161924D01*
X147727000Y-88174179D01*
X147727000Y-88229885D01*
X143973000Y-88229885D01*
X143973000Y-88174179D01*
X143971793Y-88161924D01*
X143962164Y-88113516D01*
X143955828Y-88098220D01*
X143948238Y-88027630D01*
X143955828Y-88001780D01*
X143962164Y-87986484D01*
X143971793Y-87938076D01*
X143973000Y-87925821D01*
X143973000Y-87870115D01*
X143968525Y-87854876D01*
X143967135Y-87853671D01*
X143959452Y-87852000D01*
X143125115Y-87852000D01*
X143109876Y-87856475D01*
X143108671Y-87857865D01*
X143107000Y-87865548D01*
X143107000Y-88229885D01*
X142853000Y-88229885D01*
X142853000Y-87870115D01*
X142848525Y-87854876D01*
X142847135Y-87853671D01*
X142839452Y-87852000D01*
X142005115Y-87852000D01*
X141989876Y-87856475D01*
X141988671Y-87857865D01*
X141987000Y-87865548D01*
X141987000Y-87925821D01*
X141988207Y-87938076D01*
X141997836Y-87986484D01*
X142004172Y-88001780D01*
X142011762Y-88072370D01*
X142004172Y-88098220D01*
X141997836Y-88113516D01*
X141988207Y-88161924D01*
X141987000Y-88174179D01*
X141987000Y-88229885D01*
X136563528Y-88229885D01*
X136563525Y-88229876D01*
X136562135Y-88228671D01*
X136554452Y-88227000D01*
X136225115Y-88227000D01*
X136209876Y-88231475D01*
X136208671Y-88232865D01*
X136207000Y-88240548D01*
X136207000Y-88599885D01*
X135953000Y-88599885D01*
X135953000Y-87954885D01*
X136207000Y-87954885D01*
X136211475Y-87970124D01*
X136212865Y-87971329D01*
X136220548Y-87973000D01*
X136549885Y-87973000D01*
X136565124Y-87968525D01*
X136566329Y-87967135D01*
X136568000Y-87959452D01*
X136568000Y-87901620D01*
X136567330Y-87892461D01*
X136559357Y-87838305D01*
X136553614Y-87819823D01*
X136511462Y-87733969D01*
X136499503Y-87717264D01*
X136432250Y-87650128D01*
X136415522Y-87638196D01*
X136329582Y-87596188D01*
X136311115Y-87590480D01*
X136257513Y-87582660D01*
X136248413Y-87582000D01*
X136225115Y-87582000D01*
X136209876Y-87586475D01*
X136208671Y-87587865D01*
X136207000Y-87595548D01*
X136207000Y-87954885D01*
X135953000Y-87954885D01*
X135953000Y-87600115D01*
X135948525Y-87584876D01*
X135947135Y-87583671D01*
X135939452Y-87582000D01*
X135926000Y-87582000D01*
X135918797Y-87579885D01*
X141987000Y-87579885D01*
X141991475Y-87595124D01*
X141992865Y-87596329D01*
X142000548Y-87598000D01*
X142834885Y-87598000D01*
X142850124Y-87593525D01*
X142851329Y-87592135D01*
X142853000Y-87584452D01*
X142853000Y-87579885D01*
X143107000Y-87579885D01*
X143111475Y-87595124D01*
X143112865Y-87596329D01*
X143120548Y-87598000D01*
X143954885Y-87598000D01*
X143970124Y-87593525D01*
X143971329Y-87592135D01*
X143973000Y-87584452D01*
X143973000Y-87579885D01*
X147727000Y-87579885D01*
X147731475Y-87595124D01*
X147732865Y-87596329D01*
X147740548Y-87598000D01*
X148574885Y-87598000D01*
X148590124Y-87593525D01*
X148591329Y-87592135D01*
X148593000Y-87584452D01*
X148593000Y-87579885D01*
X148847000Y-87579885D01*
X148851475Y-87595124D01*
X148852865Y-87596329D01*
X148860548Y-87598000D01*
X149694885Y-87598000D01*
X149710124Y-87593525D01*
X149711329Y-87592135D01*
X149713000Y-87584452D01*
X149713000Y-87524179D01*
X149711793Y-87511924D01*
X149702164Y-87463514D01*
X149692850Y-87441028D01*
X149656133Y-87386076D01*
X149638924Y-87368867D01*
X149583972Y-87332150D01*
X149561486Y-87322836D01*
X149513076Y-87313207D01*
X149500821Y-87312000D01*
X148865115Y-87312000D01*
X148849876Y-87316475D01*
X148848671Y-87317865D01*
X148847000Y-87325548D01*
X148847000Y-87579885D01*
X148593000Y-87579885D01*
X148593000Y-87330115D01*
X148588525Y-87314876D01*
X148587135Y-87313671D01*
X148579452Y-87312000D01*
X147939179Y-87312000D01*
X147926924Y-87313207D01*
X147878514Y-87322836D01*
X147856028Y-87332150D01*
X147801076Y-87368867D01*
X147783867Y-87386076D01*
X147747150Y-87441028D01*
X147737836Y-87463514D01*
X147728207Y-87511924D01*
X147727000Y-87524179D01*
X147727000Y-87579885D01*
X143973000Y-87579885D01*
X143973000Y-87524179D01*
X143971793Y-87511924D01*
X143962164Y-87463514D01*
X143952850Y-87441028D01*
X143916133Y-87386076D01*
X143898924Y-87368867D01*
X143843972Y-87332150D01*
X143821486Y-87322836D01*
X143773076Y-87313207D01*
X143760821Y-87312000D01*
X143125115Y-87312000D01*
X143109876Y-87316475D01*
X143108671Y-87317865D01*
X143107000Y-87325548D01*
X143107000Y-87579885D01*
X142853000Y-87579885D01*
X142853000Y-87330115D01*
X142848525Y-87314876D01*
X142847135Y-87313671D01*
X142839452Y-87312000D01*
X142199179Y-87312000D01*
X142186924Y-87313207D01*
X142138514Y-87322836D01*
X142116028Y-87332150D01*
X142061076Y-87368867D01*
X142043867Y-87386076D01*
X142007150Y-87441028D01*
X141997836Y-87463514D01*
X141988207Y-87511924D01*
X141987000Y-87524179D01*
X141987000Y-87579885D01*
X135918797Y-87579885D01*
X135857879Y-87561998D01*
X135811386Y-87508342D01*
X135800000Y-87456000D01*
X135800000Y-87344000D01*
X135820002Y-87275879D01*
X135873658Y-87229386D01*
X135926000Y-87218000D01*
X135934885Y-87218000D01*
X135950124Y-87213525D01*
X135951329Y-87212135D01*
X135953000Y-87204452D01*
X135953000Y-87199885D01*
X136207000Y-87199885D01*
X136211475Y-87215124D01*
X136212865Y-87216329D01*
X136220548Y-87218000D01*
X136248380Y-87218000D01*
X136257539Y-87217330D01*
X136311695Y-87209357D01*
X136330177Y-87203614D01*
X136416031Y-87161462D01*
X136432736Y-87149503D01*
X136499872Y-87082250D01*
X136511804Y-87065522D01*
X136553812Y-86979582D01*
X136559520Y-86961115D01*
X136567340Y-86907513D01*
X136568000Y-86898413D01*
X136568000Y-86845115D01*
X136563525Y-86829876D01*
X136562135Y-86828671D01*
X136554452Y-86827000D01*
X136225115Y-86827000D01*
X136209876Y-86831475D01*
X136208671Y-86832865D01*
X136207000Y-86840548D01*
X136207000Y-87199885D01*
X135953000Y-87199885D01*
X135953000Y-86604885D01*
X155802000Y-86604885D01*
X155806475Y-86620124D01*
X155807865Y-86621329D01*
X155815548Y-86623000D01*
X156714885Y-86623000D01*
X156730124Y-86618525D01*
X156731329Y-86617135D01*
X156733000Y-86609452D01*
X156733000Y-86604885D01*
X156987000Y-86604885D01*
X156991475Y-86620124D01*
X156992865Y-86621329D01*
X157000548Y-86623000D01*
X157899884Y-86623000D01*
X157915123Y-86618525D01*
X157916328Y-86617135D01*
X157917999Y-86609452D01*
X157917999Y-85885702D01*
X157916791Y-85873442D01*
X157908353Y-85831017D01*
X157899036Y-85808521D01*
X157866853Y-85760356D01*
X157849644Y-85743147D01*
X157801477Y-85710963D01*
X157778986Y-85701647D01*
X157736555Y-85693207D01*
X157724300Y-85692000D01*
X157005115Y-85692000D01*
X156989876Y-85696475D01*
X156988671Y-85697865D01*
X156987000Y-85705548D01*
X156987000Y-86604885D01*
X156733000Y-86604885D01*
X156733000Y-85710116D01*
X156728525Y-85694877D01*
X156727135Y-85693672D01*
X156719452Y-85692001D01*
X155995702Y-85692001D01*
X155983442Y-85693209D01*
X155941017Y-85701647D01*
X155918521Y-85710964D01*
X155870356Y-85743147D01*
X155853147Y-85760356D01*
X155820963Y-85808523D01*
X155811647Y-85831014D01*
X155803207Y-85873445D01*
X155802000Y-85885700D01*
X155802000Y-86604885D01*
X135953000Y-86604885D01*
X135953000Y-86554885D01*
X136207000Y-86554885D01*
X136211475Y-86570124D01*
X136212865Y-86571329D01*
X136220548Y-86573000D01*
X136549885Y-86573000D01*
X136565124Y-86568525D01*
X136566329Y-86567135D01*
X136568000Y-86559452D01*
X136568000Y-86501620D01*
X136567330Y-86492461D01*
X136559357Y-86438305D01*
X136553614Y-86419823D01*
X136511462Y-86333969D01*
X136499503Y-86317264D01*
X136432250Y-86250128D01*
X136415522Y-86238196D01*
X136329582Y-86196188D01*
X136311115Y-86190480D01*
X136257513Y-86182660D01*
X136248413Y-86182000D01*
X136225115Y-86182000D01*
X136209876Y-86186475D01*
X136208671Y-86187865D01*
X136207000Y-86195548D01*
X136207000Y-86554885D01*
X135953000Y-86554885D01*
X135953000Y-86200115D01*
X135948525Y-86184876D01*
X135947135Y-86183671D01*
X135939452Y-86182000D01*
X135926000Y-86182000D01*
X135857879Y-86161998D01*
X135811386Y-86108342D01*
X135800000Y-86056000D01*
X135800000Y-85944000D01*
X135820002Y-85875879D01*
X135873658Y-85829386D01*
X135926000Y-85818000D01*
X135934885Y-85818000D01*
X135950124Y-85813525D01*
X135951329Y-85812135D01*
X135953000Y-85804452D01*
X135953000Y-85799885D01*
X136207000Y-85799885D01*
X136211475Y-85815124D01*
X136212865Y-85816329D01*
X136220548Y-85818000D01*
X136248380Y-85818000D01*
X136257539Y-85817330D01*
X136311695Y-85809357D01*
X136330177Y-85803614D01*
X136416031Y-85761462D01*
X136432736Y-85749503D01*
X136499872Y-85682250D01*
X136511804Y-85665522D01*
X136553812Y-85579582D01*
X136559520Y-85561115D01*
X136567340Y-85507513D01*
X136568000Y-85498413D01*
X136568000Y-85445115D01*
X136563525Y-85429876D01*
X136562135Y-85428671D01*
X136554452Y-85427000D01*
X136225115Y-85427000D01*
X136209876Y-85431475D01*
X136208671Y-85432865D01*
X136207000Y-85440548D01*
X136207000Y-85799885D01*
X135953000Y-85799885D01*
X135953000Y-85154885D01*
X136207000Y-85154885D01*
X136211475Y-85170124D01*
X136212865Y-85171329D01*
X136220548Y-85173000D01*
X136549885Y-85173000D01*
X136565124Y-85168525D01*
X136566329Y-85167135D01*
X136568000Y-85159452D01*
X136568000Y-85101620D01*
X136567330Y-85092461D01*
X136559357Y-85038305D01*
X136553614Y-85019823D01*
X136511462Y-84933969D01*
X136499503Y-84917264D01*
X136432250Y-84850128D01*
X136415522Y-84838196D01*
X136329582Y-84796188D01*
X136311115Y-84790480D01*
X136257513Y-84782660D01*
X136248413Y-84782000D01*
X136225115Y-84782000D01*
X136209876Y-84786475D01*
X136208671Y-84787865D01*
X136207000Y-84795548D01*
X136207000Y-85154885D01*
X135953000Y-85154885D01*
X135953000Y-84800115D01*
X135948525Y-84784876D01*
X135947135Y-84783671D01*
X135939452Y-84782000D01*
X135926000Y-84782000D01*
X135857879Y-84761998D01*
X135811386Y-84708342D01*
X135800000Y-84656000D01*
X135800000Y-84592793D01*
X160988142Y-84592793D01*
X160998678Y-84860960D01*
X160999653Y-84869789D01*
X161047869Y-85133799D01*
X161050078Y-85142401D01*
X161135012Y-85396979D01*
X161138416Y-85405196D01*
X161258373Y-85645269D01*
X161262891Y-85652908D01*
X161415480Y-85873687D01*
X161421043Y-85880629D01*
X161465773Y-85929018D01*
X161479407Y-85937173D01*
X161479926Y-85937157D01*
X161488536Y-85931859D01*
X162757583Y-84662812D01*
X162763961Y-84651132D01*
X163134803Y-84651132D01*
X163134934Y-84652965D01*
X163139185Y-84659580D01*
X164408982Y-85929377D01*
X164422382Y-85936694D01*
X164432287Y-85929706D01*
X164535237Y-85807232D01*
X164540457Y-85800047D01*
X164682480Y-85572321D01*
X164686632Y-85564481D01*
X164795151Y-85319014D01*
X164798161Y-85310653D01*
X164871005Y-85052365D01*
X164872809Y-85043657D01*
X164908701Y-84776440D01*
X164909229Y-84770047D01*
X164912901Y-84653222D01*
X164912774Y-84646779D01*
X164893733Y-84377863D01*
X164892480Y-84369053D01*
X164835994Y-84106687D01*
X164833518Y-84098166D01*
X164740627Y-83846373D01*
X164736972Y-83838278D01*
X164609530Y-83602087D01*
X164604771Y-83594589D01*
X164445327Y-83378719D01*
X164439554Y-83371958D01*
X164436434Y-83368789D01*
X164422554Y-83361068D01*
X164420983Y-83361168D01*
X164413967Y-83365638D01*
X163142417Y-84637188D01*
X163134803Y-84651132D01*
X162763961Y-84651132D01*
X162765197Y-84648868D01*
X162765066Y-84647035D01*
X162760815Y-84640420D01*
X161489388Y-83368993D01*
X161476547Y-83361981D01*
X161465858Y-83369776D01*
X161329195Y-83543133D01*
X161324202Y-83550481D01*
X161189404Y-83782552D01*
X161185500Y-83790522D01*
X161084745Y-84039273D01*
X161082001Y-84047717D01*
X161017301Y-84308182D01*
X161015774Y-84316933D01*
X160988421Y-84583909D01*
X160988142Y-84592793D01*
X135800000Y-84592793D01*
X135800000Y-83178596D01*
X161662118Y-83178596D01*
X161662168Y-83179642D01*
X161667059Y-83187454D01*
X162937188Y-84457583D01*
X162951132Y-84465197D01*
X162952965Y-84465066D01*
X162959580Y-84460815D01*
X164232344Y-83188051D01*
X164239198Y-83175499D01*
X164230991Y-83164429D01*
X164031274Y-83012010D01*
X164023849Y-83007133D01*
X163789696Y-82876001D01*
X163781643Y-82872212D01*
X163531357Y-82775383D01*
X163522867Y-82772771D01*
X163261420Y-82712172D01*
X163252642Y-82710782D01*
X162985265Y-82687624D01*
X162976394Y-82687484D01*
X162708414Y-82702232D01*
X162699604Y-82703346D01*
X162436381Y-82755704D01*
X162427823Y-82758045D01*
X162174588Y-82846975D01*
X162166454Y-82850495D01*
X161928285Y-82974214D01*
X161920713Y-82978853D01*
X161702358Y-83134892D01*
X161695514Y-83140553D01*
X161670056Y-83164839D01*
X161662118Y-83178596D01*
X135800000Y-83178596D01*
X135800000Y-82234000D01*
X135820002Y-82165879D01*
X135873658Y-82119386D01*
X135926000Y-82108000D01*
X165366000Y-82108000D01*
X165434121Y-82128002D01*
X165480614Y-82181658D01*
X165492000Y-82234000D01*
X165492000Y-99466000D01*
X165471998Y-99534121D01*
X165418342Y-99580614D01*
X165366000Y-99592000D01*
X89034000Y-99592000D01*
X88965879Y-99571998D01*
X88919386Y-99518342D01*
X88908000Y-99466000D01*
X88908000Y-98622747D01*
X90162815Y-98622747D01*
X90170205Y-98633049D01*
X90317807Y-98753216D01*
X90325086Y-98758331D01*
X90554999Y-98896750D01*
X90562913Y-98900783D01*
X90810048Y-99005431D01*
X90818453Y-99008308D01*
X91077873Y-99077093D01*
X91086585Y-99078755D01*
X91353114Y-99110300D01*
X91361979Y-99110718D01*
X91630278Y-99104395D01*
X91639133Y-99103558D01*
X91903864Y-99059495D01*
X91912498Y-99057422D01*
X92168383Y-98976496D01*
X92176644Y-98973225D01*
X92418567Y-98857055D01*
X92426292Y-98852649D01*
X92649431Y-98703553D01*
X92656458Y-98698103D01*
X92728442Y-98633627D01*
X92736805Y-98620132D01*
X92731116Y-98610721D01*
X91462812Y-97342417D01*
X91448868Y-97334803D01*
X91447035Y-97334934D01*
X91440420Y-97339185D01*
X90169981Y-98609624D01*
X90162815Y-98622747D01*
X88908000Y-98622747D01*
X88908000Y-97092793D01*
X89488142Y-97092793D01*
X89498678Y-97360960D01*
X89499653Y-97369789D01*
X89547869Y-97633799D01*
X89550078Y-97642401D01*
X89635012Y-97896979D01*
X89638416Y-97905196D01*
X89758373Y-98145269D01*
X89762891Y-98152908D01*
X89915480Y-98373687D01*
X89921043Y-98380629D01*
X89965773Y-98429018D01*
X89979407Y-98437173D01*
X89979926Y-98437157D01*
X89988536Y-98431859D01*
X91257583Y-97162812D01*
X91263961Y-97151132D01*
X91634803Y-97151132D01*
X91634934Y-97152965D01*
X91639185Y-97159580D01*
X92908982Y-98429377D01*
X92922382Y-98436694D01*
X92932287Y-98429706D01*
X93035237Y-98307232D01*
X93040457Y-98300047D01*
X93182480Y-98072321D01*
X93186632Y-98064481D01*
X93295151Y-97819014D01*
X93298161Y-97810653D01*
X93371005Y-97552365D01*
X93372809Y-97543657D01*
X93408701Y-97276440D01*
X93409229Y-97270047D01*
X93412901Y-97153222D01*
X93412774Y-97146779D01*
X93393733Y-96877863D01*
X93392480Y-96869053D01*
X93335994Y-96606687D01*
X93333518Y-96598166D01*
X93240627Y-96346373D01*
X93236972Y-96338278D01*
X93109530Y-96102087D01*
X93104771Y-96094589D01*
X92945327Y-95878719D01*
X92939554Y-95871958D01*
X92936434Y-95868789D01*
X92922554Y-95861068D01*
X92920983Y-95861168D01*
X92913967Y-95865638D01*
X91642417Y-97137188D01*
X91634803Y-97151132D01*
X91263961Y-97151132D01*
X91265197Y-97148868D01*
X91265066Y-97147035D01*
X91260815Y-97140420D01*
X89989388Y-95868993D01*
X89976547Y-95861981D01*
X89965858Y-95869776D01*
X89829195Y-96043133D01*
X89824202Y-96050481D01*
X89689404Y-96282552D01*
X89685500Y-96290522D01*
X89584745Y-96539273D01*
X89582001Y-96547717D01*
X89517301Y-96808182D01*
X89515774Y-96816933D01*
X89488421Y-97083909D01*
X89488142Y-97092793D01*
X88908000Y-97092793D01*
X88908000Y-95678596D01*
X90162118Y-95678596D01*
X90162168Y-95679642D01*
X90167059Y-95687454D01*
X91437188Y-96957583D01*
X91451132Y-96965197D01*
X91452965Y-96965066D01*
X91459580Y-96960815D01*
X92732344Y-95688051D01*
X92739198Y-95675499D01*
X92730991Y-95664429D01*
X92531274Y-95512010D01*
X92523849Y-95507133D01*
X92289696Y-95376001D01*
X92281643Y-95372212D01*
X92031357Y-95275383D01*
X92022867Y-95272771D01*
X91761420Y-95212172D01*
X91752642Y-95210782D01*
X91485265Y-95187624D01*
X91476394Y-95187484D01*
X91208414Y-95202232D01*
X91199604Y-95203346D01*
X90936381Y-95255704D01*
X90927823Y-95258045D01*
X90674588Y-95346975D01*
X90666454Y-95350495D01*
X90428285Y-95474214D01*
X90420713Y-95478853D01*
X90202358Y-95634892D01*
X90195514Y-95640553D01*
X90170056Y-95664839D01*
X90162118Y-95678596D01*
X88908000Y-95678596D01*
X88908000Y-94887933D01*
X88910161Y-94868898D01*
X88910169Y-94864200D01*
X88913349Y-94850372D01*
X88910218Y-94836532D01*
X88910223Y-94833394D01*
X88910830Y-94821265D01*
X88911240Y-94817111D01*
X88919872Y-94729463D01*
X106031500Y-94729463D01*
X106031501Y-96570536D01*
X106043597Y-96631353D01*
X106050490Y-96641669D01*
X106050491Y-96641671D01*
X106057156Y-96651645D01*
X106089680Y-96700320D01*
X106158647Y-96746403D01*
X106170816Y-96748824D01*
X106170817Y-96748824D01*
X106206829Y-96755987D01*
X106219463Y-96758500D01*
X107239835Y-96758500D01*
X108260536Y-96758499D01*
X108321353Y-96746403D01*
X108331670Y-96739510D01*
X108331671Y-96739509D01*
X108380007Y-96707211D01*
X108390320Y-96700320D01*
X108436403Y-96631353D01*
X108438825Y-96619180D01*
X108447293Y-96576605D01*
X108448500Y-96570537D01*
X108448499Y-94729464D01*
X108436403Y-94668647D01*
X108426491Y-94653812D01*
X108397211Y-94609993D01*
X108390320Y-94599680D01*
X108321353Y-94553597D01*
X108309184Y-94551176D01*
X108309183Y-94551176D01*
X108266605Y-94542707D01*
X108260537Y-94541500D01*
X107240165Y-94541500D01*
X106219464Y-94541501D01*
X106158647Y-94553597D01*
X106148330Y-94560490D01*
X106148329Y-94560491D01*
X106104065Y-94590068D01*
X106089680Y-94599680D01*
X106043597Y-94668647D01*
X106041176Y-94680816D01*
X106041176Y-94680817D01*
X106034255Y-94715611D01*
X106031500Y-94729463D01*
X88919872Y-94729463D01*
X88922002Y-94707839D01*
X88926819Y-94683617D01*
X88951202Y-94603235D01*
X88964685Y-94558787D01*
X88974138Y-94535967D01*
X88976125Y-94532250D01*
X89035629Y-94420927D01*
X89049350Y-94400393D01*
X89049921Y-94399698D01*
X89132099Y-94299563D01*
X89149564Y-94282098D01*
X89151410Y-94280583D01*
X89250395Y-94199348D01*
X89270927Y-94185629D01*
X89385970Y-94124137D01*
X89408788Y-94114685D01*
X89429178Y-94108500D01*
X89533617Y-94076819D01*
X89557839Y-94072002D01*
X89671840Y-94060774D01*
X89684406Y-94060167D01*
X89685800Y-94060169D01*
X89699628Y-94063349D01*
X89713469Y-94060217D01*
X89717436Y-94060224D01*
X89737344Y-94058000D01*
X91161770Y-94058000D01*
X91190221Y-94061254D01*
X91192303Y-94061737D01*
X91192306Y-94061737D01*
X91199255Y-94063348D01*
X91200000Y-94063349D01*
X91207017Y-94061748D01*
X91207081Y-94061734D01*
X91222752Y-94059185D01*
X91338793Y-94047756D01*
X91472251Y-94007272D01*
X91477706Y-94004356D01*
X91477709Y-94004355D01*
X91589788Y-93944447D01*
X91589789Y-93944447D01*
X91595247Y-93941529D01*
X91703054Y-93853054D01*
X91722415Y-93829463D01*
X109601500Y-93829463D01*
X109601501Y-94170536D01*
X109613597Y-94231353D01*
X109659680Y-94300320D01*
X109728647Y-94346403D01*
X109740816Y-94348824D01*
X109740817Y-94348824D01*
X109782519Y-94357119D01*
X109789463Y-94358500D01*
X110071238Y-94358500D01*
X110139359Y-94378502D01*
X110185852Y-94432158D01*
X110195188Y-94461866D01*
X110197285Y-94473350D01*
X110197935Y-94477251D01*
X110205419Y-94527029D01*
X110206819Y-94536340D01*
X110209998Y-94542960D01*
X110211319Y-94550194D01*
X110237126Y-94599872D01*
X110238873Y-94603235D01*
X110240644Y-94606780D01*
X110262421Y-94652133D01*
X110262424Y-94652137D01*
X110266500Y-94660626D01*
X110271406Y-94665933D01*
X110271563Y-94666166D01*
X110274876Y-94672544D01*
X110279263Y-94677680D01*
X110317194Y-94715611D01*
X110320624Y-94719177D01*
X110353698Y-94754957D01*
X110353700Y-94754959D01*
X110360088Y-94761869D01*
X110366531Y-94765612D01*
X110372891Y-94771308D01*
X111951259Y-96349676D01*
X111961114Y-96360765D01*
X111982590Y-96388007D01*
X111990337Y-96393361D01*
X111990341Y-96393365D01*
X112031750Y-96421985D01*
X112034970Y-96424286D01*
X112083029Y-96459783D01*
X112081183Y-96462282D01*
X112120658Y-96500771D01*
X112136626Y-96569949D01*
X112112658Y-96636778D01*
X112099938Y-96651645D01*
X111780947Y-96970636D01*
X111719331Y-97003260D01*
X111719526Y-97003922D01*
X111539202Y-97056994D01*
X111460181Y-97098305D01*
X111391962Y-97133969D01*
X111372621Y-97144080D01*
X111226128Y-97261864D01*
X111222170Y-97266582D01*
X111222167Y-97266584D01*
X111190057Y-97304852D01*
X111105302Y-97405859D01*
X111102338Y-97411251D01*
X111102335Y-97411255D01*
X111056761Y-97494155D01*
X111014746Y-97570580D01*
X111012885Y-97576447D01*
X111012884Y-97576449D01*
X111001741Y-97611577D01*
X110957909Y-97749752D01*
X110936956Y-97936552D01*
X110939541Y-97967340D01*
X110943420Y-98013525D01*
X110952685Y-98123865D01*
X111004497Y-98304555D01*
X111007312Y-98310032D01*
X111007313Y-98310035D01*
X111069922Y-98431859D01*
X111090418Y-98471740D01*
X111094241Y-98476564D01*
X111094244Y-98476568D01*
X111120625Y-98509852D01*
X111207177Y-98619052D01*
X111211871Y-98623047D01*
X111224303Y-98633627D01*
X111350324Y-98740880D01*
X111355702Y-98743886D01*
X111355704Y-98743887D01*
X111432366Y-98786732D01*
X111514409Y-98832584D01*
X111693180Y-98890670D01*
X111879830Y-98912927D01*
X111885965Y-98912455D01*
X111885967Y-98912455D01*
X112061105Y-98898979D01*
X112061109Y-98898978D01*
X112067247Y-98898506D01*
X112215706Y-98857055D01*
X112242350Y-98849616D01*
X112242353Y-98849615D01*
X112248294Y-98847956D01*
X112253798Y-98845176D01*
X112253800Y-98845175D01*
X112410574Y-98765983D01*
X112410576Y-98765982D01*
X112416075Y-98763204D01*
X112564199Y-98647477D01*
X112576653Y-98633049D01*
X112585545Y-98622747D01*
X161662815Y-98622747D01*
X161670205Y-98633049D01*
X161817807Y-98753216D01*
X161825086Y-98758331D01*
X162054999Y-98896750D01*
X162062913Y-98900783D01*
X162310048Y-99005431D01*
X162318453Y-99008308D01*
X162577873Y-99077093D01*
X162586585Y-99078755D01*
X162853114Y-99110300D01*
X162861979Y-99110718D01*
X163130278Y-99104395D01*
X163139133Y-99103558D01*
X163403864Y-99059495D01*
X163412498Y-99057422D01*
X163668383Y-98976496D01*
X163676644Y-98973225D01*
X163918567Y-98857055D01*
X163926292Y-98852649D01*
X164149431Y-98703553D01*
X164156458Y-98698103D01*
X164228442Y-98633627D01*
X164236805Y-98620132D01*
X164231116Y-98610721D01*
X162962812Y-97342417D01*
X162948868Y-97334803D01*
X162947035Y-97334934D01*
X162940420Y-97339185D01*
X161669981Y-98609624D01*
X161662815Y-98622747D01*
X112585545Y-98622747D01*
X112682994Y-98509852D01*
X112682995Y-98509850D01*
X112687023Y-98505184D01*
X112779870Y-98341744D01*
X112839203Y-98163382D01*
X112862762Y-97976892D01*
X112862998Y-97960006D01*
X112863089Y-97953522D01*
X112863089Y-97953518D01*
X112863138Y-97950000D01*
X112844795Y-97762926D01*
X112840758Y-97749553D01*
X112812969Y-97657513D01*
X112790465Y-97582977D01*
X112721408Y-97453099D01*
X112707089Y-97383562D01*
X112732637Y-97317322D01*
X112743565Y-97304852D01*
X112899676Y-97148741D01*
X112910765Y-97138886D01*
X112930610Y-97123241D01*
X112938007Y-97117410D01*
X112971970Y-97068271D01*
X112974269Y-97065052D01*
X113004186Y-97024548D01*
X113009784Y-97016969D01*
X113012218Y-97010037D01*
X113016397Y-97003991D01*
X113019238Y-96995006D01*
X113023001Y-96987326D01*
X113070933Y-96934952D01*
X113139571Y-96916805D01*
X113207124Y-96938649D01*
X113225247Y-96953664D01*
X113895311Y-97623728D01*
X113929337Y-97686040D01*
X113931500Y-97700999D01*
X113931500Y-97703034D01*
X113932169Y-97707578D01*
X113939854Y-97759783D01*
X113941583Y-97771530D01*
X113945898Y-97780318D01*
X113945898Y-97780319D01*
X113961519Y-97812135D01*
X113992716Y-97875675D01*
X114000084Y-97883030D01*
X114000086Y-97883033D01*
X114029322Y-97912217D01*
X114074827Y-97957642D01*
X114121341Y-97980379D01*
X114170274Y-98004299D01*
X114170276Y-98004299D01*
X114179061Y-98008594D01*
X114188738Y-98010006D01*
X114188739Y-98010006D01*
X114203334Y-98012135D01*
X114246966Y-98018500D01*
X114593034Y-98018500D01*
X114597583Y-98017830D01*
X114597588Y-98017830D01*
X114651845Y-98009843D01*
X114651847Y-98009842D01*
X114661530Y-98008417D01*
X114670910Y-98003812D01*
X114745214Y-97967330D01*
X114765675Y-97957284D01*
X114773030Y-97949916D01*
X114773033Y-97949914D01*
X114811171Y-97911708D01*
X114873454Y-97877628D01*
X114944274Y-97882631D01*
X114989362Y-97911552D01*
X115027747Y-97949870D01*
X115044478Y-97961804D01*
X115130418Y-98003812D01*
X115148885Y-98009520D01*
X115202487Y-98017340D01*
X115211587Y-98018000D01*
X115234885Y-98018000D01*
X115250124Y-98013525D01*
X115251329Y-98012135D01*
X115253000Y-98004452D01*
X115253000Y-97999885D01*
X115507000Y-97999885D01*
X115511475Y-98015124D01*
X115512865Y-98016329D01*
X115520548Y-98018000D01*
X115548380Y-98018000D01*
X115557539Y-98017330D01*
X115611695Y-98009357D01*
X115630177Y-98003614D01*
X115716031Y-97961462D01*
X115732736Y-97949503D01*
X115799872Y-97882250D01*
X115811804Y-97865522D01*
X115853812Y-97779582D01*
X115859520Y-97761115D01*
X115867340Y-97707513D01*
X115868000Y-97698413D01*
X115868000Y-97645115D01*
X115863525Y-97629876D01*
X115862135Y-97628671D01*
X115854452Y-97627000D01*
X115525115Y-97627000D01*
X115509876Y-97631475D01*
X115508671Y-97632865D01*
X115507000Y-97640548D01*
X115507000Y-97999885D01*
X115253000Y-97999885D01*
X115253000Y-97354885D01*
X115507000Y-97354885D01*
X115511475Y-97370124D01*
X115512865Y-97371329D01*
X115520548Y-97373000D01*
X115849885Y-97373000D01*
X115865124Y-97368525D01*
X115866329Y-97367135D01*
X115868000Y-97359452D01*
X115868000Y-97301620D01*
X115867330Y-97292461D01*
X115859357Y-97238305D01*
X115853614Y-97219823D01*
X115811462Y-97133969D01*
X115799503Y-97117264D01*
X115732250Y-97050128D01*
X115715522Y-97038196D01*
X115629582Y-96996188D01*
X115611115Y-96990480D01*
X115557513Y-96982660D01*
X115548413Y-96982000D01*
X115525115Y-96982000D01*
X115509876Y-96986475D01*
X115508671Y-96987865D01*
X115507000Y-96995548D01*
X115507000Y-97354885D01*
X115253000Y-97354885D01*
X115253000Y-97000115D01*
X115248525Y-96984876D01*
X115247135Y-96983671D01*
X115239452Y-96982000D01*
X115211620Y-96982000D01*
X115202461Y-96982670D01*
X115148305Y-96990643D01*
X115129823Y-96996386D01*
X115043969Y-97038538D01*
X115027260Y-97050500D01*
X114989533Y-97088292D01*
X114927251Y-97122371D01*
X114856431Y-97117368D01*
X114811344Y-97088448D01*
X114797196Y-97074325D01*
X114765173Y-97042358D01*
X114686685Y-97003991D01*
X114669726Y-96995701D01*
X114669724Y-96995701D01*
X114660939Y-96991406D01*
X114651262Y-96989994D01*
X114651261Y-96989994D01*
X114627137Y-96986475D01*
X114593034Y-96981500D01*
X114592683Y-96981500D01*
X114527202Y-96956999D01*
X114513722Y-96945305D01*
X113318741Y-95750324D01*
X113308886Y-95739235D01*
X113300399Y-95728470D01*
X113287410Y-95711993D01*
X113279665Y-95706640D01*
X113279663Y-95706638D01*
X113238239Y-95678008D01*
X113235021Y-95675708D01*
X113194546Y-95645813D01*
X113194544Y-95645812D01*
X113186969Y-95640217D01*
X113180040Y-95637784D01*
X113173991Y-95633603D01*
X113146089Y-95624779D01*
X113084122Y-95581349D01*
X113039011Y-95522560D01*
X113039010Y-95522559D01*
X113033987Y-95516013D01*
X112906876Y-95418476D01*
X112899250Y-95415317D01*
X112899248Y-95415316D01*
X112766480Y-95360322D01*
X112766477Y-95360321D01*
X112758850Y-95357162D01*
X112600000Y-95336249D01*
X112591812Y-95337327D01*
X112449336Y-95356084D01*
X112449334Y-95356085D01*
X112441150Y-95357162D01*
X112433520Y-95360322D01*
X112433518Y-95360323D01*
X112387711Y-95379296D01*
X112317122Y-95386885D01*
X112250399Y-95351982D01*
X111241312Y-94342895D01*
X111207286Y-94280583D01*
X111206828Y-94229220D01*
X111217293Y-94176608D01*
X111217294Y-94176602D01*
X111218500Y-94170537D01*
X111218499Y-93959500D01*
X111238501Y-93891380D01*
X111292156Y-93844887D01*
X111344499Y-93833500D01*
X113379670Y-93833500D01*
X113447791Y-93853502D01*
X113468765Y-93870405D01*
X116994595Y-97396235D01*
X117028621Y-97458547D01*
X117031500Y-97485330D01*
X117031500Y-97653034D01*
X117032170Y-97657583D01*
X117032170Y-97657588D01*
X117039529Y-97707578D01*
X117041583Y-97721530D01*
X117045898Y-97730318D01*
X117045898Y-97730319D01*
X117064919Y-97769060D01*
X117092716Y-97825675D01*
X117100084Y-97833030D01*
X117100086Y-97833033D01*
X117128656Y-97861552D01*
X117174827Y-97907642D01*
X117221439Y-97930427D01*
X117270274Y-97954299D01*
X117270276Y-97954299D01*
X117279061Y-97958594D01*
X117288738Y-97960006D01*
X117288739Y-97960006D01*
X117301065Y-97961804D01*
X117346966Y-97968500D01*
X117693034Y-97968500D01*
X117697583Y-97967830D01*
X117697588Y-97967830D01*
X117751845Y-97959843D01*
X117751847Y-97959842D01*
X117761530Y-97958417D01*
X117770910Y-97953812D01*
X117819252Y-97930077D01*
X117865675Y-97907284D01*
X117873030Y-97899916D01*
X117873033Y-97899914D01*
X117911171Y-97861708D01*
X117973454Y-97827628D01*
X118044274Y-97832631D01*
X118089362Y-97861552D01*
X118127747Y-97899870D01*
X118144478Y-97911804D01*
X118230418Y-97953812D01*
X118248885Y-97959520D01*
X118302487Y-97967340D01*
X118311587Y-97968000D01*
X118334885Y-97968000D01*
X118350124Y-97963525D01*
X118351329Y-97962135D01*
X118353000Y-97954452D01*
X118353000Y-97949885D01*
X118607000Y-97949885D01*
X118611475Y-97965124D01*
X118612865Y-97966329D01*
X118620548Y-97968000D01*
X118648380Y-97968000D01*
X118657539Y-97967330D01*
X118711695Y-97959357D01*
X118730177Y-97953614D01*
X118816031Y-97911462D01*
X118832736Y-97899503D01*
X118899872Y-97832250D01*
X118911804Y-97815522D01*
X118953812Y-97729582D01*
X118959520Y-97711115D01*
X118967340Y-97657513D01*
X118968000Y-97648413D01*
X118968000Y-97595115D01*
X118963525Y-97579876D01*
X118962135Y-97578671D01*
X118954452Y-97577000D01*
X118625115Y-97577000D01*
X118609876Y-97581475D01*
X118608671Y-97582865D01*
X118607000Y-97590548D01*
X118607000Y-97949885D01*
X118353000Y-97949885D01*
X118353000Y-97304885D01*
X118607000Y-97304885D01*
X118611475Y-97320124D01*
X118612865Y-97321329D01*
X118620548Y-97323000D01*
X118949885Y-97323000D01*
X118965124Y-97318525D01*
X118966329Y-97317135D01*
X118968000Y-97309452D01*
X118968000Y-97251620D01*
X118967330Y-97242461D01*
X118959357Y-97188305D01*
X118953614Y-97169823D01*
X118911462Y-97083969D01*
X118899503Y-97067264D01*
X118832250Y-97000128D01*
X118815522Y-96988196D01*
X118729582Y-96946188D01*
X118711115Y-96940480D01*
X118657513Y-96932660D01*
X118648413Y-96932000D01*
X118625115Y-96932000D01*
X118609876Y-96936475D01*
X118608671Y-96937865D01*
X118607000Y-96945548D01*
X118607000Y-97304885D01*
X118353000Y-97304885D01*
X118353000Y-96950115D01*
X118348525Y-96934876D01*
X118347135Y-96933671D01*
X118339452Y-96932000D01*
X118311620Y-96932000D01*
X118302461Y-96932670D01*
X118248305Y-96940643D01*
X118229823Y-96946386D01*
X118143969Y-96988538D01*
X118127260Y-97000500D01*
X118089533Y-97038292D01*
X118027251Y-97072371D01*
X117956431Y-97067368D01*
X117911344Y-97038448D01*
X117902331Y-97029451D01*
X117865173Y-96992358D01*
X117786016Y-96953664D01*
X117769726Y-96945701D01*
X117769724Y-96945701D01*
X117760939Y-96941406D01*
X117751262Y-96939994D01*
X117751261Y-96939994D01*
X117727137Y-96936475D01*
X117693034Y-96931500D01*
X117525330Y-96931500D01*
X117457209Y-96911498D01*
X117436235Y-96894595D01*
X117275235Y-96733595D01*
X117241209Y-96671283D01*
X117246274Y-96600468D01*
X117288821Y-96543632D01*
X117355341Y-96518821D01*
X117364330Y-96518500D01*
X117693034Y-96518500D01*
X117697583Y-96517830D01*
X117697588Y-96517830D01*
X117751845Y-96509843D01*
X117751847Y-96509842D01*
X117761530Y-96508417D01*
X117770910Y-96503812D01*
X117855495Y-96462282D01*
X117865675Y-96457284D01*
X117873030Y-96449916D01*
X117873033Y-96449914D01*
X117911171Y-96411708D01*
X117973454Y-96377628D01*
X118044274Y-96382631D01*
X118089362Y-96411552D01*
X118127747Y-96449870D01*
X118144478Y-96461804D01*
X118230418Y-96503812D01*
X118248885Y-96509520D01*
X118302487Y-96517340D01*
X118311587Y-96518000D01*
X118334885Y-96518000D01*
X118350124Y-96513525D01*
X118351329Y-96512135D01*
X118353000Y-96504452D01*
X118353000Y-96499885D01*
X118607000Y-96499885D01*
X118611475Y-96515124D01*
X118612865Y-96516329D01*
X118620548Y-96518000D01*
X118648380Y-96518000D01*
X118657539Y-96517330D01*
X118711695Y-96509357D01*
X118730177Y-96503614D01*
X118816031Y-96461462D01*
X118832736Y-96449503D01*
X118899872Y-96382250D01*
X118911804Y-96365522D01*
X118953812Y-96279582D01*
X118959520Y-96261115D01*
X118967340Y-96207513D01*
X118968000Y-96198413D01*
X118968000Y-96145115D01*
X118963525Y-96129876D01*
X118962135Y-96128671D01*
X118954452Y-96127000D01*
X118625115Y-96127000D01*
X118609876Y-96131475D01*
X118608671Y-96132865D01*
X118607000Y-96140548D01*
X118607000Y-96499885D01*
X118353000Y-96499885D01*
X118353000Y-95854885D01*
X118607000Y-95854885D01*
X118611475Y-95870124D01*
X118612865Y-95871329D01*
X118620548Y-95873000D01*
X118949885Y-95873000D01*
X118965124Y-95868525D01*
X118966329Y-95867135D01*
X118968000Y-95859452D01*
X118968000Y-95801620D01*
X118967330Y-95792461D01*
X118959357Y-95738305D01*
X118953614Y-95719823D01*
X118911462Y-95633969D01*
X118899503Y-95617264D01*
X118832250Y-95550128D01*
X118815522Y-95538196D01*
X118729582Y-95496188D01*
X118711115Y-95490480D01*
X118657513Y-95482660D01*
X118648413Y-95482000D01*
X118625115Y-95482000D01*
X118609876Y-95486475D01*
X118608671Y-95487865D01*
X118607000Y-95495548D01*
X118607000Y-95854885D01*
X118353000Y-95854885D01*
X118353000Y-95500115D01*
X118348525Y-95484876D01*
X118347135Y-95483671D01*
X118339452Y-95482000D01*
X118311620Y-95482000D01*
X118302461Y-95482670D01*
X118248305Y-95490643D01*
X118229823Y-95496386D01*
X118143969Y-95538538D01*
X118127260Y-95550500D01*
X118089533Y-95588292D01*
X118027251Y-95622371D01*
X117956431Y-95617368D01*
X117911344Y-95588448D01*
X117904232Y-95581349D01*
X117865173Y-95542358D01*
X117793112Y-95507133D01*
X117769726Y-95495701D01*
X117769724Y-95495701D01*
X117760939Y-95491406D01*
X117751262Y-95489994D01*
X117751261Y-95489994D01*
X117727137Y-95486475D01*
X117693034Y-95481500D01*
X117346966Y-95481500D01*
X117342417Y-95482170D01*
X117342412Y-95482170D01*
X117288155Y-95490157D01*
X117288153Y-95490158D01*
X117278470Y-95491583D01*
X117269682Y-95495898D01*
X117269681Y-95495898D01*
X117238943Y-95510990D01*
X117174325Y-95542716D01*
X117168227Y-95548825D01*
X117102174Y-95571873D01*
X117033137Y-95555309D01*
X117006766Y-95535126D01*
X115820020Y-94348380D01*
X117582000Y-94348380D01*
X117582670Y-94357539D01*
X117590643Y-94411695D01*
X117596386Y-94430177D01*
X117638538Y-94516031D01*
X117650497Y-94532736D01*
X117717750Y-94599872D01*
X117734478Y-94611804D01*
X117820418Y-94653812D01*
X117838885Y-94659520D01*
X117892487Y-94667340D01*
X117901587Y-94668000D01*
X117954885Y-94668000D01*
X117970124Y-94663525D01*
X117971329Y-94662135D01*
X117973000Y-94654452D01*
X117973000Y-94649885D01*
X118227000Y-94649885D01*
X118231475Y-94665124D01*
X118232865Y-94666329D01*
X118240548Y-94668000D01*
X118298380Y-94668000D01*
X118307539Y-94667330D01*
X118361695Y-94659357D01*
X118380177Y-94653614D01*
X118466031Y-94611462D01*
X118482736Y-94599503D01*
X118549872Y-94532250D01*
X118561804Y-94515522D01*
X118603812Y-94429582D01*
X118609520Y-94411115D01*
X118617340Y-94357513D01*
X118618000Y-94348413D01*
X118618000Y-94348380D01*
X128132000Y-94348380D01*
X128132670Y-94357539D01*
X128140643Y-94411695D01*
X128146386Y-94430177D01*
X128188538Y-94516031D01*
X128200497Y-94532736D01*
X128267750Y-94599872D01*
X128284478Y-94611804D01*
X128370418Y-94653812D01*
X128388885Y-94659520D01*
X128442487Y-94667340D01*
X128451587Y-94668000D01*
X128504885Y-94668000D01*
X128520124Y-94663525D01*
X128521329Y-94662135D01*
X128523000Y-94654452D01*
X128523000Y-94649885D01*
X128777000Y-94649885D01*
X128781475Y-94665124D01*
X128782865Y-94666329D01*
X128790548Y-94668000D01*
X128848380Y-94668000D01*
X128857539Y-94667330D01*
X128911695Y-94659357D01*
X128930177Y-94653614D01*
X129016031Y-94611462D01*
X129032736Y-94599503D01*
X129099872Y-94532250D01*
X129111804Y-94515522D01*
X129153812Y-94429582D01*
X129159520Y-94411115D01*
X129167340Y-94357513D01*
X129168000Y-94348413D01*
X129168000Y-94325115D01*
X129163525Y-94309876D01*
X129162135Y-94308671D01*
X129154452Y-94307000D01*
X128795115Y-94307000D01*
X128779876Y-94311475D01*
X128778671Y-94312865D01*
X128777000Y-94320548D01*
X128777000Y-94649885D01*
X128523000Y-94649885D01*
X128523000Y-94325115D01*
X128518525Y-94309876D01*
X128517135Y-94308671D01*
X128509452Y-94307000D01*
X128150115Y-94307000D01*
X128134876Y-94311475D01*
X128133671Y-94312865D01*
X128132000Y-94320548D01*
X128132000Y-94348380D01*
X118618000Y-94348380D01*
X118618000Y-94325115D01*
X118613525Y-94309876D01*
X118612135Y-94308671D01*
X118604452Y-94307000D01*
X118245115Y-94307000D01*
X118229876Y-94311475D01*
X118228671Y-94312865D01*
X118227000Y-94320548D01*
X118227000Y-94649885D01*
X117973000Y-94649885D01*
X117973000Y-94325115D01*
X117968525Y-94309876D01*
X117967135Y-94308671D01*
X117959452Y-94307000D01*
X117600115Y-94307000D01*
X117584876Y-94311475D01*
X117583671Y-94312865D01*
X117582000Y-94320548D01*
X117582000Y-94348380D01*
X115820020Y-94348380D01*
X115365235Y-93893595D01*
X115331209Y-93831283D01*
X115336274Y-93760468D01*
X115378821Y-93703632D01*
X115445341Y-93678821D01*
X115454330Y-93678500D01*
X117517490Y-93678500D01*
X117585611Y-93698502D01*
X117632104Y-93752158D01*
X117642208Y-93822432D01*
X117630690Y-93859833D01*
X117596188Y-93930418D01*
X117590480Y-93948885D01*
X117582660Y-94002487D01*
X117582000Y-94011587D01*
X117582000Y-94034885D01*
X117586475Y-94050124D01*
X117587865Y-94051329D01*
X117595548Y-94053000D01*
X118599885Y-94053000D01*
X118615124Y-94048525D01*
X118616329Y-94047135D01*
X118618000Y-94039452D01*
X118618000Y-94011620D01*
X118617330Y-94002461D01*
X118609357Y-93948305D01*
X118603615Y-93929828D01*
X118569347Y-93860030D01*
X118557280Y-93790066D01*
X118584954Y-93724685D01*
X118643583Y-93684645D01*
X118682451Y-93678500D01*
X128067490Y-93678500D01*
X128135611Y-93698502D01*
X128182104Y-93752158D01*
X128192208Y-93822432D01*
X128180690Y-93859833D01*
X128146188Y-93930418D01*
X128140480Y-93948885D01*
X128132660Y-94002487D01*
X128132000Y-94011587D01*
X128132000Y-94034885D01*
X128136475Y-94050124D01*
X128137865Y-94051329D01*
X128145548Y-94053000D01*
X129149885Y-94053000D01*
X129165124Y-94048525D01*
X129166329Y-94047135D01*
X129168000Y-94039452D01*
X129168000Y-94011620D01*
X129167330Y-94002461D01*
X129159357Y-93948305D01*
X129153615Y-93929825D01*
X129109528Y-93840031D01*
X129097460Y-93770067D01*
X129125134Y-93704686D01*
X129183762Y-93664645D01*
X129222631Y-93658500D01*
X132607893Y-93658500D01*
X132676014Y-93678502D01*
X132696988Y-93695405D01*
X132754595Y-93753012D01*
X132788621Y-93815324D01*
X132791500Y-93842107D01*
X132791500Y-94902808D01*
X132790627Y-94917617D01*
X132786550Y-94952064D01*
X132788242Y-94961328D01*
X132788242Y-94961332D01*
X132797285Y-95010849D01*
X132797935Y-95014751D01*
X132804666Y-95059520D01*
X132806819Y-95073840D01*
X132809998Y-95080460D01*
X132811319Y-95087694D01*
X132838618Y-95140245D01*
X132838873Y-95140735D01*
X132840644Y-95144280D01*
X132862421Y-95189633D01*
X132862424Y-95189637D01*
X132866500Y-95198126D01*
X132871406Y-95203433D01*
X132871563Y-95203666D01*
X132874876Y-95210044D01*
X132879263Y-95215180D01*
X132917194Y-95253111D01*
X132920624Y-95256677D01*
X132953698Y-95292457D01*
X132953700Y-95292459D01*
X132960088Y-95299369D01*
X132966531Y-95303112D01*
X132972891Y-95308808D01*
X134586250Y-96922167D01*
X134620276Y-96984479D01*
X134621835Y-97029451D01*
X134617165Y-97061465D01*
X134616500Y-97066021D01*
X134616501Y-97433978D01*
X134626873Y-97504443D01*
X134631190Y-97513235D01*
X134631190Y-97513236D01*
X134674626Y-97601704D01*
X134679473Y-97611577D01*
X134716373Y-97648413D01*
X134756187Y-97688157D01*
X134763939Y-97695896D01*
X134773295Y-97700469D01*
X134773296Y-97700470D01*
X134787705Y-97707513D01*
X134871165Y-97748309D01*
X134902267Y-97752846D01*
X134936495Y-97757840D01*
X134936499Y-97757840D01*
X134941021Y-97758500D01*
X135420397Y-97758500D01*
X135462145Y-97765618D01*
X135575615Y-97805466D01*
X135585026Y-97805836D01*
X135585027Y-97805836D01*
X135630455Y-97807621D01*
X135713381Y-97810879D01*
X135722481Y-97808466D01*
X135722483Y-97808466D01*
X135837545Y-97777958D01*
X135837546Y-97777958D01*
X135846649Y-97775544D01*
X135854642Y-97770559D01*
X135858561Y-97768863D01*
X135908604Y-97758499D01*
X136183978Y-97758499D01*
X136254443Y-97748127D01*
X136309819Y-97720939D01*
X136352229Y-97700117D01*
X136352231Y-97700116D01*
X136361577Y-97695527D01*
X136445896Y-97611061D01*
X136459679Y-97582865D01*
X136468321Y-97565185D01*
X136498309Y-97503835D01*
X136499105Y-97498380D01*
X143932000Y-97498380D01*
X143932670Y-97507539D01*
X143940643Y-97561695D01*
X143946386Y-97580177D01*
X143988538Y-97666031D01*
X144000497Y-97682736D01*
X144067750Y-97749872D01*
X144084478Y-97761804D01*
X144170418Y-97803812D01*
X144188885Y-97809520D01*
X144242487Y-97817340D01*
X144251587Y-97818000D01*
X144304885Y-97818000D01*
X144320124Y-97813525D01*
X144321329Y-97812135D01*
X144323000Y-97804452D01*
X144323000Y-97799885D01*
X144577000Y-97799885D01*
X144581475Y-97815124D01*
X144582865Y-97816329D01*
X144590548Y-97818000D01*
X144648380Y-97818000D01*
X144657539Y-97817330D01*
X144711695Y-97809357D01*
X144730177Y-97803614D01*
X144816031Y-97761462D01*
X144832736Y-97749503D01*
X144899872Y-97682250D01*
X144911804Y-97665522D01*
X144953812Y-97579582D01*
X144959520Y-97561115D01*
X144967340Y-97507513D01*
X144968000Y-97498413D01*
X144968000Y-97475115D01*
X144963525Y-97459876D01*
X144962135Y-97458671D01*
X144954452Y-97457000D01*
X144595115Y-97457000D01*
X144579876Y-97461475D01*
X144578671Y-97462865D01*
X144577000Y-97470548D01*
X144577000Y-97799885D01*
X144323000Y-97799885D01*
X144323000Y-97475115D01*
X144318525Y-97459876D01*
X144317135Y-97458671D01*
X144309452Y-97457000D01*
X143950115Y-97457000D01*
X143934876Y-97461475D01*
X143933671Y-97462865D01*
X143932000Y-97470548D01*
X143932000Y-97498380D01*
X136499105Y-97498380D01*
X136505711Y-97453100D01*
X136507840Y-97438505D01*
X136507840Y-97438501D01*
X136508500Y-97433979D01*
X136508499Y-97066022D01*
X136498127Y-96995557D01*
X136493810Y-96986764D01*
X136493809Y-96986761D01*
X136451866Y-96901332D01*
X136439798Y-96831369D01*
X136442523Y-96824932D01*
X136402931Y-96826040D01*
X136365401Y-96808436D01*
X136361061Y-96804104D01*
X136253835Y-96751691D01*
X136222733Y-96747154D01*
X136188505Y-96742160D01*
X136188501Y-96742160D01*
X136183979Y-96741500D01*
X135754607Y-96741500D01*
X135686486Y-96721498D01*
X135665512Y-96704595D01*
X135076938Y-96116021D01*
X136491500Y-96116021D01*
X136491501Y-96483978D01*
X136501873Y-96554443D01*
X136506190Y-96563236D01*
X136506191Y-96563239D01*
X136548134Y-96648668D01*
X136560202Y-96718631D01*
X136557477Y-96725068D01*
X136597069Y-96723960D01*
X136634599Y-96741564D01*
X136638939Y-96745896D01*
X136746165Y-96798309D01*
X136777267Y-96802846D01*
X136811495Y-96807840D01*
X136811499Y-96807840D01*
X136816021Y-96808500D01*
X137291367Y-96808500D01*
X137332958Y-96818140D01*
X137333509Y-96816397D01*
X137390493Y-96834418D01*
X137394250Y-96835672D01*
X137441727Y-96852345D01*
X137441729Y-96852345D01*
X137450615Y-96855466D01*
X137457840Y-96855750D01*
X137458114Y-96855804D01*
X137464965Y-96857970D01*
X137471699Y-96858500D01*
X137525355Y-96858500D01*
X137530302Y-96858597D01*
X137588381Y-96860879D01*
X137595585Y-96858969D01*
X137604105Y-96858500D01*
X143852826Y-96858500D01*
X143920947Y-96878502D01*
X143967440Y-96932158D01*
X143977544Y-97002432D01*
X143966026Y-97039833D01*
X143946188Y-97080418D01*
X143940480Y-97098885D01*
X143932660Y-97152487D01*
X143932000Y-97161587D01*
X143932000Y-97184885D01*
X143936475Y-97200124D01*
X143937865Y-97201329D01*
X143945548Y-97203000D01*
X144949885Y-97203000D01*
X144965124Y-97198525D01*
X144966329Y-97197135D01*
X144968000Y-97189452D01*
X144968000Y-97161620D01*
X144967330Y-97152461D01*
X144959357Y-97098305D01*
X144957644Y-97092793D01*
X160988142Y-97092793D01*
X160998678Y-97360960D01*
X160999653Y-97369789D01*
X161047869Y-97633799D01*
X161050078Y-97642401D01*
X161135012Y-97896979D01*
X161138416Y-97905196D01*
X161258373Y-98145269D01*
X161262891Y-98152908D01*
X161415480Y-98373687D01*
X161421043Y-98380629D01*
X161465773Y-98429018D01*
X161479407Y-98437173D01*
X161479926Y-98437157D01*
X161488536Y-98431859D01*
X162757583Y-97162812D01*
X162763961Y-97151132D01*
X163134803Y-97151132D01*
X163134934Y-97152965D01*
X163139185Y-97159580D01*
X164408982Y-98429377D01*
X164422382Y-98436694D01*
X164432287Y-98429706D01*
X164535237Y-98307232D01*
X164540457Y-98300047D01*
X164682480Y-98072321D01*
X164686632Y-98064481D01*
X164795151Y-97819014D01*
X164798161Y-97810653D01*
X164871005Y-97552365D01*
X164872809Y-97543657D01*
X164908701Y-97276440D01*
X164909229Y-97270047D01*
X164912901Y-97153222D01*
X164912774Y-97146779D01*
X164893733Y-96877863D01*
X164892480Y-96869053D01*
X164835994Y-96606687D01*
X164833518Y-96598166D01*
X164740627Y-96346373D01*
X164736972Y-96338278D01*
X164609530Y-96102087D01*
X164604771Y-96094589D01*
X164445327Y-95878719D01*
X164439554Y-95871958D01*
X164436434Y-95868789D01*
X164422554Y-95861068D01*
X164420983Y-95861168D01*
X164413967Y-95865638D01*
X163142417Y-97137188D01*
X163134803Y-97151132D01*
X162763961Y-97151132D01*
X162765197Y-97148868D01*
X162765066Y-97147035D01*
X162760815Y-97140420D01*
X161489388Y-95868993D01*
X161476547Y-95861981D01*
X161465858Y-95869776D01*
X161329195Y-96043133D01*
X161324202Y-96050481D01*
X161189404Y-96282552D01*
X161185500Y-96290522D01*
X161084745Y-96539273D01*
X161082001Y-96547717D01*
X161017301Y-96808182D01*
X161015774Y-96816933D01*
X160988421Y-97083909D01*
X160988142Y-97092793D01*
X144957644Y-97092793D01*
X144953615Y-97079828D01*
X144934076Y-97040030D01*
X144922009Y-96970066D01*
X144949683Y-96904685D01*
X145008312Y-96864645D01*
X145047180Y-96858500D01*
X152955187Y-96858500D01*
X153023308Y-96878502D01*
X153031889Y-96884536D01*
X153093124Y-96931524D01*
X153100750Y-96934683D01*
X153100752Y-96934684D01*
X153233520Y-96989678D01*
X153233523Y-96989679D01*
X153241150Y-96992838D01*
X153249338Y-96993916D01*
X153266421Y-96996165D01*
X153400000Y-97013751D01*
X153408188Y-97012673D01*
X153428211Y-97010037D01*
X153533579Y-96996165D01*
X153550662Y-96993916D01*
X153558850Y-96992838D01*
X153566477Y-96989679D01*
X153566480Y-96989678D01*
X153699248Y-96934684D01*
X153699250Y-96934683D01*
X153706876Y-96931524D01*
X153741853Y-96904685D01*
X153827436Y-96839014D01*
X153827437Y-96839013D01*
X153833987Y-96833987D01*
X153839013Y-96827437D01*
X153839016Y-96827434D01*
X153882756Y-96770431D01*
X153931524Y-96706875D01*
X153987997Y-96570537D01*
X153989678Y-96566479D01*
X153992838Y-96558850D01*
X153994842Y-96543632D01*
X154012673Y-96408188D01*
X154013751Y-96400000D01*
X153992838Y-96241150D01*
X153931524Y-96093125D01*
X153882756Y-96029569D01*
X153839016Y-95972566D01*
X153839013Y-95972563D01*
X153833987Y-95966013D01*
X153802042Y-95941500D01*
X153713426Y-95873502D01*
X153706876Y-95868476D01*
X153699250Y-95865317D01*
X153699248Y-95865316D01*
X153566480Y-95810322D01*
X153566477Y-95810321D01*
X153558850Y-95807162D01*
X153506569Y-95800279D01*
X153444990Y-95792172D01*
X153400000Y-95786249D01*
X153355010Y-95792172D01*
X153293432Y-95800279D01*
X153241150Y-95807162D01*
X153093125Y-95868476D01*
X153045953Y-95904673D01*
X153031892Y-95915462D01*
X152965672Y-95941063D01*
X152955188Y-95941500D01*
X144852565Y-95941500D01*
X144797234Y-95928701D01*
X144720939Y-95891406D01*
X144711262Y-95889994D01*
X144711261Y-95889994D01*
X144693671Y-95887428D01*
X144653034Y-95881500D01*
X144246966Y-95881500D01*
X144242417Y-95882170D01*
X144242412Y-95882170D01*
X144188155Y-95890157D01*
X144188153Y-95890158D01*
X144178470Y-95891583D01*
X144169682Y-95895898D01*
X144169681Y-95895898D01*
X144103070Y-95928603D01*
X144047539Y-95941500D01*
X138375736Y-95941500D01*
X138307615Y-95921498D01*
X138286718Y-95904673D01*
X138277729Y-95895699D01*
X138236061Y-95854104D01*
X138225759Y-95849068D01*
X138146492Y-95810322D01*
X138128835Y-95801691D01*
X138096447Y-95796966D01*
X138063505Y-95792160D01*
X138063501Y-95792160D01*
X138058979Y-95791500D01*
X137439802Y-95791500D01*
X136816022Y-95791501D01*
X136745557Y-95801873D01*
X136736765Y-95806190D01*
X136736764Y-95806190D01*
X136647771Y-95849883D01*
X136647769Y-95849884D01*
X136638423Y-95854473D01*
X136634735Y-95858167D01*
X136570560Y-95880561D01*
X136555011Y-95876830D01*
X136560826Y-95906592D01*
X136548566Y-95950268D01*
X136501691Y-96046165D01*
X136500279Y-96055845D01*
X136494627Y-96094589D01*
X136491500Y-96116021D01*
X135076938Y-96116021D01*
X135034012Y-96073095D01*
X134999986Y-96010783D01*
X135005051Y-95939968D01*
X135047598Y-95883132D01*
X135114118Y-95858321D01*
X135123107Y-95858000D01*
X135417385Y-95858000D01*
X135432624Y-95853525D01*
X135433829Y-95852135D01*
X135435500Y-95844452D01*
X135435500Y-95839884D01*
X135689500Y-95839884D01*
X135693975Y-95855123D01*
X135695365Y-95856328D01*
X135703048Y-95857999D01*
X136179321Y-95857999D01*
X136188490Y-95857328D01*
X136244609Y-95849068D01*
X136263088Y-95843326D01*
X136351931Y-95799706D01*
X136362017Y-95792485D01*
X136429050Y-95769093D01*
X136444602Y-95772824D01*
X136438787Y-95743059D01*
X136451046Y-95699385D01*
X136461208Y-95678596D01*
X161662118Y-95678596D01*
X161662168Y-95679642D01*
X161667059Y-95687454D01*
X162937188Y-96957583D01*
X162951132Y-96965197D01*
X162952965Y-96965066D01*
X162959580Y-96960815D01*
X164232344Y-95688051D01*
X164239198Y-95675499D01*
X164230991Y-95664429D01*
X164031274Y-95512010D01*
X164023849Y-95507133D01*
X163789696Y-95376001D01*
X163781643Y-95372212D01*
X163531357Y-95275383D01*
X163522867Y-95272771D01*
X163261420Y-95212172D01*
X163252642Y-95210782D01*
X162985265Y-95187624D01*
X162976394Y-95187484D01*
X162708414Y-95202232D01*
X162699604Y-95203346D01*
X162436381Y-95255704D01*
X162427823Y-95258045D01*
X162174588Y-95346975D01*
X162166454Y-95350495D01*
X161928285Y-95474214D01*
X161920713Y-95478853D01*
X161702358Y-95634892D01*
X161695514Y-95640553D01*
X161670056Y-95664839D01*
X161662118Y-95678596D01*
X136461208Y-95678596D01*
X136493529Y-95612475D01*
X136499235Y-95594014D01*
X136507340Y-95538457D01*
X136508000Y-95529358D01*
X136508000Y-95495115D01*
X136503525Y-95479876D01*
X136502135Y-95478671D01*
X136494452Y-95477000D01*
X135707615Y-95477000D01*
X135692376Y-95481475D01*
X135691171Y-95482865D01*
X135689500Y-95490548D01*
X135689500Y-95839884D01*
X135435500Y-95839884D01*
X135435500Y-95204885D01*
X135689500Y-95204885D01*
X135693975Y-95220124D01*
X135695365Y-95221329D01*
X135703048Y-95223000D01*
X136489884Y-95223000D01*
X136505123Y-95218525D01*
X136506328Y-95217135D01*
X136507999Y-95209452D01*
X136507999Y-95170679D01*
X136507328Y-95161510D01*
X136499068Y-95105391D01*
X136493326Y-95086912D01*
X136449705Y-94998067D01*
X136437745Y-94981360D01*
X136368135Y-94911873D01*
X136351413Y-94899945D01*
X136262475Y-94856471D01*
X136244014Y-94850765D01*
X136188457Y-94842660D01*
X136179358Y-94842000D01*
X135707615Y-94842000D01*
X135692376Y-94846475D01*
X135691171Y-94847865D01*
X135689500Y-94855548D01*
X135689500Y-95204885D01*
X135435500Y-95204885D01*
X135435500Y-94860116D01*
X135431025Y-94844877D01*
X135429635Y-94843672D01*
X135410571Y-94839525D01*
X135348259Y-94805499D01*
X135317069Y-94748380D01*
X139682000Y-94748380D01*
X139682670Y-94757539D01*
X139690643Y-94811695D01*
X139696386Y-94830177D01*
X139738538Y-94916031D01*
X139750497Y-94932736D01*
X139817750Y-94999872D01*
X139834478Y-95011804D01*
X139920418Y-95053812D01*
X139938885Y-95059520D01*
X139992487Y-95067340D01*
X140001587Y-95068000D01*
X140054885Y-95068000D01*
X140070124Y-95063525D01*
X140071329Y-95062135D01*
X140073000Y-95054452D01*
X140073000Y-95049885D01*
X140327000Y-95049885D01*
X140331475Y-95065124D01*
X140332865Y-95066329D01*
X140340548Y-95068000D01*
X140398380Y-95068000D01*
X140407539Y-95067330D01*
X140461695Y-95059357D01*
X140480177Y-95053614D01*
X140566031Y-95011462D01*
X140582736Y-94999503D01*
X140649872Y-94932250D01*
X140661804Y-94915522D01*
X140703812Y-94829582D01*
X140709520Y-94811115D01*
X140717340Y-94757513D01*
X140718000Y-94748413D01*
X140718000Y-94725115D01*
X140713525Y-94709876D01*
X140712135Y-94708671D01*
X140704452Y-94707000D01*
X140345115Y-94707000D01*
X140329876Y-94711475D01*
X140328671Y-94712865D01*
X140327000Y-94720548D01*
X140327000Y-95049885D01*
X140073000Y-95049885D01*
X140073000Y-94725115D01*
X140068525Y-94709876D01*
X140067135Y-94708671D01*
X140059452Y-94707000D01*
X139700115Y-94707000D01*
X139684876Y-94711475D01*
X139683671Y-94712865D01*
X139682000Y-94720548D01*
X139682000Y-94748380D01*
X135317069Y-94748380D01*
X135314233Y-94743187D01*
X135319298Y-94672371D01*
X135348259Y-94627309D01*
X135880163Y-94095405D01*
X135942475Y-94061379D01*
X135969258Y-94058500D01*
X139627267Y-94058500D01*
X139695388Y-94078502D01*
X139741881Y-94132158D01*
X139751985Y-94202432D01*
X139740467Y-94239834D01*
X139696187Y-94330421D01*
X139690480Y-94348885D01*
X139682660Y-94402487D01*
X139682000Y-94411587D01*
X139682000Y-94434885D01*
X139686475Y-94450124D01*
X139687865Y-94451329D01*
X139695548Y-94453000D01*
X140699885Y-94453000D01*
X140715124Y-94448525D01*
X140716329Y-94447135D01*
X140718000Y-94439452D01*
X140718000Y-94411620D01*
X140717330Y-94402461D01*
X140709357Y-94348305D01*
X140703614Y-94329823D01*
X140661462Y-94243969D01*
X140649500Y-94227260D01*
X140611708Y-94189533D01*
X140577629Y-94127251D01*
X140582632Y-94056431D01*
X140611552Y-94011344D01*
X140650286Y-93972542D01*
X140657642Y-93965173D01*
X140661687Y-93956899D01*
X140716978Y-93913488D01*
X140763714Y-93904500D01*
X141982096Y-93904500D01*
X142052097Y-93925734D01*
X142115832Y-93968320D01*
X142115834Y-93968321D01*
X142126149Y-93975213D01*
X142138318Y-93977634D01*
X142138319Y-93977634D01*
X142182033Y-93986329D01*
X142192947Y-93988500D01*
X142979872Y-93988500D01*
X143767052Y-93988499D01*
X143833851Y-93975213D01*
X143909600Y-93924600D01*
X143938692Y-93881060D01*
X143953320Y-93859168D01*
X143953321Y-93859166D01*
X143960213Y-93848851D01*
X143973500Y-93782053D01*
X143973500Y-93775821D01*
X147727000Y-93775821D01*
X147728207Y-93788076D01*
X147737836Y-93836486D01*
X147747150Y-93858972D01*
X147783867Y-93913924D01*
X147801076Y-93931133D01*
X147856028Y-93967850D01*
X147878514Y-93977164D01*
X147926924Y-93986793D01*
X147939179Y-93988000D01*
X148574885Y-93988000D01*
X148590124Y-93983525D01*
X148591329Y-93982135D01*
X148593000Y-93974452D01*
X148593000Y-93969885D01*
X148847000Y-93969885D01*
X148851475Y-93985124D01*
X148852865Y-93986329D01*
X148860548Y-93988000D01*
X149500821Y-93988000D01*
X149513076Y-93986793D01*
X149561486Y-93977164D01*
X149583972Y-93967850D01*
X149638924Y-93931133D01*
X149656133Y-93913924D01*
X149692850Y-93858972D01*
X149702164Y-93836486D01*
X149711793Y-93788076D01*
X149713000Y-93775821D01*
X149713000Y-93720115D01*
X149708525Y-93704876D01*
X149707135Y-93703671D01*
X149699452Y-93702000D01*
X148865115Y-93702000D01*
X148849876Y-93706475D01*
X148848671Y-93707865D01*
X148847000Y-93715548D01*
X148847000Y-93969885D01*
X148593000Y-93969885D01*
X148593000Y-93720115D01*
X148588525Y-93704876D01*
X148587135Y-93703671D01*
X148579452Y-93702000D01*
X147745115Y-93702000D01*
X147729876Y-93706475D01*
X147728671Y-93707865D01*
X147727000Y-93715548D01*
X147727000Y-93775821D01*
X143973500Y-93775821D01*
X143973499Y-93367948D01*
X143965346Y-93326957D01*
X143962634Y-93313319D01*
X143962633Y-93313317D01*
X143960213Y-93301149D01*
X143955775Y-93294507D01*
X143948515Y-93226959D01*
X143956103Y-93201117D01*
X143962164Y-93186484D01*
X143971793Y-93138076D01*
X143973000Y-93125821D01*
X143973000Y-93070115D01*
X143968525Y-93054876D01*
X143967135Y-93053671D01*
X143959452Y-93052000D01*
X142005115Y-93052000D01*
X141989876Y-93056475D01*
X141988671Y-93057865D01*
X141987000Y-93065548D01*
X141987000Y-93111500D01*
X141966998Y-93179621D01*
X141913342Y-93226114D01*
X141861000Y-93237500D01*
X140672521Y-93237500D01*
X140604400Y-93217498D01*
X140583506Y-93200676D01*
X140582543Y-93199715D01*
X140575173Y-93192358D01*
X140565818Y-93187785D01*
X140479726Y-93145701D01*
X140479724Y-93145701D01*
X140470939Y-93141406D01*
X140461262Y-93139994D01*
X140461261Y-93139994D01*
X140437651Y-93136550D01*
X140403034Y-93131500D01*
X139996966Y-93131500D01*
X139992417Y-93132170D01*
X139992412Y-93132170D01*
X139938157Y-93140157D01*
X139919807Y-93141500D01*
X135761843Y-93141500D01*
X135747034Y-93140627D01*
X135743063Y-93140157D01*
X135712587Y-93136550D01*
X135703323Y-93138242D01*
X135703322Y-93138242D01*
X135653807Y-93147285D01*
X135649903Y-93147935D01*
X135590811Y-93156819D01*
X135584188Y-93159999D01*
X135576957Y-93161320D01*
X135568603Y-93165660D01*
X135568599Y-93165661D01*
X135523927Y-93188867D01*
X135520386Y-93190636D01*
X135466525Y-93216500D01*
X135461219Y-93221404D01*
X135460975Y-93221569D01*
X135454607Y-93224877D01*
X135449471Y-93229263D01*
X135411540Y-93267194D01*
X135407974Y-93270624D01*
X135372194Y-93303698D01*
X135372192Y-93303700D01*
X135365282Y-93310088D01*
X135361539Y-93316531D01*
X135355843Y-93322891D01*
X134000324Y-94678410D01*
X133989235Y-94688265D01*
X133961993Y-94709741D01*
X133956640Y-94717486D01*
X133956638Y-94717488D01*
X133938152Y-94744235D01*
X133882966Y-94788901D01*
X133812392Y-94796640D01*
X133748838Y-94764996D01*
X133712480Y-94704015D01*
X133708500Y-94672595D01*
X133708500Y-93634692D01*
X133709373Y-93619883D01*
X133712343Y-93594789D01*
X133713450Y-93585436D01*
X133702713Y-93526641D01*
X133702067Y-93522762D01*
X133694581Y-93472968D01*
X133694580Y-93472965D01*
X133693181Y-93463660D01*
X133690002Y-93457039D01*
X133688681Y-93449807D01*
X133661126Y-93396763D01*
X133659358Y-93393223D01*
X133637578Y-93347865D01*
X133637576Y-93347862D01*
X133633500Y-93339374D01*
X133628598Y-93334071D01*
X133628431Y-93333824D01*
X133625124Y-93327457D01*
X133620737Y-93322320D01*
X133582806Y-93284389D01*
X133579376Y-93280823D01*
X133546302Y-93245043D01*
X133546300Y-93245041D01*
X133539912Y-93238131D01*
X133533469Y-93234388D01*
X133527109Y-93228692D01*
X133198741Y-92900324D01*
X133188886Y-92889235D01*
X133188209Y-92888376D01*
X133167410Y-92861993D01*
X133159665Y-92856640D01*
X133159663Y-92856638D01*
X133118239Y-92828008D01*
X133115021Y-92825708D01*
X133074546Y-92795813D01*
X133074544Y-92795812D01*
X133066969Y-92790217D01*
X133060040Y-92787784D01*
X133053991Y-92783603D01*
X132996955Y-92765565D01*
X132993290Y-92764342D01*
X132936885Y-92744534D01*
X132929663Y-92744250D01*
X132929383Y-92744195D01*
X132922535Y-92742030D01*
X132915801Y-92741500D01*
X132862145Y-92741500D01*
X132857198Y-92741403D01*
X132799119Y-92739121D01*
X132791915Y-92741031D01*
X132783395Y-92741500D01*
X128930723Y-92741500D01*
X128912535Y-92740180D01*
X128905275Y-92739121D01*
X128853034Y-92731500D01*
X128446966Y-92731500D01*
X128442417Y-92732170D01*
X128442412Y-92732170D01*
X128388155Y-92740157D01*
X128388153Y-92740158D01*
X128378470Y-92741583D01*
X128369682Y-92745898D01*
X128369681Y-92745898D01*
X128364172Y-92748603D01*
X128308641Y-92761500D01*
X118441193Y-92761500D01*
X118385861Y-92748700D01*
X118381209Y-92746426D01*
X118379724Y-92745700D01*
X118379722Y-92745699D01*
X118370939Y-92741406D01*
X118361262Y-92739994D01*
X118361261Y-92739994D01*
X118343671Y-92737428D01*
X118303034Y-92731500D01*
X117896966Y-92731500D01*
X117892417Y-92732170D01*
X117892412Y-92732170D01*
X117838155Y-92740157D01*
X117838153Y-92740158D01*
X117828470Y-92741583D01*
X117819682Y-92745898D01*
X117819681Y-92745898D01*
X117814172Y-92748603D01*
X117758641Y-92761500D01*
X115412107Y-92761500D01*
X115343986Y-92741498D01*
X115323012Y-92724595D01*
X114799850Y-92201433D01*
X114775573Y-92183502D01*
X114724546Y-92145813D01*
X114724544Y-92145812D01*
X114716969Y-92140217D01*
X114586885Y-92094534D01*
X114577474Y-92094164D01*
X114577473Y-92094164D01*
X114532045Y-92092379D01*
X114449119Y-92089121D01*
X114440019Y-92091534D01*
X114440017Y-92091534D01*
X114324951Y-92122043D01*
X114324950Y-92122044D01*
X114315851Y-92124456D01*
X114297783Y-92135724D01*
X114279040Y-92147413D01*
X114212364Y-92166500D01*
X111302787Y-92166500D01*
X111234666Y-92146498D01*
X111220274Y-92135724D01*
X111212135Y-92128671D01*
X111204452Y-92127000D01*
X109620116Y-92127000D01*
X109604877Y-92131475D01*
X109603672Y-92132865D01*
X109602001Y-92140548D01*
X109602001Y-92164298D01*
X109603209Y-92176558D01*
X109612672Y-92224138D01*
X109612672Y-92273297D01*
X109601500Y-92329463D01*
X109601501Y-92670536D01*
X109602709Y-92676608D01*
X109612417Y-92725420D01*
X109612417Y-92774579D01*
X109601500Y-92829463D01*
X109601501Y-93170536D01*
X109610643Y-93216500D01*
X109612417Y-93225420D01*
X109612417Y-93274579D01*
X109601500Y-93329463D01*
X109601501Y-93670536D01*
X109609052Y-93708500D01*
X109612417Y-93725420D01*
X109612417Y-93774579D01*
X109601500Y-93829463D01*
X91722415Y-93829463D01*
X91791529Y-93745247D01*
X91802520Y-93724685D01*
X91854355Y-93627709D01*
X91854356Y-93627706D01*
X91857272Y-93622251D01*
X91897756Y-93488793D01*
X91909077Y-93373847D01*
X91911723Y-93357755D01*
X91913348Y-93350745D01*
X91913349Y-93350000D01*
X91911154Y-93340379D01*
X91908000Y-93312364D01*
X91908000Y-91854885D01*
X109602000Y-91854885D01*
X109606475Y-91870124D01*
X109607865Y-91871329D01*
X109615548Y-91873000D01*
X110264885Y-91873000D01*
X110280124Y-91868525D01*
X110281329Y-91867135D01*
X110283000Y-91859452D01*
X110283000Y-91854885D01*
X110537000Y-91854885D01*
X110541475Y-91870124D01*
X110542865Y-91871329D01*
X110550548Y-91873000D01*
X111199884Y-91873000D01*
X111215123Y-91868525D01*
X111216328Y-91867135D01*
X111217999Y-91859452D01*
X111217999Y-91835702D01*
X111216791Y-91823442D01*
X111207073Y-91774580D01*
X111207073Y-91725419D01*
X111216793Y-91676553D01*
X111218000Y-91664300D01*
X111218000Y-91645115D01*
X111213525Y-91629876D01*
X111212135Y-91628671D01*
X111204452Y-91627000D01*
X110555115Y-91627000D01*
X110539876Y-91631475D01*
X110538671Y-91632865D01*
X110537000Y-91640548D01*
X110537000Y-91854885D01*
X110283000Y-91854885D01*
X110283000Y-91645115D01*
X110278525Y-91629876D01*
X110277135Y-91628671D01*
X110269452Y-91627000D01*
X109620116Y-91627000D01*
X109604877Y-91631475D01*
X109603672Y-91632865D01*
X109602001Y-91640548D01*
X109602001Y-91664298D01*
X109603209Y-91676558D01*
X109612927Y-91725420D01*
X109612927Y-91774581D01*
X109603207Y-91823447D01*
X109602000Y-91835700D01*
X109602000Y-91854885D01*
X91908000Y-91854885D01*
X91908000Y-88388230D01*
X91911254Y-88359779D01*
X91911737Y-88357697D01*
X91911737Y-88357694D01*
X91913348Y-88350745D01*
X91913349Y-88350000D01*
X91911734Y-88342919D01*
X91909185Y-88327246D01*
X91907256Y-88307664D01*
X91897756Y-88211207D01*
X91857272Y-88077749D01*
X91849575Y-88063348D01*
X91794447Y-87960212D01*
X91794447Y-87960211D01*
X91791529Y-87954753D01*
X91703054Y-87846946D01*
X91595247Y-87758471D01*
X91563759Y-87741640D01*
X91477709Y-87695645D01*
X91477706Y-87695644D01*
X91472251Y-87692728D01*
X91338793Y-87652244D01*
X91223847Y-87640923D01*
X91207755Y-87638277D01*
X91200745Y-87636652D01*
X91200000Y-87636651D01*
X91190379Y-87638846D01*
X91162364Y-87642000D01*
X89737933Y-87642000D01*
X89718898Y-87639839D01*
X89714200Y-87639831D01*
X89700372Y-87636651D01*
X89686532Y-87639782D01*
X89683394Y-87639777D01*
X89671275Y-87639170D01*
X89557839Y-87627998D01*
X89533617Y-87623181D01*
X89457578Y-87600115D01*
X89408787Y-87585315D01*
X89385970Y-87575863D01*
X89270927Y-87514371D01*
X89250393Y-87500650D01*
X89242013Y-87493772D01*
X89149563Y-87417901D01*
X89132098Y-87400436D01*
X89049348Y-87299605D01*
X89035627Y-87279070D01*
X89035324Y-87278502D01*
X88974137Y-87164030D01*
X88964685Y-87141212D01*
X88957044Y-87116021D01*
X88926819Y-87016383D01*
X88922001Y-86992158D01*
X88921360Y-86985644D01*
X88910774Y-86878160D01*
X88910167Y-86865594D01*
X88910169Y-86864200D01*
X88913349Y-86850372D01*
X88910217Y-86836531D01*
X88910224Y-86832564D01*
X88908000Y-86812656D01*
X88908000Y-86122747D01*
X90162815Y-86122747D01*
X90170205Y-86133049D01*
X90317807Y-86253216D01*
X90325086Y-86258331D01*
X90554999Y-86396750D01*
X90562913Y-86400783D01*
X90810048Y-86505431D01*
X90818453Y-86508308D01*
X91077873Y-86577093D01*
X91086585Y-86578755D01*
X91353114Y-86610300D01*
X91361979Y-86610718D01*
X91630278Y-86604395D01*
X91639133Y-86603558D01*
X91903864Y-86559495D01*
X91912498Y-86557422D01*
X92168383Y-86476496D01*
X92176644Y-86473225D01*
X92418567Y-86357055D01*
X92426292Y-86352649D01*
X92649431Y-86203553D01*
X92656458Y-86198103D01*
X92728442Y-86133627D01*
X92736805Y-86120132D01*
X92731116Y-86110721D01*
X91462812Y-84842417D01*
X91448868Y-84834803D01*
X91447035Y-84834934D01*
X91440420Y-84839185D01*
X90169981Y-86109624D01*
X90162815Y-86122747D01*
X88908000Y-86122747D01*
X88908000Y-84592793D01*
X89488142Y-84592793D01*
X89498678Y-84860960D01*
X89499653Y-84869789D01*
X89547869Y-85133799D01*
X89550078Y-85142401D01*
X89635012Y-85396979D01*
X89638416Y-85405196D01*
X89758373Y-85645269D01*
X89762891Y-85652908D01*
X89915480Y-85873687D01*
X89921043Y-85880629D01*
X89965773Y-85929018D01*
X89979407Y-85937173D01*
X89979926Y-85937157D01*
X89988536Y-85931859D01*
X91257583Y-84662812D01*
X91263961Y-84651132D01*
X91634803Y-84651132D01*
X91634934Y-84652965D01*
X91639185Y-84659580D01*
X92908982Y-85929377D01*
X92922382Y-85936694D01*
X92932287Y-85929706D01*
X93035237Y-85807232D01*
X93040457Y-85800047D01*
X93182480Y-85572321D01*
X93186632Y-85564481D01*
X93295151Y-85319014D01*
X93298161Y-85310653D01*
X93371005Y-85052365D01*
X93372809Y-85043657D01*
X93408701Y-84776440D01*
X93409229Y-84770047D01*
X93412901Y-84653222D01*
X93412774Y-84646779D01*
X93393733Y-84377863D01*
X93392480Y-84369053D01*
X93335994Y-84106687D01*
X93333518Y-84098166D01*
X93240627Y-83846373D01*
X93236972Y-83838278D01*
X93144839Y-83667526D01*
X94451335Y-83667526D01*
X94458206Y-83729758D01*
X94468550Y-83823452D01*
X94470153Y-83837975D01*
X94472762Y-83845106D01*
X94472763Y-83845108D01*
X94480688Y-83866764D01*
X94529085Y-83999015D01*
X94533322Y-84005321D01*
X94533324Y-84005324D01*
X94562257Y-84048380D01*
X94624730Y-84141349D01*
X94651041Y-84165290D01*
X94728356Y-84235641D01*
X94751565Y-84256760D01*
X94765620Y-84264391D01*
X94815942Y-84314473D01*
X94831500Y-84375123D01*
X94831500Y-84663575D01*
X94831020Y-84674557D01*
X94827644Y-84713143D01*
X94830497Y-84723789D01*
X94830497Y-84723793D01*
X94837672Y-84750569D01*
X94840051Y-84761300D01*
X94846778Y-84799451D01*
X94852290Y-84808997D01*
X94853604Y-84812609D01*
X94855231Y-84816098D01*
X94858084Y-84826746D01*
X94880312Y-84858491D01*
X94886207Y-84867744D01*
X94905583Y-84901305D01*
X94922885Y-84915823D01*
X94935272Y-84926217D01*
X94943376Y-84933644D01*
X101231357Y-91221625D01*
X101238784Y-91229729D01*
X101263695Y-91259417D01*
X101295234Y-91277626D01*
X101297252Y-91278791D01*
X101306509Y-91284688D01*
X101338254Y-91306916D01*
X101348902Y-91309769D01*
X101352391Y-91311396D01*
X101356003Y-91312710D01*
X101365549Y-91318222D01*
X101402387Y-91324717D01*
X101403700Y-91324949D01*
X101414431Y-91327328D01*
X101441207Y-91334503D01*
X101441211Y-91334503D01*
X101451857Y-91337356D01*
X101490458Y-91333979D01*
X101501439Y-91333500D01*
X109517213Y-91333500D01*
X109585334Y-91353502D01*
X109599726Y-91364276D01*
X109607865Y-91371329D01*
X109615548Y-91373000D01*
X111199884Y-91373000D01*
X111225866Y-91365371D01*
X111267516Y-91338604D01*
X111303015Y-91333500D01*
X114476538Y-91333500D01*
X114544659Y-91353502D01*
X114565633Y-91370405D01*
X115439444Y-92244216D01*
X115446871Y-92252320D01*
X115471782Y-92282008D01*
X115505339Y-92301382D01*
X115514596Y-92307279D01*
X115546341Y-92329507D01*
X115556989Y-92332360D01*
X115560478Y-92333987D01*
X115564090Y-92335301D01*
X115573636Y-92340813D01*
X115610474Y-92347308D01*
X115611787Y-92347540D01*
X115622518Y-92349919D01*
X115649294Y-92357094D01*
X115649298Y-92357094D01*
X115659944Y-92359947D01*
X115698545Y-92356570D01*
X115709526Y-92356091D01*
X140877459Y-92356091D01*
X140945580Y-92376093D01*
X140966554Y-92392996D01*
X141070783Y-92497225D01*
X141078210Y-92505329D01*
X141103121Y-92535017D01*
X141136678Y-92554391D01*
X141145935Y-92560288D01*
X141177680Y-92582516D01*
X141188329Y-92585369D01*
X141191822Y-92586998D01*
X141195431Y-92588312D01*
X141204975Y-92593822D01*
X141240013Y-92600000D01*
X141243127Y-92600549D01*
X141253861Y-92602929D01*
X141280632Y-92610103D01*
X141280634Y-92610103D01*
X141291284Y-92612957D01*
X141302269Y-92611996D01*
X141302271Y-92611996D01*
X141329881Y-92609580D01*
X141340863Y-92609100D01*
X141861000Y-92609100D01*
X141929121Y-92629102D01*
X141975614Y-92682758D01*
X141987000Y-92735100D01*
X141987000Y-92779885D01*
X141991475Y-92795124D01*
X141992865Y-92796329D01*
X142000548Y-92798000D01*
X143954885Y-92798000D01*
X143970124Y-92793525D01*
X143971329Y-92792135D01*
X143973000Y-92784452D01*
X143973000Y-92724179D01*
X143972386Y-92717947D01*
X147726500Y-92717947D01*
X147726501Y-93132052D01*
X147728380Y-93141500D01*
X147732060Y-93159999D01*
X147739787Y-93198851D01*
X147744225Y-93205493D01*
X147751485Y-93273041D01*
X147743897Y-93298883D01*
X147737836Y-93313516D01*
X147728207Y-93361924D01*
X147727000Y-93374179D01*
X147727000Y-93429885D01*
X147731475Y-93445124D01*
X147732865Y-93446329D01*
X147740548Y-93448000D01*
X149694885Y-93448000D01*
X149710124Y-93443525D01*
X149711329Y-93442135D01*
X149713000Y-93434452D01*
X149713000Y-93395500D01*
X149733002Y-93327379D01*
X149786658Y-93280886D01*
X149839000Y-93269500D01*
X150367370Y-93269500D01*
X150435491Y-93289502D01*
X150456465Y-93306405D01*
X151741685Y-94591625D01*
X151749112Y-94599729D01*
X151774023Y-94629417D01*
X151807580Y-94648791D01*
X151816837Y-94654688D01*
X151848582Y-94676916D01*
X151859230Y-94679769D01*
X151862719Y-94681396D01*
X151866331Y-94682710D01*
X151875877Y-94688222D01*
X151912715Y-94694717D01*
X151914028Y-94694949D01*
X151924759Y-94697328D01*
X151951535Y-94704503D01*
X151951539Y-94704503D01*
X151962185Y-94707356D01*
X152000786Y-94703979D01*
X152011767Y-94703500D01*
X158304328Y-94703500D01*
X158372449Y-94723502D01*
X158416394Y-94771906D01*
X158456146Y-94849255D01*
X158498800Y-94932250D01*
X158505955Y-94946173D01*
X158509786Y-94951007D01*
X158509787Y-94951008D01*
X158560309Y-95014751D01*
X158634894Y-95108854D01*
X158639581Y-95112843D01*
X158639584Y-95112846D01*
X158762045Y-95217068D01*
X158792976Y-95243392D01*
X158974180Y-95344664D01*
X159171603Y-95408810D01*
X159377725Y-95433389D01*
X159383860Y-95432917D01*
X159383862Y-95432917D01*
X159578555Y-95417936D01*
X159578560Y-95417935D01*
X159584696Y-95417463D01*
X159590626Y-95415807D01*
X159590628Y-95415807D01*
X159721395Y-95379296D01*
X159784632Y-95361640D01*
X159793497Y-95357162D01*
X159964416Y-95270825D01*
X159964418Y-95270824D01*
X159969917Y-95268046D01*
X160106277Y-95161510D01*
X160128634Y-95144043D01*
X160128635Y-95144042D01*
X160133495Y-95140245D01*
X160269133Y-94983106D01*
X160281503Y-94961332D01*
X160344313Y-94850765D01*
X160371667Y-94802614D01*
X160437190Y-94605644D01*
X160463207Y-94399698D01*
X160463622Y-94370000D01*
X160448834Y-94219180D01*
X160443966Y-94169534D01*
X160443965Y-94169531D01*
X160443365Y-94163408D01*
X160389056Y-93983525D01*
X160385152Y-93970593D01*
X160385151Y-93970590D01*
X160383368Y-93964685D01*
X160374967Y-93948885D01*
X160288809Y-93786847D01*
X160288808Y-93786845D01*
X160285913Y-93781401D01*
X160221155Y-93702000D01*
X160158610Y-93625311D01*
X160158607Y-93625308D01*
X160154715Y-93620536D01*
X160149628Y-93616327D01*
X159999518Y-93492145D01*
X159999519Y-93492145D01*
X159994770Y-93488217D01*
X159989353Y-93485288D01*
X159989350Y-93485286D01*
X159817590Y-93392416D01*
X159817585Y-93392414D01*
X159812170Y-93389486D01*
X159613871Y-93328102D01*
X159607746Y-93327458D01*
X159607745Y-93327458D01*
X159413554Y-93307048D01*
X159413552Y-93307048D01*
X159407425Y-93306404D01*
X159321515Y-93314223D01*
X159206836Y-93324659D01*
X159206833Y-93324660D01*
X159200697Y-93325218D01*
X159194791Y-93326956D01*
X159194787Y-93326957D01*
X159113963Y-93350745D01*
X159001560Y-93383827D01*
X158817600Y-93479999D01*
X158655823Y-93610071D01*
X158651865Y-93614788D01*
X158651863Y-93614790D01*
X158581543Y-93698594D01*
X158522391Y-93769089D01*
X158519427Y-93774481D01*
X158519424Y-93774485D01*
X158425355Y-93945595D01*
X158425353Y-93945601D01*
X158422387Y-93950995D01*
X158420524Y-93956868D01*
X158419124Y-93960135D01*
X158373904Y-94014868D01*
X158303312Y-94036500D01*
X157969372Y-94036500D01*
X157901251Y-94016498D01*
X157854758Y-93962842D01*
X157844654Y-93892568D01*
X157872849Y-93829510D01*
X157873071Y-93829246D01*
X157880496Y-93821144D01*
X158861311Y-92840329D01*
X158923623Y-92806303D01*
X158989341Y-92809591D01*
X159134141Y-92856638D01*
X159171603Y-92868810D01*
X159377725Y-92893389D01*
X159383860Y-92892917D01*
X159383862Y-92892917D01*
X159578555Y-92877936D01*
X159578560Y-92877935D01*
X159584696Y-92877463D01*
X159590626Y-92875807D01*
X159590628Y-92875807D01*
X159717695Y-92840329D01*
X159784632Y-92821640D01*
X159790132Y-92818862D01*
X159964416Y-92730825D01*
X159964418Y-92730824D01*
X159969917Y-92728046D01*
X160105171Y-92622374D01*
X160128634Y-92604043D01*
X160128635Y-92604042D01*
X160133495Y-92600245D01*
X160269133Y-92443106D01*
X160371667Y-92262614D01*
X160437190Y-92065644D01*
X160463207Y-91859698D01*
X160463428Y-91843848D01*
X160463573Y-91833522D01*
X160463573Y-91833518D01*
X160463622Y-91830000D01*
X160447375Y-91664300D01*
X160443966Y-91629534D01*
X160443965Y-91629531D01*
X160443365Y-91623408D01*
X160383368Y-91424685D01*
X160379786Y-91417948D01*
X160288809Y-91246847D01*
X160288808Y-91246845D01*
X160285913Y-91241401D01*
X160209640Y-91147881D01*
X160158610Y-91085311D01*
X160158607Y-91085308D01*
X160154715Y-91080536D01*
X160147770Y-91074790D01*
X159999518Y-90952145D01*
X159999519Y-90952145D01*
X159994770Y-90948217D01*
X159989353Y-90945288D01*
X159989350Y-90945286D01*
X159817590Y-90852416D01*
X159817585Y-90852414D01*
X159812170Y-90849486D01*
X159613871Y-90788102D01*
X159607746Y-90787458D01*
X159607745Y-90787458D01*
X159413554Y-90767048D01*
X159413552Y-90767048D01*
X159407425Y-90766404D01*
X159322488Y-90774134D01*
X159206836Y-90784659D01*
X159206833Y-90784660D01*
X159200697Y-90785218D01*
X159194791Y-90786956D01*
X159194787Y-90786957D01*
X159062454Y-90825905D01*
X159001560Y-90843827D01*
X158817600Y-90939999D01*
X158655823Y-91070071D01*
X158590533Y-91147881D01*
X158531423Y-91187208D01*
X158460436Y-91188334D01*
X158400108Y-91150903D01*
X158369594Y-91086798D01*
X158368011Y-91066890D01*
X158368011Y-90845819D01*
X158388013Y-90777698D01*
X158404916Y-90756724D01*
X158861311Y-90300329D01*
X158923623Y-90266303D01*
X158989341Y-90269591D01*
X159163103Y-90326048D01*
X159171603Y-90328810D01*
X159377725Y-90353389D01*
X159383860Y-90352917D01*
X159383862Y-90352917D01*
X159578555Y-90337936D01*
X159578560Y-90337935D01*
X159584696Y-90337463D01*
X159590626Y-90335807D01*
X159590628Y-90335807D01*
X159717695Y-90300329D01*
X159784632Y-90281640D01*
X159808485Y-90269591D01*
X159964416Y-90190825D01*
X159964418Y-90190824D01*
X159969917Y-90188046D01*
X160133495Y-90060245D01*
X160269133Y-89903106D01*
X160277640Y-89888132D01*
X160318873Y-89815548D01*
X160371667Y-89722614D01*
X160437190Y-89525644D01*
X160463207Y-89319698D01*
X160463622Y-89290000D01*
X160450666Y-89157865D01*
X160443966Y-89089534D01*
X160443965Y-89089531D01*
X160443365Y-89083408D01*
X160390916Y-88909684D01*
X160385152Y-88890593D01*
X160385151Y-88890590D01*
X160383368Y-88884685D01*
X160366788Y-88853502D01*
X160288809Y-88706847D01*
X160288808Y-88706845D01*
X160285913Y-88701401D01*
X160216530Y-88616329D01*
X160158610Y-88545311D01*
X160158607Y-88545308D01*
X160154715Y-88540536D01*
X160147770Y-88534790D01*
X159999518Y-88412145D01*
X159999519Y-88412145D01*
X159994770Y-88408217D01*
X159989353Y-88405288D01*
X159989350Y-88405286D01*
X159817590Y-88312416D01*
X159817585Y-88312414D01*
X159812170Y-88309486D01*
X159613871Y-88248102D01*
X159607746Y-88247458D01*
X159607745Y-88247458D01*
X159413554Y-88227048D01*
X159413552Y-88227048D01*
X159407425Y-88226404D01*
X159336432Y-88232865D01*
X159206836Y-88244659D01*
X159206833Y-88244660D01*
X159200697Y-88245218D01*
X159194791Y-88246956D01*
X159194787Y-88246957D01*
X159048445Y-88290028D01*
X159001560Y-88303827D01*
X158817600Y-88399999D01*
X158655823Y-88530071D01*
X158610125Y-88584532D01*
X158590533Y-88607881D01*
X158531423Y-88647208D01*
X158460436Y-88648334D01*
X158400108Y-88610903D01*
X158369594Y-88546798D01*
X158368011Y-88526890D01*
X158368011Y-88305819D01*
X158388013Y-88237698D01*
X158404916Y-88216724D01*
X158861311Y-87760329D01*
X158923623Y-87726303D01*
X158989341Y-87729591D01*
X159151142Y-87782162D01*
X159171603Y-87788810D01*
X159377725Y-87813389D01*
X159383860Y-87812917D01*
X159383862Y-87812917D01*
X159578555Y-87797936D01*
X159578560Y-87797935D01*
X159584696Y-87797463D01*
X159590626Y-87795807D01*
X159590628Y-87795807D01*
X159734801Y-87755553D01*
X159784632Y-87741640D01*
X159790132Y-87738862D01*
X159964416Y-87650825D01*
X159964418Y-87650824D01*
X159969917Y-87648046D01*
X160133495Y-87520245D01*
X160269133Y-87363106D01*
X160371667Y-87182614D01*
X160437190Y-86985644D01*
X160463207Y-86779698D01*
X160463622Y-86750000D01*
X160450887Y-86620124D01*
X160443966Y-86549534D01*
X160443965Y-86549531D01*
X160443365Y-86543408D01*
X160387103Y-86357055D01*
X160385152Y-86350593D01*
X160385151Y-86350590D01*
X160383368Y-86344685D01*
X160372809Y-86324827D01*
X160288809Y-86166847D01*
X160288808Y-86166845D01*
X160285913Y-86161401D01*
X160254388Y-86122747D01*
X161662815Y-86122747D01*
X161670205Y-86133049D01*
X161817807Y-86253216D01*
X161825086Y-86258331D01*
X162054999Y-86396750D01*
X162062913Y-86400783D01*
X162310048Y-86505431D01*
X162318453Y-86508308D01*
X162577873Y-86577093D01*
X162586585Y-86578755D01*
X162853114Y-86610300D01*
X162861979Y-86610718D01*
X163130278Y-86604395D01*
X163139133Y-86603558D01*
X163403864Y-86559495D01*
X163412498Y-86557422D01*
X163668383Y-86476496D01*
X163676644Y-86473225D01*
X163918567Y-86357055D01*
X163926292Y-86352649D01*
X164149431Y-86203553D01*
X164156458Y-86198103D01*
X164228442Y-86133627D01*
X164236805Y-86120132D01*
X164231116Y-86110721D01*
X162962812Y-84842417D01*
X162948868Y-84834803D01*
X162947035Y-84834934D01*
X162940420Y-84839185D01*
X161669981Y-86109624D01*
X161662815Y-86122747D01*
X160254388Y-86122747D01*
X160209402Y-86067589D01*
X160158610Y-86005311D01*
X160158607Y-86005308D01*
X160154715Y-86000536D01*
X160147770Y-85994790D01*
X160001382Y-85873687D01*
X159994770Y-85868217D01*
X159989353Y-85865288D01*
X159989350Y-85865286D01*
X159817590Y-85772416D01*
X159817585Y-85772414D01*
X159812170Y-85769486D01*
X159613871Y-85708102D01*
X159607746Y-85707458D01*
X159607745Y-85707458D01*
X159413554Y-85687048D01*
X159413552Y-85687048D01*
X159407425Y-85686404D01*
X159332674Y-85693207D01*
X159206836Y-85704659D01*
X159206833Y-85704660D01*
X159200697Y-85705218D01*
X159194791Y-85706956D01*
X159194787Y-85706957D01*
X159137679Y-85723765D01*
X159001560Y-85763827D01*
X158817600Y-85859999D01*
X158812800Y-85863859D01*
X158812799Y-85863859D01*
X158798951Y-85874993D01*
X158655823Y-85990071D01*
X158651865Y-85994788D01*
X158651863Y-85994790D01*
X158647618Y-85999849D01*
X158522391Y-86149089D01*
X158519427Y-86154481D01*
X158519424Y-86154485D01*
X158429936Y-86317264D01*
X158422387Y-86330995D01*
X158359621Y-86528861D01*
X158358935Y-86534978D01*
X158358934Y-86534982D01*
X158346404Y-86646696D01*
X158336482Y-86735150D01*
X158336998Y-86741294D01*
X158352980Y-86931616D01*
X158353852Y-86942004D01*
X158368233Y-86992158D01*
X158398994Y-87099433D01*
X158411069Y-87141545D01*
X158413887Y-87147028D01*
X158416155Y-87152756D01*
X158413826Y-87153678D01*
X158425104Y-87212627D01*
X158398628Y-87278502D01*
X158388786Y-87289574D01*
X158133095Y-87545265D01*
X158070783Y-87579291D01*
X157999968Y-87574226D01*
X157943132Y-87531679D01*
X157918321Y-87465159D01*
X157918000Y-87456170D01*
X157918000Y-86895115D01*
X157913525Y-86879876D01*
X157912135Y-86878671D01*
X157904452Y-86877000D01*
X157005115Y-86877000D01*
X156989876Y-86881475D01*
X156988671Y-86882865D01*
X156987000Y-86890548D01*
X156987000Y-87789884D01*
X156991475Y-87805123D01*
X156992865Y-87806328D01*
X157000548Y-87807999D01*
X157608575Y-87807999D01*
X157676696Y-87828001D01*
X157723189Y-87881657D01*
X157733293Y-87951931D01*
X157727234Y-87972254D01*
X157727600Y-87972352D01*
X157727167Y-87973969D01*
X157725356Y-87979712D01*
X157725561Y-87979787D01*
X157724987Y-87981363D01*
X157724354Y-87982891D01*
X157723856Y-87984471D01*
X157721800Y-87990121D01*
X157716289Y-87999666D01*
X157711358Y-88027630D01*
X157709562Y-88037817D01*
X157707183Y-88048548D01*
X157700008Y-88075324D01*
X157700008Y-88075328D01*
X157697155Y-88085974D01*
X157699588Y-88113785D01*
X157700532Y-88124575D01*
X157701011Y-88135556D01*
X157701011Y-88344162D01*
X157681009Y-88412283D01*
X157627353Y-88458776D01*
X157557079Y-88468880D01*
X157494695Y-88441246D01*
X157459518Y-88412145D01*
X157459519Y-88412145D01*
X157454770Y-88408217D01*
X157449353Y-88405288D01*
X157449350Y-88405286D01*
X157277590Y-88312416D01*
X157277585Y-88312414D01*
X157272170Y-88309486D01*
X157073871Y-88248102D01*
X157067746Y-88247458D01*
X157067745Y-88247458D01*
X156873554Y-88227048D01*
X156873552Y-88227048D01*
X156867425Y-88226404D01*
X156796432Y-88232865D01*
X156666836Y-88244659D01*
X156666833Y-88244660D01*
X156660697Y-88245218D01*
X156654787Y-88246957D01*
X156654784Y-88246958D01*
X156580212Y-88268905D01*
X156509215Y-88268949D01*
X156455543Y-88237126D01*
X156293741Y-88075324D01*
X156283886Y-88064235D01*
X156268240Y-88044388D01*
X156268239Y-88044387D01*
X156262410Y-88036993D01*
X156254664Y-88031639D01*
X156248498Y-88025849D01*
X156212533Y-87964636D01*
X156215372Y-87893696D01*
X156256113Y-87835553D01*
X156321821Y-87808665D01*
X156334752Y-87808000D01*
X156714885Y-87808000D01*
X156730124Y-87803525D01*
X156731329Y-87802135D01*
X156733000Y-87794452D01*
X156733000Y-86895115D01*
X156728525Y-86879876D01*
X156727135Y-86878671D01*
X156719452Y-86877000D01*
X155820116Y-86877000D01*
X155804877Y-86881475D01*
X155803672Y-86882865D01*
X155802001Y-86890548D01*
X155802001Y-87614298D01*
X155803209Y-87626558D01*
X155811647Y-87668983D01*
X155820964Y-87691479D01*
X155840354Y-87720498D01*
X155861569Y-87788251D01*
X155842786Y-87856718D01*
X155789968Y-87904161D01*
X155735589Y-87916500D01*
X154369813Y-87916500D01*
X154301692Y-87896498D01*
X154293108Y-87890462D01*
X154281634Y-87881657D01*
X154248816Y-87856475D01*
X154238426Y-87848502D01*
X154231876Y-87843476D01*
X154224250Y-87840317D01*
X154224248Y-87840316D01*
X154091480Y-87785322D01*
X154091477Y-87785321D01*
X154083850Y-87782162D01*
X153925000Y-87761249D01*
X153766150Y-87782162D01*
X153618125Y-87843476D01*
X153491013Y-87941013D01*
X153393476Y-88068125D01*
X153332162Y-88216150D01*
X153331084Y-88224338D01*
X153328335Y-88245218D01*
X153311249Y-88375000D01*
X153312327Y-88383188D01*
X153328348Y-88504876D01*
X153332162Y-88533850D01*
X153393476Y-88681875D01*
X153441146Y-88744000D01*
X153485984Y-88802434D01*
X153485987Y-88802437D01*
X153491013Y-88808987D01*
X153497563Y-88814013D01*
X153497564Y-88814014D01*
X153599372Y-88892135D01*
X153618124Y-88906524D01*
X153625750Y-88909683D01*
X153625752Y-88909684D01*
X153758520Y-88964678D01*
X153758523Y-88964679D01*
X153766150Y-88967838D01*
X153925000Y-88988751D01*
X153933188Y-88987673D01*
X154075662Y-88968916D01*
X154083850Y-88967838D01*
X154091477Y-88964679D01*
X154091480Y-88964678D01*
X154224248Y-88909684D01*
X154224250Y-88909683D01*
X154231876Y-88906524D01*
X154242985Y-88898000D01*
X154293108Y-88859538D01*
X154359328Y-88833937D01*
X154369813Y-88833500D01*
X155702893Y-88833500D01*
X155771014Y-88853502D01*
X155791988Y-88870405D01*
X155806588Y-88885005D01*
X155840614Y-88947317D01*
X155837595Y-89012198D01*
X155819621Y-89068861D01*
X155818935Y-89074978D01*
X155818934Y-89074982D01*
X155798013Y-89261500D01*
X155796482Y-89275150D01*
X155796998Y-89281294D01*
X155812672Y-89467948D01*
X155813852Y-89482004D01*
X155871069Y-89681545D01*
X155873887Y-89687027D01*
X155873888Y-89687031D01*
X155935037Y-89806014D01*
X155965955Y-89866173D01*
X156042095Y-89962238D01*
X156068731Y-90028046D01*
X156055560Y-90097810D01*
X156006763Y-90149379D01*
X155943348Y-90166500D01*
X150830330Y-90166500D01*
X150762209Y-90146498D01*
X150741235Y-90129595D01*
X150715015Y-90103375D01*
X150707588Y-90095271D01*
X150689763Y-90074028D01*
X150682677Y-90065583D01*
X150649116Y-90046207D01*
X150639863Y-90040312D01*
X150608118Y-90018084D01*
X150597470Y-90015231D01*
X150593981Y-90013604D01*
X150590369Y-90012290D01*
X150580823Y-90006778D01*
X150542673Y-90000051D01*
X150531941Y-89997672D01*
X150505165Y-89990497D01*
X150505161Y-89990497D01*
X150494515Y-89987644D01*
X150461904Y-89990497D01*
X150455914Y-89991021D01*
X150444933Y-89991500D01*
X149839000Y-89991500D01*
X149770879Y-89971498D01*
X149724386Y-89917842D01*
X149713000Y-89865500D01*
X149713000Y-89820115D01*
X149708525Y-89804876D01*
X149707135Y-89803671D01*
X149699452Y-89802000D01*
X147745115Y-89802000D01*
X147729876Y-89806475D01*
X147728671Y-89807865D01*
X147727000Y-89815548D01*
X147727000Y-89875821D01*
X147728207Y-89888076D01*
X147737836Y-89936484D01*
X147743897Y-89951117D01*
X147751486Y-90021707D01*
X147745235Y-90042995D01*
X147739787Y-90051149D01*
X147737366Y-90063318D01*
X147737366Y-90063319D01*
X147730174Y-90099478D01*
X147726500Y-90117947D01*
X147726501Y-90532052D01*
X147727709Y-90538124D01*
X147736682Y-90583239D01*
X147739787Y-90598851D01*
X147743983Y-90605130D01*
X147751211Y-90672374D01*
X147745094Y-90693207D01*
X147739787Y-90701149D01*
X147726500Y-90767947D01*
X147726501Y-91182052D01*
X147731630Y-91207840D01*
X147737355Y-91236622D01*
X147739787Y-91248851D01*
X147743983Y-91255130D01*
X147751211Y-91322374D01*
X147745094Y-91343207D01*
X147739787Y-91351149D01*
X147737365Y-91363323D01*
X147737365Y-91363324D01*
X147728957Y-91405595D01*
X147726500Y-91417947D01*
X147726501Y-91832052D01*
X147739787Y-91898851D01*
X147743983Y-91905130D01*
X147751211Y-91972374D01*
X147745094Y-91993207D01*
X147739787Y-92001149D01*
X147726500Y-92067947D01*
X147726501Y-92482052D01*
X147739787Y-92548851D01*
X147743983Y-92555130D01*
X147751211Y-92622374D01*
X147745094Y-92643207D01*
X147739787Y-92651149D01*
X147737365Y-92663323D01*
X147737365Y-92663324D01*
X147732357Y-92688500D01*
X147726500Y-92717947D01*
X143972386Y-92717947D01*
X143971793Y-92711924D01*
X143962164Y-92663516D01*
X143956103Y-92648883D01*
X143948514Y-92578293D01*
X143954765Y-92557005D01*
X143960213Y-92548851D01*
X143973500Y-92482053D01*
X143973499Y-92067948D01*
X143960213Y-92001149D01*
X143956017Y-91994870D01*
X143948789Y-91927626D01*
X143954906Y-91906793D01*
X143960213Y-91898851D01*
X143965688Y-91871329D01*
X143972293Y-91838121D01*
X143973500Y-91832053D01*
X143973499Y-91417948D01*
X143960213Y-91351149D01*
X143956017Y-91344870D01*
X143948789Y-91277626D01*
X143954906Y-91256793D01*
X143960213Y-91248851D01*
X143964854Y-91225522D01*
X143972293Y-91188121D01*
X143973500Y-91182053D01*
X143973499Y-90767948D01*
X143968370Y-90742160D01*
X143962635Y-90713324D01*
X143962634Y-90713322D01*
X143960213Y-90701149D01*
X143956017Y-90694870D01*
X143948789Y-90627626D01*
X143954906Y-90606793D01*
X143960213Y-90598851D01*
X143963319Y-90583239D01*
X143972293Y-90538121D01*
X143973500Y-90532053D01*
X143973499Y-90117948D01*
X143960213Y-90051149D01*
X143956017Y-90044870D01*
X143948789Y-89977626D01*
X143954906Y-89956793D01*
X143960213Y-89948851D01*
X143967643Y-89911501D01*
X143972293Y-89888121D01*
X143973500Y-89882053D01*
X143973499Y-89529885D01*
X147727000Y-89529885D01*
X147731475Y-89545124D01*
X147732865Y-89546329D01*
X147740548Y-89548000D01*
X148574885Y-89548000D01*
X148590124Y-89543525D01*
X148591329Y-89542135D01*
X148593000Y-89534452D01*
X148593000Y-89529885D01*
X148847000Y-89529885D01*
X148851475Y-89545124D01*
X148852865Y-89546329D01*
X148860548Y-89548000D01*
X149694885Y-89548000D01*
X149710124Y-89543525D01*
X149711329Y-89542135D01*
X149713000Y-89534452D01*
X149713000Y-89474179D01*
X149711793Y-89461924D01*
X149702164Y-89413516D01*
X149695828Y-89398220D01*
X149688238Y-89327630D01*
X149695828Y-89301780D01*
X149702164Y-89286484D01*
X149711793Y-89238076D01*
X149713000Y-89225821D01*
X149713000Y-89170115D01*
X149708525Y-89154876D01*
X149707135Y-89153671D01*
X149699452Y-89152000D01*
X148865115Y-89152000D01*
X148849876Y-89156475D01*
X148848671Y-89157865D01*
X148847000Y-89165548D01*
X148847000Y-89529885D01*
X148593000Y-89529885D01*
X148593000Y-89170115D01*
X148588525Y-89154876D01*
X148587135Y-89153671D01*
X148579452Y-89152000D01*
X147745115Y-89152000D01*
X147729876Y-89156475D01*
X147728671Y-89157865D01*
X147727000Y-89165548D01*
X147727000Y-89225821D01*
X147728207Y-89238076D01*
X147737836Y-89286484D01*
X147744172Y-89301780D01*
X147751762Y-89372370D01*
X147744172Y-89398220D01*
X147737836Y-89413516D01*
X147728207Y-89461924D01*
X147727000Y-89474179D01*
X147727000Y-89529885D01*
X143973499Y-89529885D01*
X143973499Y-89467948D01*
X143960213Y-89401149D01*
X143955775Y-89394507D01*
X143948515Y-89326959D01*
X143956103Y-89301117D01*
X143962164Y-89286484D01*
X143971793Y-89238076D01*
X143973000Y-89225821D01*
X143973000Y-89170115D01*
X143968525Y-89154876D01*
X143967135Y-89153671D01*
X143959452Y-89152000D01*
X142005115Y-89152000D01*
X141989876Y-89156475D01*
X141988671Y-89157865D01*
X141987000Y-89165548D01*
X141987000Y-89215500D01*
X141966998Y-89283621D01*
X141913342Y-89330114D01*
X141861000Y-89341500D01*
X136669681Y-89341500D01*
X136658700Y-89341021D01*
X136652710Y-89340497D01*
X136620099Y-89337644D01*
X136609453Y-89340497D01*
X136609449Y-89340497D01*
X136582673Y-89347672D01*
X136571941Y-89350051D01*
X136533791Y-89356778D01*
X136524245Y-89362290D01*
X136520633Y-89363604D01*
X136517144Y-89365231D01*
X136506496Y-89368084D01*
X136474751Y-89390312D01*
X136465498Y-89396207D01*
X136431937Y-89415583D01*
X136424851Y-89424028D01*
X136407025Y-89445272D01*
X136399598Y-89453376D01*
X135998868Y-89854106D01*
X135936556Y-89888132D01*
X135909773Y-89891011D01*
X116739841Y-89891011D01*
X116671720Y-89871009D01*
X116650746Y-89854106D01*
X115575015Y-88778375D01*
X115567588Y-88770271D01*
X115549763Y-88749028D01*
X115542677Y-88740583D01*
X115509116Y-88721207D01*
X115499863Y-88715312D01*
X115468118Y-88693084D01*
X115457470Y-88690231D01*
X115453981Y-88688604D01*
X115450369Y-88687290D01*
X115440823Y-88681778D01*
X115402673Y-88675051D01*
X115391941Y-88672672D01*
X115365165Y-88665497D01*
X115365161Y-88665497D01*
X115354515Y-88662644D01*
X115321904Y-88665497D01*
X115315914Y-88666021D01*
X115304933Y-88666500D01*
X111344500Y-88666500D01*
X111276379Y-88646498D01*
X111229886Y-88592842D01*
X111218500Y-88540501D01*
X111218499Y-88335653D01*
X111218499Y-88329464D01*
X111207328Y-88273298D01*
X111207328Y-88224139D01*
X111216793Y-88176555D01*
X111218000Y-88164300D01*
X111218000Y-88145115D01*
X111213525Y-88129876D01*
X111212135Y-88128671D01*
X111204452Y-88127000D01*
X110409000Y-88127000D01*
X110340879Y-88106998D01*
X110294386Y-88053342D01*
X110283000Y-88001000D01*
X110283000Y-87999000D01*
X110303002Y-87930879D01*
X110356658Y-87884386D01*
X110409000Y-87873000D01*
X111199884Y-87873000D01*
X111215123Y-87868525D01*
X111216328Y-87867135D01*
X111217999Y-87859452D01*
X111217999Y-87835702D01*
X111216791Y-87823442D01*
X111207328Y-87775862D01*
X111207328Y-87726701D01*
X111218500Y-87670537D01*
X111218499Y-87527499D01*
X111238501Y-87459380D01*
X111292156Y-87412887D01*
X111344499Y-87401500D01*
X111649785Y-87401500D01*
X111717906Y-87421502D01*
X111733604Y-87433424D01*
X111787003Y-87481001D01*
X111787009Y-87481005D01*
X111792679Y-87486057D01*
X111944231Y-87566300D01*
X111951596Y-87568150D01*
X112103178Y-87606225D01*
X112103182Y-87606225D01*
X112110549Y-87608076D01*
X112118148Y-87608116D01*
X112118150Y-87608116D01*
X112189606Y-87608490D01*
X112282031Y-87608974D01*
X112289411Y-87607202D01*
X112289413Y-87607202D01*
X112441398Y-87570714D01*
X112441402Y-87570713D01*
X112448777Y-87568942D01*
X112601161Y-87490291D01*
X112730385Y-87377561D01*
X112828990Y-87237261D01*
X112863206Y-87149503D01*
X112888522Y-87084571D01*
X112888523Y-87084568D01*
X112891282Y-87077491D01*
X112899071Y-87018331D01*
X112907962Y-86950793D01*
X112907962Y-86950792D01*
X112908500Y-86946706D01*
X112908500Y-85495278D01*
X112928502Y-85427157D01*
X112963136Y-85391436D01*
X112965722Y-85389659D01*
X112965724Y-85389657D01*
X112971981Y-85385357D01*
X112981515Y-85374657D01*
X113013435Y-85338830D01*
X113018416Y-85333554D01*
X113281565Y-85070405D01*
X113343877Y-85036379D01*
X113370660Y-85033500D01*
X113554788Y-85033500D01*
X113565658Y-85032472D01*
X113579239Y-85031189D01*
X113579241Y-85031189D01*
X113586885Y-85030466D01*
X113594128Y-85027922D01*
X113594130Y-85027922D01*
X113708084Y-84987904D01*
X113716969Y-84984784D01*
X113742641Y-84965823D01*
X113820300Y-84908463D01*
X113827871Y-84902871D01*
X113874910Y-84839185D01*
X113904190Y-84799543D01*
X113904191Y-84799542D01*
X113909784Y-84791969D01*
X113942515Y-84698765D01*
X113952922Y-84669130D01*
X113952922Y-84669128D01*
X113955466Y-84661885D01*
X113956483Y-84651132D01*
X113957495Y-84640420D01*
X113958500Y-84629788D01*
X113958500Y-84626757D01*
X114442001Y-84626757D01*
X114442280Y-84632681D01*
X114444308Y-84654141D01*
X114447577Y-84669039D01*
X114487542Y-84782842D01*
X114496260Y-84799309D01*
X114566895Y-84894942D01*
X114580058Y-84908105D01*
X114675691Y-84978740D01*
X114692158Y-84987458D01*
X114805962Y-85027424D01*
X114820855Y-85030692D01*
X114842327Y-85032721D01*
X114848238Y-85033000D01*
X115004885Y-85033000D01*
X115020124Y-85028525D01*
X115021329Y-85027135D01*
X115023000Y-85019452D01*
X115023000Y-85014884D01*
X115277000Y-85014884D01*
X115281475Y-85030123D01*
X115282865Y-85031328D01*
X115290548Y-85032999D01*
X115451757Y-85032999D01*
X115457681Y-85032720D01*
X115479141Y-85030692D01*
X115494039Y-85027423D01*
X115607842Y-84987458D01*
X115624309Y-84978740D01*
X115719942Y-84908105D01*
X115733105Y-84894942D01*
X115803740Y-84799309D01*
X115812458Y-84782842D01*
X115852424Y-84669038D01*
X115855692Y-84654145D01*
X115857721Y-84632673D01*
X115858000Y-84626762D01*
X115858000Y-84245115D01*
X115853525Y-84229876D01*
X115852135Y-84228671D01*
X115844452Y-84227000D01*
X115295115Y-84227000D01*
X115279876Y-84231475D01*
X115278671Y-84232865D01*
X115277000Y-84240548D01*
X115277000Y-85014884D01*
X115023000Y-85014884D01*
X115023000Y-84245115D01*
X115018525Y-84229876D01*
X115017135Y-84228671D01*
X115009452Y-84227000D01*
X114460116Y-84227000D01*
X114444877Y-84231475D01*
X114443672Y-84232865D01*
X114442001Y-84240548D01*
X114442001Y-84626757D01*
X113958500Y-84626757D01*
X113958500Y-84176867D01*
X113960610Y-84153904D01*
X113960911Y-84152279D01*
X113962295Y-84144814D01*
X113958709Y-84082620D01*
X113958500Y-84075367D01*
X113958500Y-83954885D01*
X114442000Y-83954885D01*
X114446475Y-83970124D01*
X114447865Y-83971329D01*
X114455548Y-83973000D01*
X115004885Y-83973000D01*
X115020124Y-83968525D01*
X115021329Y-83967135D01*
X115023000Y-83959452D01*
X115023000Y-83954885D01*
X115277000Y-83954885D01*
X115281475Y-83970124D01*
X115282865Y-83971329D01*
X115290548Y-83973000D01*
X115839884Y-83973000D01*
X115855123Y-83968525D01*
X115856328Y-83967135D01*
X115857999Y-83959452D01*
X115857999Y-83573243D01*
X115857720Y-83567319D01*
X115855692Y-83545859D01*
X115852423Y-83530961D01*
X115812458Y-83417158D01*
X115803740Y-83400691D01*
X115733105Y-83305058D01*
X115719942Y-83291895D01*
X115624309Y-83221260D01*
X115607842Y-83212542D01*
X115494038Y-83172576D01*
X115479145Y-83169308D01*
X115457673Y-83167279D01*
X115451762Y-83167000D01*
X115295115Y-83167000D01*
X115279876Y-83171475D01*
X115278671Y-83172865D01*
X115277000Y-83180548D01*
X115277000Y-83954885D01*
X115023000Y-83954885D01*
X115023000Y-83185116D01*
X115018525Y-83169877D01*
X115017135Y-83168672D01*
X115009452Y-83167001D01*
X114848243Y-83167001D01*
X114842319Y-83167280D01*
X114820859Y-83169308D01*
X114805961Y-83172577D01*
X114692158Y-83212542D01*
X114675691Y-83221260D01*
X114580058Y-83291895D01*
X114566895Y-83305058D01*
X114496260Y-83400691D01*
X114487542Y-83417158D01*
X114447576Y-83530962D01*
X114444308Y-83545855D01*
X114442279Y-83567327D01*
X114442000Y-83573238D01*
X114442000Y-83954885D01*
X113958500Y-83954885D01*
X113958500Y-83570212D01*
X113955466Y-83538115D01*
X113909784Y-83408031D01*
X113895387Y-83388538D01*
X113833463Y-83304700D01*
X113827871Y-83297129D01*
X113775053Y-83258117D01*
X113724543Y-83220810D01*
X113724542Y-83220809D01*
X113716969Y-83215216D01*
X113637914Y-83187454D01*
X113594130Y-83172078D01*
X113594128Y-83172078D01*
X113586885Y-83169534D01*
X113579241Y-83168811D01*
X113579239Y-83168811D01*
X113565658Y-83167528D01*
X113554788Y-83166500D01*
X112945212Y-83166500D01*
X112934342Y-83167528D01*
X112920761Y-83168811D01*
X112920759Y-83168811D01*
X112913115Y-83169534D01*
X112905872Y-83172078D01*
X112905870Y-83172078D01*
X112862086Y-83187454D01*
X112783031Y-83215216D01*
X112775458Y-83220809D01*
X112775457Y-83220810D01*
X112724947Y-83258117D01*
X112672129Y-83297129D01*
X112666537Y-83304700D01*
X112604614Y-83388538D01*
X112590216Y-83408031D01*
X112544534Y-83538115D01*
X112541500Y-83570212D01*
X112541500Y-83754340D01*
X112521498Y-83822461D01*
X112504595Y-83843435D01*
X112464095Y-83883935D01*
X112401783Y-83917961D01*
X112330968Y-83912896D01*
X112285905Y-83883935D01*
X111770577Y-83368607D01*
X111669718Y-83289524D01*
X111662465Y-83286249D01*
X111520351Y-83222081D01*
X111520348Y-83222080D01*
X111513427Y-83218955D01*
X111505956Y-83217570D01*
X111505955Y-83217570D01*
X111410131Y-83199810D01*
X111344814Y-83187704D01*
X111337234Y-83188141D01*
X111337233Y-83188141D01*
X111297459Y-83190435D01*
X111173615Y-83197576D01*
X111166355Y-83199809D01*
X111166352Y-83199810D01*
X111064779Y-83231058D01*
X111009711Y-83247999D01*
X110862566Y-83336063D01*
X110857168Y-83341404D01*
X110857165Y-83341407D01*
X110773560Y-83424140D01*
X110711071Y-83457838D01*
X110640282Y-83452402D01*
X110595915Y-83423752D01*
X110572250Y-83400128D01*
X110555522Y-83388196D01*
X110469582Y-83346188D01*
X110451115Y-83340480D01*
X110397513Y-83332660D01*
X110388413Y-83332000D01*
X110365115Y-83332000D01*
X110349876Y-83336475D01*
X110348671Y-83337865D01*
X110347000Y-83345548D01*
X110347000Y-84349885D01*
X110351475Y-84365124D01*
X110352865Y-84366329D01*
X110360548Y-84368000D01*
X110388380Y-84368000D01*
X110397539Y-84367330D01*
X110451695Y-84359357D01*
X110470177Y-84353614D01*
X110556029Y-84311463D01*
X110564456Y-84305430D01*
X110631489Y-84282039D01*
X110700527Y-84298603D01*
X110737765Y-84331177D01*
X110761520Y-84362135D01*
X110765989Y-84367959D01*
X110768905Y-84370875D01*
X111153028Y-84754999D01*
X111187053Y-84817311D01*
X111189640Y-84852662D01*
X111187275Y-84887352D01*
X111188580Y-84894829D01*
X111188580Y-84894830D01*
X111189211Y-84898444D01*
X111191085Y-84920767D01*
X111191026Y-84932031D01*
X111192799Y-84939415D01*
X111199810Y-84968621D01*
X111202378Y-84982895D01*
X111206898Y-85020242D01*
X111209582Y-85027345D01*
X111210226Y-85029967D01*
X111214688Y-85046274D01*
X111215451Y-85048802D01*
X111216757Y-85056284D01*
X111221286Y-85066601D01*
X111228429Y-85087827D01*
X111231058Y-85098777D01*
X111248318Y-85132219D01*
X111254214Y-85145461D01*
X111263989Y-85171329D01*
X111267513Y-85180656D01*
X111271814Y-85186915D01*
X111273045Y-85189269D01*
X111281299Y-85204097D01*
X111282633Y-85206352D01*
X111285685Y-85213305D01*
X111290305Y-85219325D01*
X111290308Y-85219331D01*
X111292542Y-85222242D01*
X111304543Y-85241152D01*
X111309709Y-85251161D01*
X111314700Y-85256882D01*
X111314704Y-85256888D01*
X111334442Y-85279513D01*
X111343336Y-85290979D01*
X111360339Y-85315720D01*
X111360344Y-85315725D01*
X111364643Y-85321981D01*
X111380517Y-85336124D01*
X111389462Y-85344094D01*
X111400588Y-85355338D01*
X111417441Y-85374657D01*
X111417446Y-85374662D01*
X111422439Y-85380385D01*
X111433627Y-85388248D01*
X111450265Y-85402235D01*
X111454595Y-85406565D01*
X111488621Y-85468877D01*
X111491500Y-85495660D01*
X111491500Y-86358500D01*
X111471498Y-86426621D01*
X111417842Y-86473114D01*
X111365500Y-86484500D01*
X110615552Y-86484500D01*
X110610905Y-86485199D01*
X110610900Y-86485199D01*
X110522971Y-86498419D01*
X110522970Y-86498419D01*
X110513660Y-86499819D01*
X110453180Y-86528861D01*
X110398985Y-86554885D01*
X110389374Y-86559500D01*
X110288131Y-86653088D01*
X110283401Y-86661230D01*
X110283401Y-86661231D01*
X110231840Y-86750000D01*
X110218882Y-86772308D01*
X110187750Y-86906620D01*
X110188415Y-86916016D01*
X110188415Y-86916019D01*
X110194829Y-87006602D01*
X110179688Y-87075965D01*
X110129450Y-87126132D01*
X110069144Y-87141501D01*
X109789464Y-87141501D01*
X109728647Y-87153597D01*
X109718330Y-87160490D01*
X109718329Y-87160491D01*
X109674065Y-87190068D01*
X109659680Y-87199680D01*
X109613597Y-87268647D01*
X109611176Y-87280816D01*
X109611176Y-87280817D01*
X109604083Y-87316475D01*
X109601500Y-87329463D01*
X109601501Y-87670536D01*
X109607101Y-87698692D01*
X109612672Y-87726701D01*
X109612672Y-87775861D01*
X109603207Y-87823445D01*
X109602677Y-87828826D01*
X109576094Y-87894658D01*
X109518140Y-87935668D01*
X109447214Y-87938835D01*
X109388189Y-87905571D01*
X109270405Y-87787787D01*
X109236379Y-87725475D01*
X109233500Y-87698692D01*
X109233500Y-84620053D01*
X109233980Y-84609071D01*
X109236395Y-84581467D01*
X109237356Y-84570485D01*
X109234503Y-84559839D01*
X109234503Y-84559835D01*
X109227328Y-84533059D01*
X109224949Y-84522328D01*
X109224553Y-84520081D01*
X109218222Y-84484177D01*
X109212710Y-84474631D01*
X109211396Y-84471019D01*
X109209769Y-84467530D01*
X109206916Y-84456882D01*
X109184688Y-84425137D01*
X109178791Y-84415880D01*
X109159417Y-84382323D01*
X109129727Y-84357410D01*
X109121624Y-84349984D01*
X108820020Y-84048380D01*
X109732000Y-84048380D01*
X109732670Y-84057539D01*
X109740643Y-84111695D01*
X109746386Y-84130177D01*
X109788538Y-84216031D01*
X109800497Y-84232736D01*
X109867750Y-84299872D01*
X109884478Y-84311804D01*
X109970418Y-84353812D01*
X109988885Y-84359520D01*
X110042487Y-84367340D01*
X110051587Y-84368000D01*
X110074885Y-84368000D01*
X110090124Y-84363525D01*
X110091329Y-84362135D01*
X110093000Y-84354452D01*
X110093000Y-83995115D01*
X110088525Y-83979876D01*
X110087135Y-83978671D01*
X110079452Y-83977000D01*
X109750115Y-83977000D01*
X109734876Y-83981475D01*
X109733671Y-83982865D01*
X109732000Y-83990548D01*
X109732000Y-84048380D01*
X108820020Y-84048380D01*
X108476525Y-83704885D01*
X109732000Y-83704885D01*
X109736475Y-83720124D01*
X109737865Y-83721329D01*
X109745548Y-83723000D01*
X110074885Y-83723000D01*
X110090124Y-83718525D01*
X110091329Y-83717135D01*
X110093000Y-83709452D01*
X110093000Y-83350115D01*
X110088525Y-83334876D01*
X110087135Y-83333671D01*
X110079452Y-83332000D01*
X110051620Y-83332000D01*
X110042461Y-83332670D01*
X109988305Y-83340643D01*
X109969823Y-83346386D01*
X109883969Y-83388538D01*
X109867264Y-83400497D01*
X109800128Y-83467750D01*
X109788196Y-83484478D01*
X109746188Y-83570418D01*
X109740480Y-83588885D01*
X109732660Y-83642487D01*
X109732000Y-83651587D01*
X109732000Y-83704885D01*
X108476525Y-83704885D01*
X108196265Y-83424625D01*
X108188838Y-83416521D01*
X108171013Y-83395278D01*
X108163927Y-83386833D01*
X108130366Y-83367457D01*
X108121113Y-83361562D01*
X108089368Y-83339334D01*
X108078720Y-83336481D01*
X108075231Y-83334854D01*
X108071619Y-83333540D01*
X108062073Y-83328028D01*
X108023923Y-83321301D01*
X108013191Y-83318922D01*
X107986415Y-83311747D01*
X107986411Y-83311747D01*
X107975765Y-83308894D01*
X107943154Y-83311747D01*
X107937164Y-83312271D01*
X107926183Y-83312750D01*
X107176824Y-83312750D01*
X107108703Y-83292748D01*
X107072984Y-83258117D01*
X107019659Y-83180528D01*
X107019658Y-83180526D01*
X107015357Y-83174269D01*
X107009231Y-83168811D01*
X106892993Y-83065246D01*
X106892990Y-83065244D01*
X106887321Y-83060193D01*
X106879325Y-83055959D01*
X106796780Y-83012254D01*
X106735769Y-82979950D01*
X106712933Y-82974214D01*
X106576822Y-82940025D01*
X106576818Y-82940025D01*
X106569451Y-82938174D01*
X106561852Y-82938134D01*
X106561850Y-82938134D01*
X106490394Y-82937760D01*
X106397969Y-82937276D01*
X106390589Y-82939048D01*
X106390587Y-82939048D01*
X106238602Y-82975536D01*
X106238598Y-82975537D01*
X106231223Y-82977308D01*
X106078839Y-83055959D01*
X105949615Y-83168689D01*
X105851010Y-83308989D01*
X105827817Y-83368476D01*
X105806266Y-83423752D01*
X105788718Y-83468759D01*
X105787726Y-83476292D01*
X105787726Y-83476293D01*
X105774963Y-83573243D01*
X105766335Y-83638776D01*
X105775316Y-83720124D01*
X105779094Y-83754340D01*
X105785153Y-83809225D01*
X105787762Y-83816356D01*
X105787763Y-83816358D01*
X105795674Y-83837975D01*
X105844085Y-83970265D01*
X105848322Y-83976571D01*
X105848324Y-83976574D01*
X105880864Y-84024998D01*
X105939730Y-84112599D01*
X106066565Y-84228010D01*
X106217268Y-84309835D01*
X106383139Y-84353351D01*
X106470586Y-84354724D01*
X106547003Y-84355925D01*
X106547006Y-84355925D01*
X106554602Y-84356044D01*
X106562006Y-84354348D01*
X106562008Y-84354348D01*
X106663177Y-84331177D01*
X106721759Y-84317760D01*
X106874958Y-84240709D01*
X106880729Y-84235780D01*
X106880732Y-84235778D01*
X106996112Y-84137233D01*
X107005355Y-84129339D01*
X107021633Y-84106687D01*
X107075141Y-84032223D01*
X107131136Y-83988576D01*
X107177463Y-83979750D01*
X107755920Y-83979750D01*
X107824041Y-83999752D01*
X107845015Y-84016655D01*
X108355326Y-84526966D01*
X108389352Y-84589278D01*
X108384287Y-84660093D01*
X108341740Y-84716929D01*
X108275220Y-84741740D01*
X108260770Y-84741546D01*
X108260537Y-84741500D01*
X107561032Y-84741500D01*
X106219464Y-84741501D01*
X106158647Y-84753597D01*
X106148330Y-84760490D01*
X106148329Y-84760491D01*
X106115152Y-84782660D01*
X106089680Y-84799680D01*
X106043597Y-84868647D01*
X106041176Y-84880816D01*
X106041176Y-84880817D01*
X106033675Y-84918530D01*
X106031500Y-84929463D01*
X106031501Y-86770536D01*
X106040930Y-86817943D01*
X106034601Y-86888655D01*
X105991046Y-86944722D01*
X105924093Y-86968340D01*
X105855000Y-86952012D01*
X105828256Y-86931616D01*
X104620405Y-85723765D01*
X104586379Y-85661453D01*
X104583500Y-85634670D01*
X104583500Y-84348007D01*
X104603502Y-84279886D01*
X104639270Y-84243570D01*
X104644958Y-84240709D01*
X104775355Y-84129339D01*
X104868474Y-83999752D01*
X104870992Y-83996248D01*
X104870993Y-83996247D01*
X104875424Y-83990080D01*
X104939385Y-83830970D01*
X104950291Y-83754340D01*
X104962966Y-83665281D01*
X104962966Y-83665277D01*
X104963547Y-83661197D01*
X104963704Y-83646250D01*
X104954869Y-83573243D01*
X104944015Y-83483549D01*
X104944014Y-83483546D01*
X104943102Y-83476008D01*
X104939326Y-83466013D01*
X104885171Y-83322697D01*
X104882487Y-83315594D01*
X104813499Y-83215216D01*
X104789659Y-83180528D01*
X104789658Y-83180526D01*
X104785357Y-83174269D01*
X104779231Y-83168811D01*
X104662993Y-83065246D01*
X104662990Y-83065244D01*
X104657321Y-83060193D01*
X104649325Y-83055959D01*
X104566780Y-83012254D01*
X104505769Y-82979950D01*
X104482933Y-82974214D01*
X104346822Y-82940025D01*
X104346818Y-82940025D01*
X104339451Y-82938174D01*
X104331852Y-82938134D01*
X104331850Y-82938134D01*
X104260394Y-82937760D01*
X104167969Y-82937276D01*
X104160589Y-82939048D01*
X104160587Y-82939048D01*
X104008602Y-82975536D01*
X104008598Y-82975537D01*
X104001223Y-82977308D01*
X103848839Y-83055959D01*
X103719615Y-83168689D01*
X103621010Y-83308989D01*
X103597817Y-83368476D01*
X103576266Y-83423752D01*
X103558718Y-83468759D01*
X103557726Y-83476292D01*
X103557726Y-83476293D01*
X103544963Y-83573243D01*
X103536335Y-83638776D01*
X103545316Y-83720124D01*
X103549094Y-83754340D01*
X103555153Y-83809225D01*
X103557762Y-83816356D01*
X103557763Y-83816358D01*
X103565674Y-83837975D01*
X103614085Y-83970265D01*
X103618322Y-83976571D01*
X103618324Y-83976574D01*
X103650864Y-84024998D01*
X103709730Y-84112599D01*
X103836565Y-84228010D01*
X103845507Y-84232865D01*
X103850620Y-84235641D01*
X103900942Y-84285723D01*
X103916500Y-84346373D01*
X103916500Y-85804947D01*
X103916020Y-85815929D01*
X103912644Y-85854515D01*
X103915497Y-85865161D01*
X103915497Y-85865165D01*
X103922672Y-85891941D01*
X103925051Y-85902672D01*
X103931778Y-85940823D01*
X103937290Y-85950369D01*
X103938604Y-85953981D01*
X103940231Y-85957470D01*
X103943084Y-85968118D01*
X103965312Y-85999863D01*
X103971207Y-86009116D01*
X103990583Y-86042677D01*
X103999028Y-86049763D01*
X104020272Y-86067589D01*
X104028376Y-86075016D01*
X106955245Y-89001885D01*
X106989271Y-89064197D01*
X106984206Y-89135012D01*
X106941659Y-89191848D01*
X106875139Y-89216659D01*
X106866150Y-89216980D01*
X106790810Y-89216980D01*
X106722689Y-89196978D01*
X106701715Y-89180075D01*
X102320405Y-84798765D01*
X102286379Y-84736453D01*
X102283500Y-84709670D01*
X102283500Y-84348007D01*
X102303502Y-84279886D01*
X102339270Y-84243570D01*
X102344958Y-84240709D01*
X102475355Y-84129339D01*
X102568474Y-83999752D01*
X102570992Y-83996248D01*
X102570993Y-83996247D01*
X102575424Y-83990080D01*
X102639385Y-83830970D01*
X102650291Y-83754340D01*
X102662966Y-83665281D01*
X102662966Y-83665277D01*
X102663547Y-83661197D01*
X102663704Y-83646250D01*
X102654869Y-83573243D01*
X102644015Y-83483549D01*
X102644014Y-83483546D01*
X102643102Y-83476008D01*
X102639326Y-83466013D01*
X102585171Y-83322697D01*
X102582487Y-83315594D01*
X102513499Y-83215216D01*
X102489659Y-83180528D01*
X102489658Y-83180526D01*
X102485357Y-83174269D01*
X102479231Y-83168811D01*
X102362993Y-83065246D01*
X102362990Y-83065244D01*
X102357321Y-83060193D01*
X102349325Y-83055959D01*
X102266780Y-83012254D01*
X102205769Y-82979950D01*
X102182933Y-82974214D01*
X102046822Y-82940025D01*
X102046818Y-82940025D01*
X102039451Y-82938174D01*
X102031852Y-82938134D01*
X102031850Y-82938134D01*
X101960394Y-82937760D01*
X101867969Y-82937276D01*
X101860589Y-82939048D01*
X101860587Y-82939048D01*
X101708602Y-82975536D01*
X101708598Y-82975537D01*
X101701223Y-82977308D01*
X101548839Y-83055959D01*
X101419615Y-83168689D01*
X101321010Y-83308989D01*
X101297817Y-83368476D01*
X101276266Y-83423752D01*
X101258718Y-83468759D01*
X101257726Y-83476292D01*
X101257726Y-83476293D01*
X101244963Y-83573243D01*
X101236335Y-83638776D01*
X101245316Y-83720124D01*
X101249094Y-83754340D01*
X101255153Y-83809225D01*
X101257762Y-83816356D01*
X101257763Y-83816358D01*
X101265674Y-83837975D01*
X101314085Y-83970265D01*
X101318322Y-83976571D01*
X101318324Y-83976574D01*
X101350864Y-84024998D01*
X101409730Y-84112599D01*
X101536565Y-84228010D01*
X101545507Y-84232865D01*
X101550620Y-84235641D01*
X101600942Y-84285723D01*
X101616500Y-84346373D01*
X101616500Y-84879947D01*
X101616020Y-84890929D01*
X101614792Y-84904970D01*
X101612644Y-84929515D01*
X101615497Y-84940161D01*
X101615497Y-84940165D01*
X101622672Y-84966941D01*
X101625051Y-84977672D01*
X101631778Y-85015823D01*
X101637290Y-85025369D01*
X101638604Y-85028981D01*
X101640231Y-85032470D01*
X101643084Y-85043118D01*
X101665312Y-85074863D01*
X101671207Y-85084116D01*
X101690583Y-85117677D01*
X101715599Y-85138668D01*
X101720272Y-85142589D01*
X101728376Y-85150016D01*
X106029765Y-89451405D01*
X106063791Y-89513717D01*
X106058726Y-89584532D01*
X106016179Y-89641368D01*
X105949659Y-89666179D01*
X105940670Y-89666500D01*
X104990330Y-89666500D01*
X104922209Y-89646498D01*
X104901235Y-89629595D01*
X100020405Y-84748765D01*
X99986379Y-84686453D01*
X99983500Y-84659670D01*
X99983500Y-84348007D01*
X100003502Y-84279886D01*
X100039270Y-84243570D01*
X100044958Y-84240709D01*
X100175355Y-84129339D01*
X100268474Y-83999752D01*
X100270992Y-83996248D01*
X100270993Y-83996247D01*
X100275424Y-83990080D01*
X100339385Y-83830970D01*
X100350291Y-83754340D01*
X100362966Y-83665281D01*
X100362966Y-83665277D01*
X100363547Y-83661197D01*
X100363704Y-83646250D01*
X100354869Y-83573243D01*
X100344015Y-83483549D01*
X100344014Y-83483546D01*
X100343102Y-83476008D01*
X100339326Y-83466013D01*
X100285171Y-83322697D01*
X100282487Y-83315594D01*
X100213499Y-83215216D01*
X100189659Y-83180528D01*
X100189658Y-83180526D01*
X100185357Y-83174269D01*
X100179231Y-83168811D01*
X100062993Y-83065246D01*
X100062990Y-83065244D01*
X100057321Y-83060193D01*
X100049325Y-83055959D01*
X99966780Y-83012254D01*
X99905769Y-82979950D01*
X99882933Y-82974214D01*
X99746822Y-82940025D01*
X99746818Y-82940025D01*
X99739451Y-82938174D01*
X99731852Y-82938134D01*
X99731850Y-82938134D01*
X99660394Y-82937760D01*
X99567969Y-82937276D01*
X99560589Y-82939048D01*
X99560587Y-82939048D01*
X99408602Y-82975536D01*
X99408598Y-82975537D01*
X99401223Y-82977308D01*
X99248839Y-83055959D01*
X99119615Y-83168689D01*
X99021010Y-83308989D01*
X98997817Y-83368476D01*
X98976266Y-83423752D01*
X98958718Y-83468759D01*
X98957726Y-83476292D01*
X98957726Y-83476293D01*
X98944963Y-83573243D01*
X98936335Y-83638776D01*
X98945316Y-83720124D01*
X98949094Y-83754340D01*
X98955153Y-83809225D01*
X98957762Y-83816356D01*
X98957763Y-83816358D01*
X98965674Y-83837975D01*
X99014085Y-83970265D01*
X99018322Y-83976571D01*
X99018324Y-83976574D01*
X99050864Y-84024998D01*
X99109730Y-84112599D01*
X99236565Y-84228010D01*
X99245507Y-84232865D01*
X99250620Y-84235641D01*
X99300942Y-84285723D01*
X99316500Y-84346373D01*
X99316500Y-84829947D01*
X99316020Y-84840929D01*
X99313674Y-84867748D01*
X99312644Y-84879515D01*
X99315497Y-84890161D01*
X99315497Y-84890165D01*
X99322672Y-84916941D01*
X99325051Y-84927672D01*
X99331778Y-84965823D01*
X99337290Y-84975369D01*
X99338604Y-84978981D01*
X99340231Y-84982470D01*
X99343084Y-84993118D01*
X99365312Y-85024863D01*
X99371207Y-85034116D01*
X99390583Y-85067677D01*
X99399028Y-85074763D01*
X99420272Y-85092589D01*
X99428376Y-85100016D01*
X104279765Y-89951405D01*
X104313791Y-90013717D01*
X104308726Y-90084532D01*
X104266179Y-90141368D01*
X104199659Y-90166179D01*
X104190670Y-90166500D01*
X103363859Y-90166500D01*
X103295738Y-90146498D01*
X103274764Y-90129595D01*
X97843934Y-84698765D01*
X97809908Y-84636453D01*
X97807029Y-84609670D01*
X97807029Y-84348007D01*
X97827031Y-84279886D01*
X97862799Y-84243570D01*
X97868487Y-84240709D01*
X97998884Y-84129339D01*
X98092003Y-83999752D01*
X98094521Y-83996248D01*
X98094522Y-83996247D01*
X98098953Y-83990080D01*
X98162914Y-83830970D01*
X98173820Y-83754340D01*
X98186495Y-83665281D01*
X98186495Y-83665277D01*
X98187076Y-83661197D01*
X98187233Y-83646250D01*
X98178398Y-83573243D01*
X98167544Y-83483549D01*
X98167543Y-83483546D01*
X98166631Y-83476008D01*
X98162855Y-83466013D01*
X98108700Y-83322697D01*
X98106016Y-83315594D01*
X98037028Y-83215216D01*
X98013188Y-83180528D01*
X98013187Y-83180526D01*
X98008886Y-83174269D01*
X98002760Y-83168811D01*
X97886522Y-83065246D01*
X97886519Y-83065244D01*
X97880850Y-83060193D01*
X97872854Y-83055959D01*
X97790309Y-83012254D01*
X97729298Y-82979950D01*
X97706462Y-82974214D01*
X97570351Y-82940025D01*
X97570347Y-82940025D01*
X97562980Y-82938174D01*
X97555381Y-82938134D01*
X97555379Y-82938134D01*
X97483923Y-82937760D01*
X97391498Y-82937276D01*
X97384118Y-82939048D01*
X97384116Y-82939048D01*
X97232131Y-82975536D01*
X97232127Y-82975537D01*
X97224752Y-82977308D01*
X97072368Y-83055959D01*
X96943144Y-83168689D01*
X96844539Y-83308989D01*
X96821346Y-83368476D01*
X96799795Y-83423752D01*
X96782247Y-83468759D01*
X96781255Y-83476292D01*
X96781255Y-83476293D01*
X96768492Y-83573243D01*
X96759864Y-83638776D01*
X96768845Y-83720124D01*
X96772623Y-83754340D01*
X96778682Y-83809225D01*
X96781291Y-83816356D01*
X96781292Y-83816358D01*
X96789203Y-83837975D01*
X96837614Y-83970265D01*
X96841851Y-83976571D01*
X96841853Y-83976574D01*
X96874393Y-84024998D01*
X96933259Y-84112599D01*
X97060094Y-84228010D01*
X97069036Y-84232865D01*
X97074149Y-84235641D01*
X97124471Y-84285723D01*
X97140029Y-84346373D01*
X97140029Y-84779947D01*
X97139549Y-84790929D01*
X97136173Y-84829515D01*
X97139026Y-84840161D01*
X97139026Y-84840165D01*
X97146201Y-84866941D01*
X97148580Y-84877672D01*
X97155307Y-84915823D01*
X97160819Y-84925369D01*
X97162133Y-84928981D01*
X97163760Y-84932470D01*
X97166613Y-84943118D01*
X97188841Y-84974863D01*
X97194736Y-84984116D01*
X97214112Y-85017677D01*
X97238836Y-85038423D01*
X97243801Y-85042589D01*
X97251905Y-85050016D01*
X102653294Y-90451405D01*
X102687320Y-90513717D01*
X102682255Y-90584532D01*
X102639708Y-90641368D01*
X102573188Y-90666179D01*
X102564199Y-90666500D01*
X101671702Y-90666500D01*
X101603581Y-90646498D01*
X101582607Y-90629595D01*
X95535405Y-84582393D01*
X95501379Y-84520081D01*
X95498500Y-84493298D01*
X95498500Y-84376757D01*
X95518502Y-84308636D01*
X95554270Y-84272320D01*
X95559958Y-84269459D01*
X95690355Y-84158089D01*
X95790424Y-84018830D01*
X95854385Y-83859720D01*
X95860556Y-83816358D01*
X95877966Y-83694031D01*
X95877966Y-83694027D01*
X95878547Y-83689947D01*
X95878704Y-83675000D01*
X95865119Y-83562739D01*
X95859015Y-83512299D01*
X95859014Y-83512296D01*
X95858102Y-83504758D01*
X95847239Y-83476008D01*
X95800171Y-83351447D01*
X95797487Y-83344344D01*
X95771933Y-83307162D01*
X95704659Y-83209278D01*
X95704658Y-83209276D01*
X95700357Y-83203019D01*
X95694248Y-83197576D01*
X95577993Y-83093996D01*
X95577990Y-83093994D01*
X95572321Y-83088943D01*
X95564325Y-83084709D01*
X95427481Y-83012254D01*
X95427482Y-83012254D01*
X95420769Y-83008700D01*
X95403196Y-83004286D01*
X95261822Y-82968775D01*
X95261818Y-82968775D01*
X95254451Y-82966924D01*
X95246852Y-82966884D01*
X95246850Y-82966884D01*
X95175394Y-82966510D01*
X95082969Y-82966026D01*
X95075589Y-82967798D01*
X95075587Y-82967798D01*
X94923602Y-83004286D01*
X94923598Y-83004287D01*
X94916223Y-83006058D01*
X94763839Y-83084709D01*
X94634615Y-83197439D01*
X94536010Y-83337739D01*
X94511557Y-83400457D01*
X94478799Y-83484478D01*
X94473718Y-83497509D01*
X94472726Y-83505042D01*
X94472726Y-83505043D01*
X94453592Y-83650383D01*
X94451335Y-83667526D01*
X93144839Y-83667526D01*
X93109530Y-83602087D01*
X93104771Y-83594589D01*
X92945327Y-83378719D01*
X92939554Y-83371958D01*
X92936434Y-83368789D01*
X92922554Y-83361068D01*
X92920983Y-83361168D01*
X92913967Y-83365638D01*
X91642417Y-84637188D01*
X91634803Y-84651132D01*
X91263961Y-84651132D01*
X91265197Y-84648868D01*
X91265066Y-84647035D01*
X91260815Y-84640420D01*
X89989388Y-83368993D01*
X89976547Y-83361981D01*
X89965858Y-83369776D01*
X89829195Y-83543133D01*
X89824202Y-83550481D01*
X89689404Y-83782552D01*
X89685500Y-83790522D01*
X89584745Y-84039273D01*
X89582001Y-84047717D01*
X89517301Y-84308182D01*
X89515774Y-84316933D01*
X89488421Y-84583909D01*
X89488142Y-84592793D01*
X88908000Y-84592793D01*
X88908000Y-83178596D01*
X90162118Y-83178596D01*
X90162168Y-83179642D01*
X90167059Y-83187454D01*
X91437188Y-84457583D01*
X91451132Y-84465197D01*
X91452965Y-84465066D01*
X91459580Y-84460815D01*
X92732344Y-83188051D01*
X92739198Y-83175499D01*
X92730991Y-83164429D01*
X92531274Y-83012010D01*
X92523849Y-83007133D01*
X92289696Y-82876001D01*
X92281643Y-82872212D01*
X92031357Y-82775383D01*
X92022867Y-82772771D01*
X91761420Y-82712172D01*
X91752642Y-82710782D01*
X91485265Y-82687624D01*
X91476394Y-82687484D01*
X91208414Y-82702232D01*
X91199604Y-82703346D01*
X90936381Y-82755704D01*
X90927823Y-82758045D01*
X90674588Y-82846975D01*
X90666454Y-82850495D01*
X90428285Y-82974214D01*
X90420713Y-82978853D01*
X90202358Y-83134892D01*
X90195514Y-83140553D01*
X90170056Y-83164839D01*
X90162118Y-83178596D01*
X88908000Y-83178596D01*
X88908000Y-82234000D01*
X88928002Y-82165879D01*
X88981658Y-82119386D01*
X89034000Y-82108000D01*
X116674000Y-82108000D01*
X116742121Y-82128002D01*
G37*
%TD.AperFunction*%
%TD*%
%TA.AperFunction,Conductor*%
%TO.N,VCC*%
G36*
X135242121Y-82128002D02*
G01*
X135288614Y-82181658D01*
X135300000Y-82234000D01*
X135300000Y-84681633D01*
X135279998Y-84749754D01*
X135269224Y-84764146D01*
X135248671Y-84787865D01*
X135247000Y-84795548D01*
X135247000Y-85799885D01*
X135251475Y-85815124D01*
X135256513Y-85819490D01*
X135294896Y-85879216D01*
X135300000Y-85914714D01*
X135300000Y-86081633D01*
X135279998Y-86149754D01*
X135269224Y-86164146D01*
X135248671Y-86187865D01*
X135247000Y-86195548D01*
X135247000Y-87199885D01*
X135251475Y-87215124D01*
X135256513Y-87219490D01*
X135294896Y-87279216D01*
X135300000Y-87314714D01*
X135300000Y-87481633D01*
X135279998Y-87549754D01*
X135269224Y-87564146D01*
X135248671Y-87587865D01*
X135247000Y-87595548D01*
X135247000Y-88101000D01*
X135226998Y-88169121D01*
X135173342Y-88215614D01*
X135121000Y-88227000D01*
X134650115Y-88227000D01*
X134634876Y-88231475D01*
X134633671Y-88232865D01*
X134632000Y-88240548D01*
X134632000Y-88298380D01*
X134632671Y-88307550D01*
X134639752Y-88355648D01*
X134629885Y-88425956D01*
X134583574Y-88479768D01*
X134515096Y-88500000D01*
X117285806Y-88500000D01*
X117217685Y-88479998D01*
X117171192Y-88426342D01*
X117159806Y-88374194D01*
X117159778Y-88355648D01*
X117157871Y-87116021D01*
X119041500Y-87116021D01*
X119041501Y-87483978D01*
X119051873Y-87554443D01*
X119056190Y-87563235D01*
X119056190Y-87563236D01*
X119099626Y-87651704D01*
X119104473Y-87661577D01*
X119111843Y-87668934D01*
X119181187Y-87738157D01*
X119188939Y-87745896D01*
X119296165Y-87798309D01*
X119327267Y-87802846D01*
X119361495Y-87807840D01*
X119361499Y-87807840D01*
X119366021Y-87808500D01*
X119910476Y-87808500D01*
X120458978Y-87808499D01*
X120529443Y-87798127D01*
X120538236Y-87793810D01*
X120627229Y-87750117D01*
X120627231Y-87750116D01*
X120636577Y-87745527D01*
X120720896Y-87661061D01*
X120731906Y-87638538D01*
X120759214Y-87582670D01*
X120773309Y-87553835D01*
X120780042Y-87507681D01*
X120782840Y-87488505D01*
X120782840Y-87488501D01*
X120783500Y-87483979D01*
X120783499Y-87116022D01*
X120773127Y-87045557D01*
X120731953Y-86961695D01*
X120725117Y-86947771D01*
X120725116Y-86947769D01*
X120720527Y-86938423D01*
X120695850Y-86913789D01*
X120661771Y-86851507D01*
X120666774Y-86780686D01*
X120695694Y-86735600D01*
X120713125Y-86718139D01*
X120725055Y-86701413D01*
X120768529Y-86612475D01*
X120774235Y-86594014D01*
X120782340Y-86538457D01*
X120783000Y-86529358D01*
X120783000Y-86495115D01*
X120778525Y-86479876D01*
X120777135Y-86478671D01*
X120769452Y-86477000D01*
X119060116Y-86477000D01*
X119044877Y-86481475D01*
X119043672Y-86482865D01*
X119042001Y-86490548D01*
X119042001Y-86529321D01*
X119042672Y-86538490D01*
X119050932Y-86594609D01*
X119056674Y-86613088D01*
X119100295Y-86701933D01*
X119112256Y-86718640D01*
X119129149Y-86735504D01*
X119163228Y-86797787D01*
X119158225Y-86868607D01*
X119129304Y-86913695D01*
X119104104Y-86938939D01*
X119099531Y-86948295D01*
X119099530Y-86948296D01*
X119082838Y-86982446D01*
X119051691Y-87046165D01*
X119050279Y-87055845D01*
X119042165Y-87111465D01*
X119041500Y-87116021D01*
X117157871Y-87116021D01*
X117156469Y-86204885D01*
X119042000Y-86204885D01*
X119046475Y-86220124D01*
X119047865Y-86221329D01*
X119055548Y-86223000D01*
X119767385Y-86223000D01*
X119782624Y-86218525D01*
X119783829Y-86217135D01*
X119785500Y-86209452D01*
X119785500Y-86204885D01*
X120039500Y-86204885D01*
X120043975Y-86220124D01*
X120045365Y-86221329D01*
X120053048Y-86223000D01*
X120764884Y-86223000D01*
X120780123Y-86218525D01*
X120792129Y-86204670D01*
X120851855Y-86166287D01*
X120922851Y-86166287D01*
X120976448Y-86198088D01*
X121287731Y-86509371D01*
X121321757Y-86571683D01*
X121323293Y-86580119D01*
X121326873Y-86604443D01*
X121331190Y-86613235D01*
X121374483Y-86701413D01*
X121379473Y-86711577D01*
X121386844Y-86718935D01*
X121386846Y-86718938D01*
X121403796Y-86735859D01*
X121437875Y-86798141D01*
X121432872Y-86868961D01*
X121403950Y-86914049D01*
X121386464Y-86931565D01*
X121386462Y-86931568D01*
X121379104Y-86938939D01*
X121374531Y-86948295D01*
X121374530Y-86948296D01*
X121357838Y-86982446D01*
X121326691Y-87046165D01*
X121325279Y-87055845D01*
X121317165Y-87111465D01*
X121316500Y-87116021D01*
X121316501Y-87483978D01*
X121326873Y-87554443D01*
X121331190Y-87563235D01*
X121331190Y-87563236D01*
X121374626Y-87651704D01*
X121379473Y-87661577D01*
X121386843Y-87668934D01*
X121456187Y-87738157D01*
X121463939Y-87745896D01*
X121571165Y-87798309D01*
X121602267Y-87802846D01*
X121636495Y-87807840D01*
X121636499Y-87807840D01*
X121641021Y-87808500D01*
X121671400Y-87808500D01*
X122162903Y-87808499D01*
X122231024Y-87828501D01*
X122245415Y-87839274D01*
X122250000Y-87843247D01*
X122250000Y-87850000D01*
X124023711Y-87850000D01*
X124091832Y-87870002D01*
X124120232Y-87895008D01*
X124121875Y-87896966D01*
X124132323Y-87909417D01*
X124165880Y-87928791D01*
X124175137Y-87934688D01*
X124206882Y-87956916D01*
X124217531Y-87959769D01*
X124221024Y-87961398D01*
X124224633Y-87962712D01*
X124234177Y-87968222D01*
X124272329Y-87974949D01*
X124283063Y-87977329D01*
X124309834Y-87984503D01*
X124309836Y-87984503D01*
X124320486Y-87987357D01*
X124331471Y-87986396D01*
X124331473Y-87986396D01*
X124359083Y-87983980D01*
X124370065Y-87983500D01*
X127292447Y-87983500D01*
X127303429Y-87983980D01*
X127331030Y-87986395D01*
X127331031Y-87986395D01*
X127342015Y-87987356D01*
X127352661Y-87984503D01*
X127352665Y-87984503D01*
X127379441Y-87977328D01*
X127390172Y-87974949D01*
X127391485Y-87974717D01*
X127428323Y-87968222D01*
X127437869Y-87962710D01*
X127441481Y-87961396D01*
X127444970Y-87959769D01*
X127455618Y-87956916D01*
X127458519Y-87954885D01*
X134632000Y-87954885D01*
X134636475Y-87970124D01*
X134637865Y-87971329D01*
X134645548Y-87973000D01*
X134974885Y-87973000D01*
X134990124Y-87968525D01*
X134991329Y-87967135D01*
X134993000Y-87959452D01*
X134993000Y-87600115D01*
X134988525Y-87584876D01*
X134987135Y-87583671D01*
X134979452Y-87582000D01*
X134951620Y-87582000D01*
X134942461Y-87582670D01*
X134888305Y-87590643D01*
X134869823Y-87596386D01*
X134783969Y-87638538D01*
X134767264Y-87650497D01*
X134700128Y-87717750D01*
X134688196Y-87734478D01*
X134646188Y-87820418D01*
X134640480Y-87838885D01*
X134632660Y-87892487D01*
X134632000Y-87901587D01*
X134632000Y-87954885D01*
X127458519Y-87954885D01*
X127487363Y-87934688D01*
X127496620Y-87928791D01*
X127530177Y-87909417D01*
X127542268Y-87895008D01*
X127601378Y-87855682D01*
X127638789Y-87850000D01*
X128386246Y-87850000D01*
X128432437Y-87861474D01*
X128433031Y-87859784D01*
X128555870Y-87902922D01*
X128555872Y-87902922D01*
X128563115Y-87905466D01*
X128570759Y-87906189D01*
X128570761Y-87906189D01*
X128584342Y-87907472D01*
X128595212Y-87908500D01*
X129329788Y-87908500D01*
X129340658Y-87907472D01*
X129354239Y-87906189D01*
X129354241Y-87906189D01*
X129361885Y-87905466D01*
X129369128Y-87902922D01*
X129369130Y-87902922D01*
X129491969Y-87859784D01*
X129492563Y-87861474D01*
X129538754Y-87850000D01*
X129700000Y-87850000D01*
X129700000Y-87645122D01*
X129707117Y-87603374D01*
X129727922Y-87544131D01*
X129727923Y-87544126D01*
X129730466Y-87536885D01*
X129733500Y-87504788D01*
X129733500Y-87501757D01*
X132467001Y-87501757D01*
X132467280Y-87507681D01*
X132469308Y-87529141D01*
X132472577Y-87544039D01*
X132512542Y-87657842D01*
X132521260Y-87674309D01*
X132591895Y-87769942D01*
X132605058Y-87783105D01*
X132700691Y-87853740D01*
X132717158Y-87862458D01*
X132830962Y-87902424D01*
X132845855Y-87905692D01*
X132867327Y-87907721D01*
X132873238Y-87908000D01*
X133092385Y-87908000D01*
X133107624Y-87903525D01*
X133108829Y-87902135D01*
X133110500Y-87894452D01*
X133110500Y-87889884D01*
X133364500Y-87889884D01*
X133368975Y-87905123D01*
X133370365Y-87906328D01*
X133378048Y-87907999D01*
X133601757Y-87907999D01*
X133607681Y-87907720D01*
X133629141Y-87905692D01*
X133644039Y-87902423D01*
X133757842Y-87862458D01*
X133774309Y-87853740D01*
X133869942Y-87783105D01*
X133883105Y-87769942D01*
X133953740Y-87674309D01*
X133962458Y-87657842D01*
X134002424Y-87544038D01*
X134005692Y-87529145D01*
X134007721Y-87507673D01*
X134008000Y-87501762D01*
X134008000Y-86898380D01*
X134632000Y-86898380D01*
X134632670Y-86907539D01*
X134640643Y-86961695D01*
X134646386Y-86980177D01*
X134688538Y-87066031D01*
X134700497Y-87082736D01*
X134767750Y-87149872D01*
X134784478Y-87161804D01*
X134870418Y-87203812D01*
X134888885Y-87209520D01*
X134942487Y-87217340D01*
X134951587Y-87218000D01*
X134974885Y-87218000D01*
X134990124Y-87213525D01*
X134991329Y-87212135D01*
X134993000Y-87204452D01*
X134993000Y-86845115D01*
X134988525Y-86829876D01*
X134987135Y-86828671D01*
X134979452Y-86827000D01*
X134650115Y-86827000D01*
X134634876Y-86831475D01*
X134633671Y-86832865D01*
X134632000Y-86840548D01*
X134632000Y-86898380D01*
X134008000Y-86898380D01*
X134008000Y-86554885D01*
X134632000Y-86554885D01*
X134636475Y-86570124D01*
X134637865Y-86571329D01*
X134645548Y-86573000D01*
X134974885Y-86573000D01*
X134990124Y-86568525D01*
X134991329Y-86567135D01*
X134993000Y-86559452D01*
X134993000Y-86200115D01*
X134988525Y-86184876D01*
X134987135Y-86183671D01*
X134979452Y-86182000D01*
X134951620Y-86182000D01*
X134942461Y-86182670D01*
X134888305Y-86190643D01*
X134869823Y-86196386D01*
X134783969Y-86238538D01*
X134767264Y-86250497D01*
X134700128Y-86317750D01*
X134688196Y-86334478D01*
X134646188Y-86420418D01*
X134640480Y-86438885D01*
X134632660Y-86492487D01*
X134632000Y-86501587D01*
X134632000Y-86554885D01*
X134008000Y-86554885D01*
X134008000Y-86145115D01*
X134003525Y-86129876D01*
X134002135Y-86128671D01*
X133994452Y-86127000D01*
X133382615Y-86127000D01*
X133367376Y-86131475D01*
X133366171Y-86132865D01*
X133364500Y-86140548D01*
X133364500Y-87889884D01*
X133110500Y-87889884D01*
X133110500Y-86145115D01*
X133106025Y-86129876D01*
X133104635Y-86128671D01*
X133096952Y-86127000D01*
X132485116Y-86127000D01*
X132469877Y-86131475D01*
X132468672Y-86132865D01*
X132467001Y-86140548D01*
X132467001Y-87501757D01*
X129733500Y-87501757D01*
X129733500Y-85854885D01*
X132467000Y-85854885D01*
X132471475Y-85870124D01*
X132472865Y-85871329D01*
X132480548Y-85873000D01*
X133092385Y-85873000D01*
X133107624Y-85868525D01*
X133108829Y-85867135D01*
X133110500Y-85859452D01*
X133110500Y-85854885D01*
X133364500Y-85854885D01*
X133368975Y-85870124D01*
X133370365Y-85871329D01*
X133378048Y-85873000D01*
X133989884Y-85873000D01*
X134005123Y-85868525D01*
X134006328Y-85867135D01*
X134007999Y-85859452D01*
X134007999Y-85498380D01*
X134632000Y-85498380D01*
X134632670Y-85507539D01*
X134640643Y-85561695D01*
X134646386Y-85580177D01*
X134688538Y-85666031D01*
X134700497Y-85682736D01*
X134767750Y-85749872D01*
X134784478Y-85761804D01*
X134870418Y-85803812D01*
X134888885Y-85809520D01*
X134942487Y-85817340D01*
X134951587Y-85818000D01*
X134974885Y-85818000D01*
X134990124Y-85813525D01*
X134991329Y-85812135D01*
X134993000Y-85804452D01*
X134993000Y-85445115D01*
X134988525Y-85429876D01*
X134987135Y-85428671D01*
X134979452Y-85427000D01*
X134650115Y-85427000D01*
X134634876Y-85431475D01*
X134633671Y-85432865D01*
X134632000Y-85440548D01*
X134632000Y-85498380D01*
X134007999Y-85498380D01*
X134007999Y-85154885D01*
X134632000Y-85154885D01*
X134636475Y-85170124D01*
X134637865Y-85171329D01*
X134645548Y-85173000D01*
X134974885Y-85173000D01*
X134990124Y-85168525D01*
X134991329Y-85167135D01*
X134993000Y-85159452D01*
X134993000Y-84800115D01*
X134988525Y-84784876D01*
X134987135Y-84783671D01*
X134979452Y-84782000D01*
X134951620Y-84782000D01*
X134942461Y-84782670D01*
X134888305Y-84790643D01*
X134869823Y-84796386D01*
X134783969Y-84838538D01*
X134767264Y-84850497D01*
X134700128Y-84917750D01*
X134688196Y-84934478D01*
X134646188Y-85020418D01*
X134640480Y-85038885D01*
X134632660Y-85092487D01*
X134632000Y-85101587D01*
X134632000Y-85154885D01*
X134007999Y-85154885D01*
X134007999Y-84498243D01*
X134007720Y-84492319D01*
X134005692Y-84470859D01*
X134002423Y-84455961D01*
X133962458Y-84342158D01*
X133953740Y-84325691D01*
X133883105Y-84230058D01*
X133869942Y-84216895D01*
X133774309Y-84146260D01*
X133757842Y-84137542D01*
X133644038Y-84097576D01*
X133629145Y-84094308D01*
X133607673Y-84092279D01*
X133601762Y-84092000D01*
X133382615Y-84092000D01*
X133367376Y-84096475D01*
X133366171Y-84097865D01*
X133364500Y-84105548D01*
X133364500Y-85854885D01*
X133110500Y-85854885D01*
X133110500Y-84110116D01*
X133106025Y-84094877D01*
X133104635Y-84093672D01*
X133096952Y-84092001D01*
X132873243Y-84092001D01*
X132867319Y-84092280D01*
X132845859Y-84094308D01*
X132830961Y-84097577D01*
X132717158Y-84137542D01*
X132700691Y-84146260D01*
X132605058Y-84216895D01*
X132591895Y-84230058D01*
X132521260Y-84325691D01*
X132512542Y-84342158D01*
X132472576Y-84455962D01*
X132469308Y-84470855D01*
X132467279Y-84492327D01*
X132467000Y-84498238D01*
X132467000Y-85854885D01*
X129733500Y-85854885D01*
X129733500Y-84495212D01*
X129730466Y-84463115D01*
X129727923Y-84455874D01*
X129727922Y-84455869D01*
X129707117Y-84396626D01*
X129700000Y-84354878D01*
X129700000Y-83650000D01*
X127685862Y-83650000D01*
X127617741Y-83629998D01*
X127582135Y-83592656D01*
X127581524Y-83593125D01*
X127577166Y-83587446D01*
X127576496Y-83586572D01*
X127576494Y-83586569D01*
X127489016Y-83472566D01*
X127489013Y-83472563D01*
X127483987Y-83466013D01*
X127452042Y-83441500D01*
X127363426Y-83373502D01*
X127356876Y-83368476D01*
X127349250Y-83365317D01*
X127349248Y-83365316D01*
X127216480Y-83310322D01*
X127216477Y-83310321D01*
X127208850Y-83307162D01*
X127050000Y-83286249D01*
X126891150Y-83307162D01*
X126743125Y-83368476D01*
X126725292Y-83382160D01*
X126681892Y-83415462D01*
X126615672Y-83441063D01*
X126605188Y-83441500D01*
X125798904Y-83441500D01*
X125746999Y-83425129D01*
X125745063Y-83429281D01*
X125644013Y-83382160D01*
X125644012Y-83382160D01*
X125635276Y-83378086D01*
X125625720Y-83376828D01*
X125625717Y-83376827D01*
X125589337Y-83372038D01*
X125589336Y-83372038D01*
X125585250Y-83371500D01*
X125234750Y-83371500D01*
X125230664Y-83372038D01*
X125230663Y-83372038D01*
X125194283Y-83376827D01*
X125194280Y-83376828D01*
X125184724Y-83378086D01*
X125175988Y-83382160D01*
X125175987Y-83382160D01*
X125084930Y-83424621D01*
X125074937Y-83429281D01*
X124989281Y-83514937D01*
X124986261Y-83511917D01*
X124947831Y-83542676D01*
X124877216Y-83550031D01*
X124813835Y-83518041D01*
X124810947Y-83514709D01*
X124810719Y-83514937D01*
X124725063Y-83429281D01*
X124715070Y-83424621D01*
X124624013Y-83382160D01*
X124624012Y-83382160D01*
X124615276Y-83378086D01*
X124605720Y-83376828D01*
X124605717Y-83376827D01*
X124569337Y-83372038D01*
X124569336Y-83372038D01*
X124565250Y-83371500D01*
X124214750Y-83371500D01*
X124210664Y-83372038D01*
X124210663Y-83372038D01*
X124174283Y-83376827D01*
X124174280Y-83376828D01*
X124164724Y-83378086D01*
X124155988Y-83382160D01*
X124155987Y-83382160D01*
X124064930Y-83424621D01*
X124054937Y-83429281D01*
X123969281Y-83514937D01*
X123964621Y-83524929D01*
X123964621Y-83524930D01*
X123940224Y-83577250D01*
X123893307Y-83630535D01*
X123826029Y-83650000D01*
X122623971Y-83650000D01*
X122555850Y-83629998D01*
X122509776Y-83577250D01*
X122485379Y-83524930D01*
X122485379Y-83524929D01*
X122480719Y-83514937D01*
X122395063Y-83429281D01*
X122385070Y-83424621D01*
X122294013Y-83382160D01*
X122294012Y-83382160D01*
X122285276Y-83378086D01*
X122275720Y-83376828D01*
X122275717Y-83376827D01*
X122239337Y-83372038D01*
X122239336Y-83372038D01*
X122235250Y-83371500D01*
X121884750Y-83371500D01*
X121880664Y-83372038D01*
X121880663Y-83372038D01*
X121844283Y-83376827D01*
X121844280Y-83376828D01*
X121834724Y-83378086D01*
X121825988Y-83382160D01*
X121825987Y-83382160D01*
X121734930Y-83424621D01*
X121724937Y-83429281D01*
X121639281Y-83514937D01*
X121636261Y-83511917D01*
X121597831Y-83542676D01*
X121527216Y-83550031D01*
X121463835Y-83518041D01*
X121460947Y-83514709D01*
X121460719Y-83514937D01*
X121375063Y-83429281D01*
X121365070Y-83424621D01*
X121274013Y-83382160D01*
X121274012Y-83382160D01*
X121265276Y-83378086D01*
X121255720Y-83376828D01*
X121255717Y-83376827D01*
X121219337Y-83372038D01*
X121219336Y-83372038D01*
X121215250Y-83371500D01*
X120864750Y-83371500D01*
X120860664Y-83372038D01*
X120860663Y-83372038D01*
X120824283Y-83376827D01*
X120824280Y-83376828D01*
X120814724Y-83378086D01*
X120805988Y-83382160D01*
X120805987Y-83382160D01*
X120714930Y-83424621D01*
X120704937Y-83429281D01*
X120619281Y-83514937D01*
X120568086Y-83624724D01*
X120566828Y-83634280D01*
X120566827Y-83634283D01*
X120562038Y-83670663D01*
X120561500Y-83674750D01*
X120561500Y-84125250D01*
X120562038Y-84129336D01*
X120562038Y-84129337D01*
X120566827Y-84165717D01*
X120566828Y-84165720D01*
X120568086Y-84175276D01*
X120572160Y-84184012D01*
X120572160Y-84184013D01*
X120602916Y-84249969D01*
X120619281Y-84285063D01*
X120679595Y-84345377D01*
X120713621Y-84407689D01*
X120716500Y-84434472D01*
X120716500Y-84792142D01*
X120696498Y-84860263D01*
X120642842Y-84906756D01*
X120572568Y-84916860D01*
X120546941Y-84908968D01*
X120546820Y-84909359D01*
X120519014Y-84900765D01*
X120463457Y-84892660D01*
X120454358Y-84892000D01*
X120057615Y-84892000D01*
X120042376Y-84896475D01*
X120041171Y-84897865D01*
X120039500Y-84905548D01*
X120039500Y-86204885D01*
X119785500Y-86204885D01*
X119785500Y-85545115D01*
X119781025Y-85529876D01*
X119779635Y-85528671D01*
X119771952Y-85527000D01*
X119060116Y-85527000D01*
X119044877Y-85531475D01*
X119043672Y-85532865D01*
X119042001Y-85540548D01*
X119042001Y-85579321D01*
X119042672Y-85588490D01*
X119050932Y-85644609D01*
X119056674Y-85663088D01*
X119100295Y-85751933D01*
X119112255Y-85768639D01*
X119129502Y-85785855D01*
X119163582Y-85848137D01*
X119158581Y-85918957D01*
X119129659Y-85964048D01*
X119111873Y-85981866D01*
X119099945Y-85998587D01*
X119056471Y-86087525D01*
X119050765Y-86105986D01*
X119042660Y-86161543D01*
X119042000Y-86170642D01*
X119042000Y-86204885D01*
X117156469Y-86204885D01*
X117155008Y-85254885D01*
X119042000Y-85254885D01*
X119046475Y-85270124D01*
X119047865Y-85271329D01*
X119055548Y-85273000D01*
X119767385Y-85273000D01*
X119782624Y-85268525D01*
X119783829Y-85267135D01*
X119785500Y-85259452D01*
X119785500Y-84910116D01*
X119781025Y-84894877D01*
X119779635Y-84893672D01*
X119771952Y-84892001D01*
X119370679Y-84892001D01*
X119361510Y-84892672D01*
X119305391Y-84900932D01*
X119286912Y-84906674D01*
X119198067Y-84950295D01*
X119181360Y-84962255D01*
X119111873Y-85031865D01*
X119099945Y-85048587D01*
X119056471Y-85137525D01*
X119050765Y-85155986D01*
X119042660Y-85211543D01*
X119042000Y-85220642D01*
X119042000Y-85254885D01*
X117155008Y-85254885D01*
X117150360Y-82234193D01*
X117170257Y-82166042D01*
X117223841Y-82119467D01*
X117276360Y-82108000D01*
X135174000Y-82108000D01*
X135242121Y-82128002D01*
G37*
%TD.AperFunction*%
%TD*%
M02*
